<?xml version="1.0" encoding="utf-8" standalone="no"?>
<!DOCTYPE svg PUBLIC "-//W3C//DTD SVG 1.1//EN"
  "http://www.w3.org/Graphics/SVG/1.1/DTD/svg11.dtd">
<svg xmlns:xlink="http://www.w3.org/1999/xlink" width="706.015207pt" height="345.6pt" viewBox="0 0 706.015207 345.6" xmlns="http://www.w3.org/2000/svg" version="1.1">
 <metadata>
  <rdf:RDF xmlns:dc="http://purl.org/dc/elements/1.1/" xmlns:cc="http://creativecommons.org/ns#" xmlns:rdf="http://www.w3.org/1999/02/22-rdf-syntax-ns#">
   <cc:Work>
    <dc:type rdf:resource="http://purl.org/dc/dcmitype/StillImage"/>
    <dc:date>2023-10-10T18:27:26.410461</dc:date>
    <dc:format>image/svg+xml</dc:format>
    <dc:creator>
     <cc:Agent>
      <dc:title>Matplotlib v3.7.2, https://matplotlib.org/</dc:title>
     </cc:Agent>
    </dc:creator>
   </cc:Work>
  </rdf:RDF>
 </metadata>
 <defs>
  <style type="text/css">*{stroke-linejoin: round; stroke-linecap: butt}</style>
 </defs>
 <g id="figure_1">
  <g id="patch_1">
   <path d="M -0 345.6 
L 706.015207 345.6 
L 706.015207 0 
L -0 0 
z
" style="fill: #ffffff"/>
  </g>
  <g id="axes_1">
   <g id="patch_2">
    <path d="M 72.092987 306.161871 
L 377.668276 306.161871 
L 377.668276 20.669588 
L 72.092987 20.669588 
z
" style="fill: #ffffff"/>
   </g>
   <g id="PathCollection_1">
    <defs>
     <path id="m22aa349c84" d="M 0 3.872983 
C 1.027127 3.872983 2.012324 3.464901 2.738613 2.738613 
C 3.464901 2.012324 3.872983 1.027127 3.872983 0 
C 3.872983 -1.027127 3.464901 -2.012324 2.738613 -2.738613 
C 2.012324 -3.464901 1.027127 -3.872983 0 -3.872983 
C -1.027127 -3.872983 -2.012324 -3.464901 -2.738613 -2.738613 
C -3.464901 -2.012324 -3.872983 -1.027127 -3.872983 0 
C -3.872983 1.027127 -3.464901 2.012324 -2.738613 2.738613 
C -2.012324 3.464901 -1.027127 3.872983 0 3.872983 
z
" style="stroke: #000000; stroke-opacity: 0.8; stroke-width: 0.7"/>
    </defs>
    <g clip-path="url(#p25d3cc834e)">
     <use xlink:href="#m22aa349c84" x="174.171889" y="176.135381" style="fill: #6b8df0; fill-opacity: 0.8; stroke: #000000; stroke-opacity: 0.8; stroke-width: 0.7"/>
     <use xlink:href="#m22aa349c84" x="112.439507" y="264.62102" style="fill: #6b8df0; fill-opacity: 0.8; stroke: #000000; stroke-opacity: 0.8; stroke-width: 0.7"/>
     <use xlink:href="#m22aa349c84" x="231.494815" y="261.471681" style="fill: #6b8df0; fill-opacity: 0.8; stroke: #000000; stroke-opacity: 0.8; stroke-width: 0.7"/>
     <use xlink:href="#m22aa349c84" x="279.998829" y="226.409038" style="fill: #6b8df0; fill-opacity: 0.8; stroke: #000000; stroke-opacity: 0.8; stroke-width: 0.7"/>
     <use xlink:href="#m22aa349c84" x="165.352977" y="188.777869" style="fill: #6b8df0; fill-opacity: 0.8; stroke: #000000; stroke-opacity: 0.8; stroke-width: 0.7"/>
     <use xlink:href="#m22aa349c84" x="257.95155" y="284.653172" style="fill: #6b8df0; fill-opacity: 0.8; stroke: #000000; stroke-opacity: 0.8; stroke-width: 0.7"/>
     <use xlink:href="#m22aa349c84" x="165.352977" y="222.755412" style="fill: #6b8df0; fill-opacity: 0.8; stroke: #000000; stroke-opacity: 0.8; stroke-width: 0.7"/>
     <use xlink:href="#m22aa349c84" x="147.715154" y="251.902007" style="fill: #6b8df0; fill-opacity: 0.8; stroke: #000000; stroke-opacity: 0.8; stroke-width: 0.7"/>
     <use xlink:href="#m22aa349c84" x="165.352977" y="256.430776" style="fill: #6b8df0; fill-opacity: 0.8; stroke: #000000; stroke-opacity: 0.8; stroke-width: 0.7"/>
     <use xlink:href="#m22aa349c84" x="165.352977" y="257.156792" style="fill: #6b8df0; fill-opacity: 0.8; stroke: #000000; stroke-opacity: 0.8; stroke-width: 0.7"/>
     <use xlink:href="#m22aa349c84" x="147.715154" y="179.114008" style="fill: #6b8df0; fill-opacity: 0.8; stroke: #000000; stroke-opacity: 0.8; stroke-width: 0.7"/>
     <use xlink:href="#m22aa349c84" x="125.667875" y="264.399291" style="fill: #6b8df0; fill-opacity: 0.8; stroke: #000000; stroke-opacity: 0.8; stroke-width: 0.7"/>
     <use xlink:href="#m22aa349c84" x="130.077331" y="265.553067" style="fill: #6b8df0; fill-opacity: 0.8; stroke: #000000; stroke-opacity: 0.8; stroke-width: 0.7"/>
     <use xlink:href="#m22aa349c84" x="125.667875" y="268.109821" style="fill: #6b8df0; fill-opacity: 0.8; stroke: #000000; stroke-opacity: 0.8; stroke-width: 0.7"/>
     <use xlink:href="#m22aa349c84" x="116.848963" y="234.040054" style="fill: #6b8df0; fill-opacity: 0.8; stroke: #000000; stroke-opacity: 0.8; stroke-width: 0.7"/>
     <use xlink:href="#m22aa349c84" x="363.77849" y="268.135329" style="fill: #6b8df0; fill-opacity: 0.8; stroke: #000000; stroke-opacity: 0.8; stroke-width: 0.7"/>
    </g>
   </g>
   <g id="PolyCollection_1">
    <path d="M 112.439507 209.530867 
L 112.439507 257.834121 
L 114.978285 257.686154 
L 117.517063 257.181503 
L 120.05584 256.610375 
L 122.594618 256.664475 
L 125.133395 256.300467 
L 127.672173 256.152962 
L 130.210951 255.843641 
L 132.749728 255.899418 
L 135.288506 255.974784 
L 137.827283 255.850778 
L 140.366061 255.990156 
L 142.904839 256.129534 
L 145.443616 256.236807 
L 147.982394 256.287412 
L 150.521171 256.299432 
L 153.059949 256.311452 
L 155.598727 256.454251 
L 158.137504 256.515431 
L 160.676282 256.573553 
L 163.215059 256.618246 
L 165.753837 256.672819 
L 168.292615 256.725443 
L 170.831392 256.787165 
L 173.37017 256.968054 
L 175.908947 257.006098 
L 178.447725 256.948024 
L 180.986503 257.041136 
L 183.52528 257.228943 
L 186.064058 257.458977 
L 188.602835 257.630283 
L 191.141613 258.034765 
L 193.680391 258.121117 
L 196.219168 258.361346 
L 198.757946 258.350872 
L 201.296723 258.439353 
L 203.835501 258.475276 
L 206.374279 258.760151 
L 208.913056 259.166978 
L 211.451834 259.372287 
L 213.990611 259.600762 
L 216.529389 260.110696 
L 219.068167 260.317351 
L 221.606944 260.594917 
L 224.145722 260.756197 
L 226.684499 261.194241 
L 229.223277 261.544903 
L 231.762055 261.820182 
L 234.300832 262.069515 
L 236.83961 262.316444 
L 239.378387 262.710152 
L 241.917165 263.281852 
L 244.455943 263.684852 
L 246.99472 263.9176 
L 249.533498 264.459295 
L 252.072275 265.122057 
L 254.611053 265.557416 
L 257.14983 266.212313 
L 259.688608 266.891906 
L 262.227386 267.31421 
L 264.766163 267.82552 
L 267.304941 268.200183 
L 269.843718 268.527783 
L 272.382496 268.855913 
L 274.921274 269.196608 
L 277.460051 269.708529 
L 279.998829 270.277631 
L 282.537606 271.012464 
L 285.076384 271.458595 
L 287.615162 271.965767 
L 290.153939 272.379725 
L 292.692717 272.742847 
L 295.231494 273.170932 
L 297.770272 273.599016 
L 300.30905 274.0271 
L 302.847827 274.403601 
L 305.386605 274.884969 
L 307.925382 275.318056 
L 310.46416 275.744467 
L 313.002938 276.137484 
L 315.541715 276.598298 
L 318.080493 276.937045 
L 320.61927 277.460101 
L 323.158048 278.150724 
L 325.696826 278.914024 
L 328.235603 279.674795 
L 330.774381 280.435566 
L 333.313158 281.10472 
L 335.851936 281.740002 
L 338.390714 282.375284 
L 340.929491 283.010566 
L 343.468269 283.64244 
L 346.007046 284.273946 
L 348.545824 284.905451 
L 351.084602 285.536957 
L 353.623379 286.168463 
L 356.162157 286.799968 
L 358.700934 287.431474 
L 361.239712 288.062979 
L 363.77849 288.694485 
L 363.77849 180.801832 
L 363.77849 180.801832 
L 361.239712 181.3731 
L 358.700934 181.944367 
L 356.162157 182.515635 
L 353.623379 183.086902 
L 351.084602 183.65817 
L 348.545824 184.229437 
L 346.007046 184.800705 
L 343.468269 185.371972 
L 340.929491 185.94324 
L 338.390714 186.514507 
L 335.851936 187.085775 
L 333.313158 187.657042 
L 330.774381 188.22831 
L 328.235603 188.799577 
L 325.696826 189.370845 
L 323.158048 189.942112 
L 320.61927 190.51338 
L 318.080493 191.084647 
L 315.541715 191.576212 
L 313.002938 192.005895 
L 310.46416 192.435578 
L 307.925382 192.865262 
L 305.386605 193.294945 
L 302.847827 193.830359 
L 300.30905 194.432931 
L 297.770272 195.066361 
L 295.231494 195.710557 
L 292.692717 196.355503 
L 290.153939 197.003012 
L 287.615162 197.733386 
L 285.076384 198.465147 
L 282.537606 199.089776 
L 279.998829 199.662139 
L 277.460051 200.234502 
L 274.921274 200.873059 
L 272.382496 201.516481 
L 269.843718 202.159903 
L 267.304941 202.803325 
L 264.766163 203.446747 
L 262.227386 204.090169 
L 259.688608 204.733591 
L 257.14983 205.377013 
L 254.611053 206.020435 
L 252.072275 206.663857 
L 249.533498 207.307279 
L 246.99472 207.950701 
L 244.455943 208.596833 
L 241.917165 209.246919 
L 239.378387 209.897005 
L 236.83961 210.54709 
L 234.300832 211.197176 
L 231.762055 211.843357 
L 229.223277 212.480997 
L 226.684499 213.118636 
L 224.145722 213.756276 
L 221.606944 214.074088 
L 219.068167 214.364572 
L 216.529389 214.656712 
L 213.990611 214.948853 
L 211.451834 215.627846 
L 208.913056 216.430286 
L 206.374279 217.232727 
L 203.835501 218.035167 
L 201.296723 218.837608 
L 198.757946 219.640048 
L 196.219168 219.521856 
L 193.680391 219.679372 
L 191.141613 219.785171 
L 188.602835 220.024733 
L 186.064058 219.795182 
L 183.52528 219.872483 
L 180.986503 219.397259 
L 178.447725 218.929005 
L 175.908947 219.205584 
L 173.37017 218.954769 
L 170.831392 218.486383 
L 168.292615 218.232772 
L 165.753837 218.529672 
L 163.215059 219.053994 
L 160.676282 219.386222 
L 158.137504 218.968717 
L 155.598727 218.406181 
L 153.059949 218.225893 
L 150.521171 217.791941 
L 147.982394 217.238897 
L 145.443616 216.68857 
L 142.904839 216.13903 
L 140.366061 215.586435 
L 137.827283 215.033841 
L 135.288506 214.340438 
L 132.749728 213.549925 
L 130.210951 212.907692 
L 127.672173 212.281263 
L 125.133395 211.847253 
L 122.594618 211.38025 
L 120.05584 210.843359 
L 117.517063 210.369176 
L 114.978285 209.915353 
L 112.439507 209.530867 
z
" clip-path="url(#p25d3cc834e)" style="fill: #0c5da5; fill-opacity: 0.15"/>
   </g>
   <g id="matplotlib.axis_1">
    <g id="xtick_1">
     <g id="line2d_1">
      <defs>
       <path id="m080c615a07" d="M 0 0 
L 0 -3 
" style="stroke: #000000; stroke-width: 0.5"/>
      </defs>
      <g>
       <use xlink:href="#m080c615a07" x="103.620596" y="306.161871" style="stroke: #000000; stroke-width: 0.5"/>
      </g>
     </g>
     <g id="line2d_2">
      <defs>
       <path id="ma7edce0098" d="M 0 0 
L 0 3 
" style="stroke: #000000; stroke-width: 0.5"/>
      </defs>
      <g>
       <use xlink:href="#ma7edce0098" x="103.620596" y="20.669588" style="stroke: #000000; stroke-width: 0.5"/>
      </g>
     </g>
     <g id="text_1">
      <!-- $\mathdefault{0.02}$ -->
      <g transform="translate(89.746841 320.731459) scale(0.16 -0.16)">
       <defs>
        <path id="CMR17-30" d="M 2688 2025 
C 2688 2416 2682 3080 2413 3591 
C 2176 4039 1798 4198 1466 4198 
C 1158 4198 768 4058 525 3597 
C 269 3118 243 2524 243 2025 
C 243 1661 250 1106 448 619 
C 723 -39 1216 -128 1466 -128 
C 1760 -128 2208 -7 2470 600 
C 2662 1042 2688 1559 2688 2025 
z
M 1466 -26 
C 1056 -26 813 325 723 812 
C 653 1188 653 1738 653 2096 
C 653 2588 653 2997 736 3387 
C 858 3929 1216 4096 1466 4096 
C 1728 4096 2067 3923 2189 3400 
C 2272 3036 2278 2607 2278 2096 
C 2278 1680 2278 1169 2202 792 
C 2067 95 1690 -26 1466 -26 
z
" transform="scale(0.015625)"/>
        <path id="CMMI12-3a" d="M 1178 307 
C 1178 492 1024 619 870 619 
C 685 619 557 466 557 313 
C 557 128 710 0 864 0 
C 1050 0 1178 153 1178 307 
z
" transform="scale(0.015625)"/>
        <path id="CMR17-32" d="M 2669 989 
L 2554 989 
C 2490 536 2438 459 2413 420 
C 2381 369 1920 369 1830 369 
L 602 369 
C 832 619 1280 1072 1824 1597 
C 2214 1967 2669 2402 2669 3035 
C 2669 3790 2067 4224 1395 4224 
C 691 4224 262 3604 262 3030 
C 262 2780 448 2748 525 2748 
C 589 2748 781 2787 781 3010 
C 781 3207 614 3264 525 3264 
C 486 3264 448 3258 422 3245 
C 544 3790 915 4058 1306 4058 
C 1862 4058 2227 3617 2227 3035 
C 2227 2479 1901 2000 1536 1584 
L 262 146 
L 262 0 
L 2515 0 
L 2669 989 
z
" transform="scale(0.015625)"/>
       </defs>
       <use xlink:href="#CMR17-30" transform="scale(0.996264)"/>
       <use xlink:href="#CMMI12-3a" transform="translate(45.690477 0) scale(0.996264)"/>
       <use xlink:href="#CMR17-30" transform="translate(72.787654 0) scale(0.996264)"/>
       <use xlink:href="#CMR17-32" transform="translate(118.478131 0) scale(0.996264)"/>
      </g>
     </g>
    </g>
    <g id="xtick_2">
     <g id="line2d_3">
      <g>
       <use xlink:href="#m080c615a07" x="191.809712" y="306.161871" style="stroke: #000000; stroke-width: 0.5"/>
      </g>
     </g>
     <g id="line2d_4">
      <g>
       <use xlink:href="#ma7edce0098" x="191.809712" y="20.669588" style="stroke: #000000; stroke-width: 0.5"/>
      </g>
     </g>
     <g id="text_2">
      <!-- $\mathdefault{0.04}$ -->
      <g transform="translate(177.935958 320.731459) scale(0.16 -0.16)">
       <defs>
        <path id="CMR17-34" d="M 2150 4122 
C 2150 4256 2144 4256 2029 4256 
L 128 1254 
L 128 1088 
L 1779 1088 
L 1779 457 
C 1779 224 1766 160 1318 160 
L 1197 160 
L 1197 0 
C 1402 0 1747 0 1965 0 
C 2182 0 2528 0 2733 0 
L 2733 160 
L 2611 160 
C 2163 160 2150 224 2150 457 
L 2150 1088 
L 2803 1088 
L 2803 1254 
L 2150 1254 
L 2150 4122 
z
M 1798 3703 
L 1798 1254 
L 256 1254 
L 1798 3703 
z
" transform="scale(0.015625)"/>
       </defs>
       <use xlink:href="#CMR17-30" transform="scale(0.996264)"/>
       <use xlink:href="#CMMI12-3a" transform="translate(45.690477 0) scale(0.996264)"/>
       <use xlink:href="#CMR17-30" transform="translate(72.787654 0) scale(0.996264)"/>
       <use xlink:href="#CMR17-34" transform="translate(118.478131 0) scale(0.996264)"/>
      </g>
     </g>
    </g>
    <g id="xtick_3">
     <g id="line2d_5">
      <g>
       <use xlink:href="#m080c615a07" x="279.998829" y="306.161871" style="stroke: #000000; stroke-width: 0.5"/>
      </g>
     </g>
     <g id="line2d_6">
      <g>
       <use xlink:href="#ma7edce0098" x="279.998829" y="20.669588" style="stroke: #000000; stroke-width: 0.5"/>
      </g>
     </g>
     <g id="text_3">
      <!-- $\mathdefault{0.06}$ -->
      <g transform="translate(266.125074 320.731459) scale(0.16 -0.16)">
       <defs>
        <path id="CMR17-36" d="M 678 2176 
C 678 3690 1395 4032 1811 4032 
C 1946 4032 2272 4009 2400 3776 
C 2298 3776 2106 3776 2106 3553 
C 2106 3381 2246 3323 2336 3323 
C 2394 3323 2566 3348 2566 3560 
C 2566 3954 2246 4179 1805 4179 
C 1043 4179 243 3390 243 1984 
C 243 253 966 -128 1478 -128 
C 2099 -128 2688 427 2688 1283 
C 2688 2081 2170 2662 1517 2662 
C 1126 2662 838 2407 678 1960 
L 678 2176 
z
M 1478 25 
C 691 25 691 1200 691 1436 
C 691 1896 909 2560 1504 2560 
C 1613 2560 1926 2560 2138 2120 
C 2253 1870 2253 1609 2253 1289 
C 2253 944 2253 690 2118 434 
C 1978 171 1773 25 1478 25 
z
" transform="scale(0.015625)"/>
       </defs>
       <use xlink:href="#CMR17-30" transform="scale(0.996264)"/>
       <use xlink:href="#CMMI12-3a" transform="translate(45.690477 0) scale(0.996264)"/>
       <use xlink:href="#CMR17-30" transform="translate(72.787654 0) scale(0.996264)"/>
       <use xlink:href="#CMR17-36" transform="translate(118.478131 0) scale(0.996264)"/>
      </g>
     </g>
    </g>
    <g id="xtick_4">
     <g id="line2d_7">
      <g>
       <use xlink:href="#m080c615a07" x="368.187945" y="306.161871" style="stroke: #000000; stroke-width: 0.5"/>
      </g>
     </g>
     <g id="line2d_8">
      <g>
       <use xlink:href="#ma7edce0098" x="368.187945" y="20.669588" style="stroke: #000000; stroke-width: 0.5"/>
      </g>
     </g>
     <g id="text_4">
      <!-- $\mathdefault{0.08}$ -->
      <g transform="translate(354.314191 320.731459) scale(0.16 -0.16)">
       <defs>
        <path id="CMR17-38" d="M 1741 2264 
C 2144 2467 2554 2773 2554 3263 
C 2554 3841 1990 4179 1472 4179 
C 890 4179 378 3759 378 3180 
C 378 3021 416 2747 666 2505 
C 730 2442 998 2251 1171 2130 
C 883 1983 211 1634 211 934 
C 211 279 838 -128 1459 -128 
C 2144 -128 2720 362 2720 1010 
C 2720 1590 2330 1857 2074 2029 
L 1741 2264 
z
M 902 2822 
C 851 2854 595 3051 595 3351 
C 595 3739 998 4032 1459 4032 
C 1965 4032 2336 3676 2336 3262 
C 2336 2669 1670 2331 1638 2331 
C 1632 2331 1626 2331 1574 2370 
L 902 2822 
z
M 2080 1519 
C 2176 1449 2483 1240 2483 851 
C 2483 381 2010 25 1472 25 
C 890 25 448 438 448 940 
C 448 1443 838 1862 1280 2060 
L 2080 1519 
z
" transform="scale(0.015625)"/>
       </defs>
       <use xlink:href="#CMR17-30" transform="scale(0.996264)"/>
       <use xlink:href="#CMMI12-3a" transform="translate(45.690477 0) scale(0.996264)"/>
       <use xlink:href="#CMR17-30" transform="translate(72.787654 0) scale(0.996264)"/>
       <use xlink:href="#CMR17-38" transform="translate(118.478131 0) scale(0.996264)"/>
      </g>
     </g>
    </g>
    <g id="xtick_5">
     <g id="line2d_9">
      <defs>
       <path id="m6bb023a552" d="M 0 0 
L 0 -1.5 
" style="stroke: #000000; stroke-width: 0.5"/>
      </defs>
      <g>
       <use xlink:href="#m6bb023a552" x="81.573317" y="306.161871" style="stroke: #000000; stroke-width: 0.5"/>
      </g>
     </g>
     <g id="line2d_10">
      <defs>
       <path id="m6698f7668d" d="M 0 0 
L 0 1.5 
" style="stroke: #000000; stroke-width: 0.5"/>
      </defs>
      <g>
       <use xlink:href="#m6698f7668d" x="81.573317" y="20.669588" style="stroke: #000000; stroke-width: 0.5"/>
      </g>
     </g>
    </g>
    <g id="xtick_6">
     <g id="line2d_11">
      <g>
       <use xlink:href="#m6bb023a552" x="125.667875" y="306.161871" style="stroke: #000000; stroke-width: 0.5"/>
      </g>
     </g>
     <g id="line2d_12">
      <g>
       <use xlink:href="#m6698f7668d" x="125.667875" y="20.669588" style="stroke: #000000; stroke-width: 0.5"/>
      </g>
     </g>
    </g>
    <g id="xtick_7">
     <g id="line2d_13">
      <g>
       <use xlink:href="#m6bb023a552" x="147.715154" y="306.161871" style="stroke: #000000; stroke-width: 0.5"/>
      </g>
     </g>
     <g id="line2d_14">
      <g>
       <use xlink:href="#m6698f7668d" x="147.715154" y="20.669588" style="stroke: #000000; stroke-width: 0.5"/>
      </g>
     </g>
    </g>
    <g id="xtick_8">
     <g id="line2d_15">
      <g>
       <use xlink:href="#m6bb023a552" x="169.762433" y="306.161871" style="stroke: #000000; stroke-width: 0.5"/>
      </g>
     </g>
     <g id="line2d_16">
      <g>
       <use xlink:href="#m6698f7668d" x="169.762433" y="20.669588" style="stroke: #000000; stroke-width: 0.5"/>
      </g>
     </g>
    </g>
    <g id="xtick_9">
     <g id="line2d_17">
      <g>
       <use xlink:href="#m6bb023a552" x="213.856991" y="306.161871" style="stroke: #000000; stroke-width: 0.5"/>
      </g>
     </g>
     <g id="line2d_18">
      <g>
       <use xlink:href="#m6698f7668d" x="213.856991" y="20.669588" style="stroke: #000000; stroke-width: 0.5"/>
      </g>
     </g>
    </g>
    <g id="xtick_10">
     <g id="line2d_19">
      <g>
       <use xlink:href="#m6bb023a552" x="235.904271" y="306.161871" style="stroke: #000000; stroke-width: 0.5"/>
      </g>
     </g>
     <g id="line2d_20">
      <g>
       <use xlink:href="#m6698f7668d" x="235.904271" y="20.669588" style="stroke: #000000; stroke-width: 0.5"/>
      </g>
     </g>
    </g>
    <g id="xtick_11">
     <g id="line2d_21">
      <g>
       <use xlink:href="#m6bb023a552" x="257.95155" y="306.161871" style="stroke: #000000; stroke-width: 0.5"/>
      </g>
     </g>
     <g id="line2d_22">
      <g>
       <use xlink:href="#m6698f7668d" x="257.95155" y="20.669588" style="stroke: #000000; stroke-width: 0.5"/>
      </g>
     </g>
    </g>
    <g id="xtick_12">
     <g id="line2d_23">
      <g>
       <use xlink:href="#m6bb023a552" x="302.046108" y="306.161871" style="stroke: #000000; stroke-width: 0.5"/>
      </g>
     </g>
     <g id="line2d_24">
      <g>
       <use xlink:href="#m6698f7668d" x="302.046108" y="20.669588" style="stroke: #000000; stroke-width: 0.5"/>
      </g>
     </g>
    </g>
    <g id="xtick_13">
     <g id="line2d_25">
      <g>
       <use xlink:href="#m6bb023a552" x="324.093387" y="306.161871" style="stroke: #000000; stroke-width: 0.5"/>
      </g>
     </g>
     <g id="line2d_26">
      <g>
       <use xlink:href="#m6698f7668d" x="324.093387" y="20.669588" style="stroke: #000000; stroke-width: 0.5"/>
      </g>
     </g>
    </g>
    <g id="xtick_14">
     <g id="line2d_27">
      <g>
       <use xlink:href="#m6bb023a552" x="346.140666" y="306.161871" style="stroke: #000000; stroke-width: 0.5"/>
      </g>
     </g>
     <g id="line2d_28">
      <g>
       <use xlink:href="#m6698f7668d" x="346.140666" y="20.669588" style="stroke: #000000; stroke-width: 0.5"/>
      </g>
     </g>
    </g>
    <g id="text_5">
     <!-- Area -->
     <g transform="translate(208.625084 338.900524) scale(0.16 -0.16)">
      <defs>
       <path id="CMR17-41" d="M 2323 4378 
C 2291 4461 2278 4480 2214 4480 
C 2150 4480 2138 4461 2106 4378 
L 749 566 
C 627 223 371 153 147 153 
L 147 -13 
C 262 0 518 0 640 0 
C 800 0 1056 0 1210 -13 
L 1210 153 
C 909 153 864 361 864 439 
C 864 497 877 530 890 569 
L 1229 1536 
L 2906 1536 
L 3290 442 
C 3322 365 3322 352 3322 327 
C 3322 153 3046 153 2925 153 
L 2925 0 
C 3110 0 3443 0 3642 0 
C 3808 0 4128 0 4282 -13 
L 4282 153 
C 3942 153 3827 153 3744 387 
L 2323 4378 
z
M 2067 3893 
L 2848 1702 
L 1286 1702 
L 2067 3893 
z
" transform="scale(0.015625)"/>
       <path id="CMR17-72" d="M 960 1497 
C 960 2112 1222 2688 1702 2688 
C 1747 2688 1792 2682 1837 2662 
C 1837 2662 1696 2617 1696 2452 
C 1696 2298 1818 2234 1914 2234 
C 1990 2234 2131 2279 2131 2458 
C 2131 2663 1926 2790 1709 2790 
C 1222 2790 1011 2317 947 2093 
L 941 2093 
L 941 2790 
L 198 2720 
L 198 2554 
C 576 2554 634 2515 634 2208 
L 634 428 
C 634 184 608 153 198 153 
L 198 -13 
C 352 0 646 0 813 0 
C 998 0 1325 0 1498 -13 
L 1498 153 
C 1037 153 960 153 960 440 
L 960 1497 
z
" transform="scale(0.015625)"/>
       <path id="CMR17-65" d="M 2438 1472 
C 2464 1498 2464 1511 2464 1576 
C 2464 2238 2118 2816 1389 2816 
C 710 2816 173 2169 173 1383 
C 173 551 781 -64 1459 -64 
C 2176 -64 2458 607 2458 740 
C 2458 784 2419 784 2406 784 
C 2362 784 2355 771 2330 696 
C 2189 265 1837 51 1504 51 
C 1229 51 954 203 781 480 
C 582 803 582 1176 582 1472 
L 2438 1472 
z
M 589 1568 
C 634 2505 1126 2714 1382 2714 
C 1818 2714 2112 2297 2118 1568 
L 589 1568 
z
" transform="scale(0.015625)"/>
       <path id="CMR17-61" d="M 2304 1653 
C 2304 2072 2304 2294 2035 2543 
C 1798 2752 1523 2816 1306 2816 
C 800 2816 435 2407 435 1971 
C 435 1728 627 1728 666 1728 
C 749 1728 896 1778 896 1954 
C 896 2112 774 2181 666 2181 
C 640 2181 608 2174 589 2168 
C 723 2592 1069 2714 1293 2714 
C 1613 2714 1965 2429 1965 1885 
L 1965 1600 
C 1587 1600 1133 1549 774 1357 
C 371 1133 256 813 256 570 
C 256 77 832 -64 1171 -64 
C 1523 -64 1850 139 1990 511 
C 2003 233 2182 -18 2464 -18 
C 2598 -18 2938 70 2938 567 
L 2938 920 
L 2822 920 
L 2822 562 
C 2822 178 2650 128 2566 128 
C 2304 128 2304 458 2304 738 
L 2304 1653 
z
M 1965 870 
C 1965 317 1568 38 1216 38 
C 896 38 646 275 646 570 
C 646 761 730 1100 1101 1305 
C 1408 1478 1760 1504 1965 1504 
L 1965 870 
z
" transform="scale(0.015625)"/>
      </defs>
      <use xlink:href="#CMR17-41" transform="scale(0.996264)"/>
      <use xlink:href="#CMR17-72" transform="translate(69.07243 0) scale(0.996264)"/>
      <use xlink:href="#CMR17-65" transform="translate(104.353198 0) scale(0.996264)"/>
      <use xlink:href="#CMR17-61" transform="translate(144.838858 0) scale(0.996264)"/>
     </g>
    </g>
   </g>
   <g id="matplotlib.axis_2">
    <g id="ytick_1">
     <g id="line2d_29">
      <defs>
       <path id="m1be2e615ea" d="M 0 0 
L 3 0 
" style="stroke: #000000; stroke-width: 0.5"/>
      </defs>
      <g>
       <use xlink:href="#m1be2e615ea" x="72.092987" y="295.96136" style="stroke: #000000; stroke-width: 0.5"/>
      </g>
     </g>
     <g id="line2d_30">
      <defs>
       <path id="md365679d1f" d="M 0 0 
L -3 0 
" style="stroke: #000000; stroke-width: 0.5"/>
      </defs>
      <g>
       <use xlink:href="#md365679d1f" x="377.668276" y="295.96136" style="stroke: #000000; stroke-width: 0.5"/>
      </g>
     </g>
     <g id="text_6">
      <!-- $\mathdefault{0}$ -->
      <g transform="translate(60.789 301.496154) scale(0.16 -0.16)">
       <use xlink:href="#CMR17-30" transform="scale(0.996264)"/>
      </g>
     </g>
    </g>
    <g id="ytick_2">
     <g id="line2d_31">
      <g>
       <use xlink:href="#m1be2e615ea" x="72.092987" y="256.717258" style="stroke: #000000; stroke-width: 0.5"/>
      </g>
     </g>
     <g id="line2d_32">
      <g>
       <use xlink:href="#md365679d1f" x="377.668276" y="256.717258" style="stroke: #000000; stroke-width: 0.5"/>
      </g>
     </g>
     <g id="text_7">
      <!-- $\mathdefault{20000}$ -->
      <g transform="translate(29.573051 262.252052) scale(0.16 -0.16)">
       <use xlink:href="#CMR17-32" transform="scale(0.996264)"/>
       <use xlink:href="#CMR17-30" transform="translate(45.690477 0) scale(0.996264)"/>
       <use xlink:href="#CMR17-30" transform="translate(91.380954 0) scale(0.996264)"/>
       <use xlink:href="#CMR17-30" transform="translate(137.071431 0) scale(0.996264)"/>
       <use xlink:href="#CMR17-30" transform="translate(182.761908 0) scale(0.996264)"/>
      </g>
     </g>
    </g>
    <g id="ytick_3">
     <g id="line2d_33">
      <g>
       <use xlink:href="#m1be2e615ea" x="72.092987" y="217.473156" style="stroke: #000000; stroke-width: 0.5"/>
      </g>
     </g>
     <g id="line2d_34">
      <g>
       <use xlink:href="#md365679d1f" x="377.668276" y="217.473156" style="stroke: #000000; stroke-width: 0.5"/>
      </g>
     </g>
     <g id="text_8">
      <!-- $\mathdefault{40000}$ -->
      <g transform="translate(29.573051 223.00795) scale(0.16 -0.16)">
       <use xlink:href="#CMR17-34" transform="scale(0.996264)"/>
       <use xlink:href="#CMR17-30" transform="translate(45.690477 0) scale(0.996264)"/>
       <use xlink:href="#CMR17-30" transform="translate(91.380954 0) scale(0.996264)"/>
       <use xlink:href="#CMR17-30" transform="translate(137.071431 0) scale(0.996264)"/>
       <use xlink:href="#CMR17-30" transform="translate(182.761908 0) scale(0.996264)"/>
      </g>
     </g>
    </g>
    <g id="ytick_4">
     <g id="line2d_35">
      <g>
       <use xlink:href="#m1be2e615ea" x="72.092987" y="178.229054" style="stroke: #000000; stroke-width: 0.5"/>
      </g>
     </g>
     <g id="line2d_36">
      <g>
       <use xlink:href="#md365679d1f" x="377.668276" y="178.229054" style="stroke: #000000; stroke-width: 0.5"/>
      </g>
     </g>
     <g id="text_9">
      <!-- $\mathdefault{60000}$ -->
      <g transform="translate(29.573051 183.763848) scale(0.16 -0.16)">
       <use xlink:href="#CMR17-36" transform="scale(0.996264)"/>
       <use xlink:href="#CMR17-30" transform="translate(45.690477 0) scale(0.996264)"/>
       <use xlink:href="#CMR17-30" transform="translate(91.380954 0) scale(0.996264)"/>
       <use xlink:href="#CMR17-30" transform="translate(137.071431 0) scale(0.996264)"/>
       <use xlink:href="#CMR17-30" transform="translate(182.761908 0) scale(0.996264)"/>
      </g>
     </g>
    </g>
    <g id="ytick_5">
     <g id="line2d_37">
      <g>
       <use xlink:href="#m1be2e615ea" x="72.092987" y="138.984952" style="stroke: #000000; stroke-width: 0.5"/>
      </g>
     </g>
     <g id="line2d_38">
      <g>
       <use xlink:href="#md365679d1f" x="377.668276" y="138.984952" style="stroke: #000000; stroke-width: 0.5"/>
      </g>
     </g>
     <g id="text_10">
      <!-- $\mathdefault{80000}$ -->
      <g transform="translate(29.573051 144.519746) scale(0.16 -0.16)">
       <use xlink:href="#CMR17-38" transform="scale(0.996264)"/>
       <use xlink:href="#CMR17-30" transform="translate(45.690477 0) scale(0.996264)"/>
       <use xlink:href="#CMR17-30" transform="translate(91.380954 0) scale(0.996264)"/>
       <use xlink:href="#CMR17-30" transform="translate(137.071431 0) scale(0.996264)"/>
       <use xlink:href="#CMR17-30" transform="translate(182.761908 0) scale(0.996264)"/>
      </g>
     </g>
    </g>
    <g id="ytick_6">
     <g id="line2d_39">
      <g>
       <use xlink:href="#m1be2e615ea" x="72.092987" y="99.74085" style="stroke: #000000; stroke-width: 0.5"/>
      </g>
     </g>
     <g id="line2d_40">
      <g>
       <use xlink:href="#md365679d1f" x="377.668276" y="99.74085" style="stroke: #000000; stroke-width: 0.5"/>
      </g>
     </g>
     <g id="text_11">
      <!-- $\mathdefault{100000}$ -->
      <g transform="translate(21.769064 105.275644) scale(0.16 -0.16)">
       <defs>
        <path id="CMR17-31" d="M 1702 4058 
C 1702 4192 1696 4192 1606 4192 
C 1357 3916 979 3827 621 3827 
C 602 3827 570 3827 563 3808 
C 557 3795 557 3782 557 3648 
C 755 3648 1088 3686 1344 3839 
L 1344 461 
C 1344 236 1331 160 781 160 
L 589 160 
L 589 0 
C 896 0 1216 0 1523 0 
C 1830 0 2150 0 2458 0 
L 2458 160 
L 2266 160 
C 1715 160 1702 230 1702 458 
L 1702 4058 
z
" transform="scale(0.015625)"/>
       </defs>
       <use xlink:href="#CMR17-31" transform="scale(0.996264)"/>
       <use xlink:href="#CMR17-30" transform="translate(45.690477 0) scale(0.996264)"/>
       <use xlink:href="#CMR17-30" transform="translate(91.380954 0) scale(0.996264)"/>
       <use xlink:href="#CMR17-30" transform="translate(137.071431 0) scale(0.996264)"/>
       <use xlink:href="#CMR17-30" transform="translate(182.761908 0) scale(0.996264)"/>
       <use xlink:href="#CMR17-30" transform="translate(228.452386 0) scale(0.996264)"/>
      </g>
     </g>
    </g>
    <g id="ytick_7">
     <g id="line2d_41">
      <g>
       <use xlink:href="#m1be2e615ea" x="72.092987" y="60.496748" style="stroke: #000000; stroke-width: 0.5"/>
      </g>
     </g>
     <g id="line2d_42">
      <g>
       <use xlink:href="#md365679d1f" x="377.668276" y="60.496748" style="stroke: #000000; stroke-width: 0.5"/>
      </g>
     </g>
     <g id="text_12">
      <!-- $\mathdefault{120000}$ -->
      <g transform="translate(21.769064 66.031542) scale(0.16 -0.16)">
       <use xlink:href="#CMR17-31" transform="scale(0.996264)"/>
       <use xlink:href="#CMR17-32" transform="translate(45.690477 0) scale(0.996264)"/>
       <use xlink:href="#CMR17-30" transform="translate(91.380954 0) scale(0.996264)"/>
       <use xlink:href="#CMR17-30" transform="translate(137.071431 0) scale(0.996264)"/>
       <use xlink:href="#CMR17-30" transform="translate(182.761908 0) scale(0.996264)"/>
       <use xlink:href="#CMR17-30" transform="translate(228.452386 0) scale(0.996264)"/>
      </g>
     </g>
    </g>
    <g id="ytick_8">
     <g id="line2d_43">
      <g>
       <use xlink:href="#m1be2e615ea" x="72.092987" y="21.252646" style="stroke: #000000; stroke-width: 0.5"/>
      </g>
     </g>
     <g id="line2d_44">
      <g>
       <use xlink:href="#md365679d1f" x="377.668276" y="21.252646" style="stroke: #000000; stroke-width: 0.5"/>
      </g>
     </g>
     <g id="text_13">
      <!-- $\mathdefault{140000}$ -->
      <g transform="translate(21.769064 26.78744) scale(0.16 -0.16)">
       <use xlink:href="#CMR17-31" transform="scale(0.996264)"/>
       <use xlink:href="#CMR17-34" transform="translate(45.690477 0) scale(0.996264)"/>
       <use xlink:href="#CMR17-30" transform="translate(91.380954 0) scale(0.996264)"/>
       <use xlink:href="#CMR17-30" transform="translate(137.071431 0) scale(0.996264)"/>
       <use xlink:href="#CMR17-30" transform="translate(182.761908 0) scale(0.996264)"/>
       <use xlink:href="#CMR17-30" transform="translate(228.452386 0) scale(0.996264)"/>
      </g>
     </g>
    </g>
    <g id="ytick_9">
     <g id="line2d_45">
      <defs>
       <path id="m6d3a247259" d="M 0 0 
L 1.5 0 
" style="stroke: #000000; stroke-width: 0.5"/>
      </defs>
      <g>
       <use xlink:href="#m6d3a247259" x="72.092987" y="305.772385" style="stroke: #000000; stroke-width: 0.5"/>
      </g>
     </g>
     <g id="line2d_46">
      <defs>
       <path id="m5aa447bee0" d="M 0 0 
L -1.5 0 
" style="stroke: #000000; stroke-width: 0.5"/>
      </defs>
      <g>
       <use xlink:href="#m5aa447bee0" x="377.668276" y="305.772385" style="stroke: #000000; stroke-width: 0.5"/>
      </g>
     </g>
    </g>
    <g id="ytick_10">
     <g id="line2d_47">
      <g>
       <use xlink:href="#m6d3a247259" x="72.092987" y="286.150334" style="stroke: #000000; stroke-width: 0.5"/>
      </g>
     </g>
     <g id="line2d_48">
      <g>
       <use xlink:href="#m5aa447bee0" x="377.668276" y="286.150334" style="stroke: #000000; stroke-width: 0.5"/>
      </g>
     </g>
    </g>
    <g id="ytick_11">
     <g id="line2d_49">
      <g>
       <use xlink:href="#m6d3a247259" x="72.092987" y="276.339309" style="stroke: #000000; stroke-width: 0.5"/>
      </g>
     </g>
     <g id="line2d_50">
      <g>
       <use xlink:href="#m5aa447bee0" x="377.668276" y="276.339309" style="stroke: #000000; stroke-width: 0.5"/>
      </g>
     </g>
    </g>
    <g id="ytick_12">
     <g id="line2d_51">
      <g>
       <use xlink:href="#m6d3a247259" x="72.092987" y="266.528283" style="stroke: #000000; stroke-width: 0.5"/>
      </g>
     </g>
     <g id="line2d_52">
      <g>
       <use xlink:href="#m5aa447bee0" x="377.668276" y="266.528283" style="stroke: #000000; stroke-width: 0.5"/>
      </g>
     </g>
    </g>
    <g id="ytick_13">
     <g id="line2d_53">
      <g>
       <use xlink:href="#m6d3a247259" x="72.092987" y="246.906232" style="stroke: #000000; stroke-width: 0.5"/>
      </g>
     </g>
     <g id="line2d_54">
      <g>
       <use xlink:href="#m5aa447bee0" x="377.668276" y="246.906232" style="stroke: #000000; stroke-width: 0.5"/>
      </g>
     </g>
    </g>
    <g id="ytick_14">
     <g id="line2d_55">
      <g>
       <use xlink:href="#m6d3a247259" x="72.092987" y="237.095207" style="stroke: #000000; stroke-width: 0.5"/>
      </g>
     </g>
     <g id="line2d_56">
      <g>
       <use xlink:href="#m5aa447bee0" x="377.668276" y="237.095207" style="stroke: #000000; stroke-width: 0.5"/>
      </g>
     </g>
    </g>
    <g id="ytick_15">
     <g id="line2d_57">
      <g>
       <use xlink:href="#m6d3a247259" x="72.092987" y="227.284181" style="stroke: #000000; stroke-width: 0.5"/>
      </g>
     </g>
     <g id="line2d_58">
      <g>
       <use xlink:href="#m5aa447bee0" x="377.668276" y="227.284181" style="stroke: #000000; stroke-width: 0.5"/>
      </g>
     </g>
    </g>
    <g id="ytick_16">
     <g id="line2d_59">
      <g>
       <use xlink:href="#m6d3a247259" x="72.092987" y="207.66213" style="stroke: #000000; stroke-width: 0.5"/>
      </g>
     </g>
     <g id="line2d_60">
      <g>
       <use xlink:href="#m5aa447bee0" x="377.668276" y="207.66213" style="stroke: #000000; stroke-width: 0.5"/>
      </g>
     </g>
    </g>
    <g id="ytick_17">
     <g id="line2d_61">
      <g>
       <use xlink:href="#m6d3a247259" x="72.092987" y="197.851105" style="stroke: #000000; stroke-width: 0.5"/>
      </g>
     </g>
     <g id="line2d_62">
      <g>
       <use xlink:href="#m5aa447bee0" x="377.668276" y="197.851105" style="stroke: #000000; stroke-width: 0.5"/>
      </g>
     </g>
    </g>
    <g id="ytick_18">
     <g id="line2d_63">
      <g>
       <use xlink:href="#m6d3a247259" x="72.092987" y="188.040079" style="stroke: #000000; stroke-width: 0.5"/>
      </g>
     </g>
     <g id="line2d_64">
      <g>
       <use xlink:href="#m5aa447bee0" x="377.668276" y="188.040079" style="stroke: #000000; stroke-width: 0.5"/>
      </g>
     </g>
    </g>
    <g id="ytick_19">
     <g id="line2d_65">
      <g>
       <use xlink:href="#m6d3a247259" x="72.092987" y="168.418028" style="stroke: #000000; stroke-width: 0.5"/>
      </g>
     </g>
     <g id="line2d_66">
      <g>
       <use xlink:href="#m5aa447bee0" x="377.668276" y="168.418028" style="stroke: #000000; stroke-width: 0.5"/>
      </g>
     </g>
    </g>
    <g id="ytick_20">
     <g id="line2d_67">
      <g>
       <use xlink:href="#m6d3a247259" x="72.092987" y="158.607003" style="stroke: #000000; stroke-width: 0.5"/>
      </g>
     </g>
     <g id="line2d_68">
      <g>
       <use xlink:href="#m5aa447bee0" x="377.668276" y="158.607003" style="stroke: #000000; stroke-width: 0.5"/>
      </g>
     </g>
    </g>
    <g id="ytick_21">
     <g id="line2d_69">
      <g>
       <use xlink:href="#m6d3a247259" x="72.092987" y="148.795977" style="stroke: #000000; stroke-width: 0.5"/>
      </g>
     </g>
     <g id="line2d_70">
      <g>
       <use xlink:href="#m5aa447bee0" x="377.668276" y="148.795977" style="stroke: #000000; stroke-width: 0.5"/>
      </g>
     </g>
    </g>
    <g id="ytick_22">
     <g id="line2d_71">
      <g>
       <use xlink:href="#m6d3a247259" x="72.092987" y="129.173927" style="stroke: #000000; stroke-width: 0.5"/>
      </g>
     </g>
     <g id="line2d_72">
      <g>
       <use xlink:href="#m5aa447bee0" x="377.668276" y="129.173927" style="stroke: #000000; stroke-width: 0.5"/>
      </g>
     </g>
    </g>
    <g id="ytick_23">
     <g id="line2d_73">
      <g>
       <use xlink:href="#m6d3a247259" x="72.092987" y="119.362901" style="stroke: #000000; stroke-width: 0.5"/>
      </g>
     </g>
     <g id="line2d_74">
      <g>
       <use xlink:href="#m5aa447bee0" x="377.668276" y="119.362901" style="stroke: #000000; stroke-width: 0.5"/>
      </g>
     </g>
    </g>
    <g id="ytick_24">
     <g id="line2d_75">
      <g>
       <use xlink:href="#m6d3a247259" x="72.092987" y="109.551876" style="stroke: #000000; stroke-width: 0.5"/>
      </g>
     </g>
     <g id="line2d_76">
      <g>
       <use xlink:href="#m5aa447bee0" x="377.668276" y="109.551876" style="stroke: #000000; stroke-width: 0.5"/>
      </g>
     </g>
    </g>
    <g id="ytick_25">
     <g id="line2d_77">
      <g>
       <use xlink:href="#m6d3a247259" x="72.092987" y="89.929825" style="stroke: #000000; stroke-width: 0.5"/>
      </g>
     </g>
     <g id="line2d_78">
      <g>
       <use xlink:href="#m5aa447bee0" x="377.668276" y="89.929825" style="stroke: #000000; stroke-width: 0.5"/>
      </g>
     </g>
    </g>
    <g id="ytick_26">
     <g id="line2d_79">
      <g>
       <use xlink:href="#m6d3a247259" x="72.092987" y="80.118799" style="stroke: #000000; stroke-width: 0.5"/>
      </g>
     </g>
     <g id="line2d_80">
      <g>
       <use xlink:href="#m5aa447bee0" x="377.668276" y="80.118799" style="stroke: #000000; stroke-width: 0.5"/>
      </g>
     </g>
    </g>
    <g id="ytick_27">
     <g id="line2d_81">
      <g>
       <use xlink:href="#m6d3a247259" x="72.092987" y="70.307774" style="stroke: #000000; stroke-width: 0.5"/>
      </g>
     </g>
     <g id="line2d_82">
      <g>
       <use xlink:href="#m5aa447bee0" x="377.668276" y="70.307774" style="stroke: #000000; stroke-width: 0.5"/>
      </g>
     </g>
    </g>
    <g id="ytick_28">
     <g id="line2d_83">
      <g>
       <use xlink:href="#m6d3a247259" x="72.092987" y="50.685723" style="stroke: #000000; stroke-width: 0.5"/>
      </g>
     </g>
     <g id="line2d_84">
      <g>
       <use xlink:href="#m5aa447bee0" x="377.668276" y="50.685723" style="stroke: #000000; stroke-width: 0.5"/>
      </g>
     </g>
    </g>
    <g id="ytick_29">
     <g id="line2d_85">
      <g>
       <use xlink:href="#m6d3a247259" x="72.092987" y="40.874697" style="stroke: #000000; stroke-width: 0.5"/>
      </g>
     </g>
     <g id="line2d_86">
      <g>
       <use xlink:href="#m5aa447bee0" x="377.668276" y="40.874697" style="stroke: #000000; stroke-width: 0.5"/>
      </g>
     </g>
    </g>
    <g id="ytick_30">
     <g id="line2d_87">
      <g>
       <use xlink:href="#m6d3a247259" x="72.092987" y="31.063672" style="stroke: #000000; stroke-width: 0.5"/>
      </g>
     </g>
     <g id="line2d_88">
      <g>
       <use xlink:href="#m5aa447bee0" x="377.668276" y="31.063672" style="stroke: #000000; stroke-width: 0.5"/>
      </g>
     </g>
    </g>
    <g id="text_14">
     <!-- Population -->
     <g transform="translate(14.669588 200.591681) rotate(-90) scale(0.16 -0.16)">
      <defs>
       <path id="CMR17-50" d="M 1267 2042 
L 2291 2042 
C 3117 2042 3718 2578 3718 3184 
C 3718 3791 3130 4352 2291 4352 
L 333 4352 
L 333 4186 
C 774 4186 845 4186 845 3899 
L 845 446 
C 845 160 774 160 333 160 
L 333 0 
C 518 0 858 0 1056 0 
C 1254 0 1594 0 1779 0 
L 1779 160 
C 1338 160 1267 160 1267 446 
L 1267 2042 
z
M 1254 2176 
L 1254 3938 
C 1254 4155 1267 4186 1523 4186 
L 2170 4186 
C 2995 4186 3232 3714 3232 3184 
C 3232 2604 2950 2176 2170 2176 
L 1254 2176 
z
" transform="scale(0.015625)"/>
       <path id="CMR17-6f" d="M 2758 1356 
C 2758 2176 2163 2816 1466 2816 
C 768 2816 173 2176 173 1356 
C 173 551 768 -64 1466 -64 
C 2163 -64 2758 551 2758 1356 
z
M 1466 51 
C 1165 51 909 230 762 480 
C 602 767 582 1126 582 1408 
C 582 1677 595 2010 762 2298 
C 890 2509 1139 2714 1466 2714 
C 1754 2714 1997 2554 2150 2330 
C 2349 2029 2349 1607 2349 1408 
C 2349 1158 2336 775 2163 467 
C 1984 173 1709 51 1466 51 
z
" transform="scale(0.015625)"/>
       <path id="CMR17-70" d="M 1408 -1063 
C 998 -1063 973 -1037 973 -789 
L 973 402 
C 1158 134 1427 -38 1766 -38 
C 2406 -38 3053 523 3053 1388 
C 3053 2191 2496 2802 1837 2802 
C 1453 2802 1139 2592 960 2338 
L 960 2802 
L 198 2732 
L 198 2567 
C 576 2567 634 2528 634 2223 
L 634 -789 
C 634 -1031 608 -1063 198 -1063 
L 198 -1228 
C 352 -1216 634 -1216 800 -1216 
C 966 -1216 1254 -1216 1408 -1228 
L 1408 -1063 
z
M 973 2012 
C 973 2102 973 2235 1222 2471 
C 1254 2497 1472 2688 1792 2688 
C 2259 2688 2643 2108 2643 1382 
C 2643 656 2234 64 1728 64 
C 1498 64 1248 172 1056 472 
C 973 612 973 650 973 752 
L 973 2012 
z
" transform="scale(0.015625)"/>
       <path id="CMR17-75" d="M 1882 2693 
L 1882 2528 
C 2259 2528 2317 2489 2317 2186 
L 2317 1032 
C 2317 500 2029 38 1555 38 
C 1030 38 986 348 986 678 
L 986 2763 
L 211 2693 
L 211 2528 
C 467 2528 640 2528 646 2274 
L 646 1058 
C 646 633 646 361 813 183 
C 896 101 1056 -64 1517 -64 
C 2061 -64 2272 377 2323 506 
L 2330 506 
L 2330 -63 
L 3091 -63 
L 3091 128 
C 2714 128 2656 166 2656 473 
L 2656 2763 
L 1882 2693 
z
" transform="scale(0.015625)"/>
       <path id="CMR17-6c" d="M 979 4396 
L 218 4326 
L 218 4160 
C 595 4160 653 4122 653 3817 
L 653 426 
C 653 184 627 153 218 153 
L 218 -13 
C 371 0 653 0 813 0 
C 979 0 1261 0 1414 -13 
L 1414 153 
C 1005 153 979 178 979 426 
L 979 4396 
z
" transform="scale(0.015625)"/>
       <path id="CMR17-74" d="M 966 2560 
L 1862 2560 
L 1862 2725 
L 966 2725 
L 966 3904 
L 851 3904 
C 838 3245 614 2668 70 2668 
L 70 2560 
L 627 2560 
L 627 771 
C 627 650 627 -64 1370 -64 
C 1747 -64 1965 306 1965 777 
L 1965 1140 
L 1850 1140 
L 1850 783 
C 1850 344 1677 51 1408 51 
C 1222 51 966 178 966 758 
L 966 2560 
z
" transform="scale(0.015625)"/>
       <path id="CMR17-69" d="M 992 3909 
C 992 4049 877 4170 730 4170 
C 589 4170 467 4056 467 3909 
C 467 3769 582 3648 730 3648 
C 870 3648 992 3763 992 3909 
z
M 243 2706 
L 243 2541 
C 602 2541 653 2502 653 2197 
L 653 427 
C 653 184 627 153 218 153 
L 218 -13 
C 371 0 646 0 806 0 
C 960 0 1222 0 1370 -13 
L 1370 153 
C 992 153 979 191 979 420 
L 979 2776 
L 243 2706 
z
" transform="scale(0.015625)"/>
       <path id="CMR17-6e" d="M 2656 1933 
C 2656 2259 2592 2790 1837 2790 
C 1331 2790 1069 2400 973 2144 
L 966 2144 
L 966 2790 
L 211 2720 
L 211 2554 
C 589 2554 646 2515 646 2208 
L 646 428 
C 646 184 621 153 211 153 
L 211 -13 
C 365 0 646 0 813 0 
C 979 0 1267 0 1421 -13 
L 1421 153 
C 1011 153 986 178 986 428 
L 986 1658 
C 986 2247 1344 2688 1792 2688 
C 2266 2688 2317 2266 2317 1958 
L 2317 428 
C 2317 184 2291 153 1882 153 
L 1882 -13 
C 2035 0 2317 0 2483 0 
C 2650 0 2938 0 3091 -13 
L 3091 153 
C 2682 153 2656 178 2656 428 
L 2656 1933 
z
" transform="scale(0.015625)"/>
      </defs>
      <use xlink:href="#CMR17-50" transform="scale(0.996264)"/>
      <use xlink:href="#CMR17-6f" transform="translate(59.983847 0) scale(0.996264)"/>
      <use xlink:href="#CMR17-70" transform="translate(105.674324 0) scale(0.996264)"/>
      <use xlink:href="#CMR17-75" transform="translate(156.569693 0) scale(0.996264)"/>
      <use xlink:href="#CMR17-6c" transform="translate(207.465063 0) scale(0.996264)"/>
      <use xlink:href="#CMR17-61" transform="translate(232.336122 0) scale(0.996264)"/>
      <use xlink:href="#CMR17-74" transform="translate(278.026599 0) scale(0.996264)"/>
      <use xlink:href="#CMR17-69" transform="translate(313.307367 0) scale(0.996264)"/>
      <use xlink:href="#CMR17-6f" transform="translate(338.178425 0) scale(0.996264)"/>
      <use xlink:href="#CMR17-6e" transform="translate(383.868902 0) scale(0.996264)"/>
     </g>
    </g>
   </g>
   <g id="line2d_89">
    <path d="M 112.439507 236.788123 
L 114.978285 236.979385 
L 117.517063 237.170647 
L 120.05584 237.361909 
L 122.594618 237.553171 
L 125.133395 237.744432 
L 127.672173 237.935694 
L 130.210951 238.126956 
L 132.749728 238.318218 
L 135.288506 238.50948 
L 137.827283 238.700741 
L 140.366061 238.892003 
L 142.904839 239.083265 
L 145.443616 239.274527 
L 147.982394 239.465789 
L 150.521171 239.657051 
L 153.059949 239.848312 
L 155.598727 240.039574 
L 158.137504 240.230836 
L 160.676282 240.422098 
L 163.215059 240.61336 
L 165.753837 240.804621 
L 168.292615 240.995883 
L 170.831392 241.187145 
L 173.37017 241.378407 
L 175.908947 241.569669 
L 178.447725 241.760931 
L 180.986503 241.952192 
L 183.52528 242.143454 
L 186.064058 242.334716 
L 188.602835 242.525978 
L 191.141613 242.71724 
L 193.680391 242.908501 
L 196.219168 243.099763 
L 198.757946 243.291025 
L 201.296723 243.482287 
L 203.835501 243.673549 
L 206.374279 243.864811 
L 208.913056 244.056072 
L 211.451834 244.247334 
L 213.990611 244.438596 
L 216.529389 244.629858 
L 219.068167 244.82112 
L 221.606944 245.012381 
L 224.145722 245.203643 
L 226.684499 245.394905 
L 229.223277 245.586167 
L 231.762055 245.777429 
L 234.300832 245.968691 
L 236.83961 246.159952 
L 239.378387 246.351214 
L 241.917165 246.542476 
L 244.455943 246.733738 
L 246.99472 246.925 
L 249.533498 247.116261 
L 252.072275 247.307523 
L 254.611053 247.498785 
L 257.14983 247.690047 
L 259.688608 247.881309 
L 262.227386 248.072571 
L 264.766163 248.263832 
L 267.304941 248.455094 
L 269.843718 248.646356 
L 272.382496 248.837618 
L 274.921274 249.02888 
L 277.460051 249.220141 
L 279.998829 249.411403 
L 282.537606 249.602665 
L 285.076384 249.793927 
L 287.615162 249.985189 
L 290.153939 250.176451 
L 292.692717 250.367712 
L 295.231494 250.558974 
L 297.770272 250.750236 
L 300.30905 250.941498 
L 302.847827 251.13276 
L 305.386605 251.324021 
L 307.925382 251.515283 
L 310.46416 251.706545 
L 313.002938 251.897807 
L 315.541715 252.089069 
L 318.080493 252.280331 
L 320.61927 252.471592 
L 323.158048 252.662854 
L 325.696826 252.854116 
L 328.235603 253.045378 
L 330.774381 253.23664 
L 333.313158 253.427901 
L 335.851936 253.619163 
L 338.390714 253.810425 
L 340.929491 254.001687 
L 343.468269 254.192949 
L 346.007046 254.384211 
L 348.545824 254.575472 
L 351.084602 254.766734 
L 353.623379 254.957996 
L 356.162157 255.149258 
L 358.700934 255.34052 
L 361.239712 255.531781 
L 363.77849 255.723043 
" clip-path="url(#p25d3cc834e)" style="fill: none; stroke: #0c5da5; stroke-width: 1.5; stroke-linecap: square"/>
   </g>
   <g id="patch_3">
    <path d="M 72.092987 306.161871 
L 72.092987 20.669588 
" style="fill: none; stroke: #000000; stroke-width: 0.5; stroke-linejoin: miter; stroke-linecap: square"/>
   </g>
   <g id="patch_4">
    <path d="M 72.092987 306.161871 
L 377.668276 306.161871 
" style="fill: none; stroke: #000000; stroke-width: 0.5; stroke-linejoin: miter; stroke-linecap: square"/>
   </g>
   <g id="text_15">
    <!-- category = AHR -->
    <g transform="translate(167.333121 14.669588) scale(0.16 -0.16)">
     <defs>
      <path id="CMR17-63" d="M 2234 2240 
C 2112 2240 1933 2240 1933 2017 
C 1933 1838 2080 1787 2163 1787 
C 2208 1787 2394 1807 2394 2024 
C 2394 2467 1958 2803 1466 2803 
C 787 2803 211 2178 211 1363 
C 211 516 813 -64 1466 -64 
C 2259 -64 2458 677 2458 748 
C 2458 774 2451 793 2406 793 
C 2362 793 2355 787 2330 703 
C 2163 180 1798 51 1523 51 
C 1114 51 621 427 621 1369 
C 621 2338 1094 2688 1472 2688 
C 1722 2688 2093 2573 2234 2240 
z
" transform="scale(0.015625)"/>
      <path id="CMR17-67" d="M 710 1164 
C 832 1068 1043 960 1299 960 
C 1805 960 2240 1357 2240 1888 
C 2240 2054 2189 2310 1997 2509 
C 2176 2692 2438 2752 2586 2752 
C 2611 2752 2650 2752 2682 2734 
C 2656 2728 2598 2703 2598 2605 
C 2598 2527 2656 2471 2739 2471 
C 2835 2471 2886 2533 2886 2614 
C 2886 2731 2790 2854 2586 2854 
C 2330 2854 2106 2738 1926 2580 
C 1734 2753 1504 2816 1299 2816 
C 794 2816 358 2419 358 1888 
C 358 1522 570 1292 634 1228 
C 442 1004 442 743 442 711 
C 442 545 506 302 723 168 
C 390 85 128 -169 128 -486 
C 128 -943 736 -1280 1466 -1280 
C 2170 -1280 2803 -956 2803 -479 
C 2803 384 1856 384 1363 384 
C 1216 384 954 384 922 391 
C 723 423 589 602 589 826 
C 589 883 589 1024 710 1164 
z
M 1299 1068 
C 736 1068 736 1760 736 1889 
C 736 2016 736 2708 1299 2708 
C 1862 2708 1862 2016 1862 1889 
C 1862 1760 1862 1068 1299 1068 
z
M 1466 -1171 
C 826 -1171 384 -835 384 -486 
C 384 -289 493 -105 634 -4 
C 794 104 858 104 1293 104 
C 1818 104 2547 104 2547 -486 
C 2547 -835 2106 -1171 1466 -1171 
z
" transform="scale(0.015625)"/>
      <path id="CMR17-79" d="M 2496 2197 
C 2656 2586 2944 2586 3034 2586 
L 3034 2752 
C 2912 2752 2752 2752 2630 2752 
C 2496 2752 2285 2752 2157 2758 
L 2157 2592 
C 2400 2573 2406 2394 2406 2343 
C 2406 2280 2394 2248 2362 2171 
L 1664 449 
L 902 2306 
C 870 2382 870 2426 870 2433 
C 870 2573 1018 2586 1171 2586 
L 1171 2758 
C 1018 2752 742 2752 582 2752 
C 410 2752 205 2752 64 2758 
L 64 2586 
C 410 2586 448 2554 531 2350 
L 1485 15 
C 1197 -738 1030 -1178 627 -1178 
C 557 -1178 397 -1159 282 -1044 
C 429 -1031 493 -942 493 -833 
C 493 -725 416 -629 288 -629 
C 147 -629 77 -725 77 -840 
C 77 -1095 339 -1280 627 -1280 
C 998 -1280 1229 -922 1357 -604 
L 2496 2197 
z
" transform="scale(0.015625)"/>
      <path id="CMR17-3d" d="M 4115 2017 
C 4211 2017 4307 2017 4307 2125 
C 4307 2240 4198 2240 4090 2240 
L 512 2240 
C 403 2240 294 2240 294 2125 
C 294 2017 390 2017 486 2017 
L 4115 2017 
z
M 4090 896 
C 4198 896 4307 896 4307 1011 
C 4307 1119 4211 1119 4115 1119 
L 486 1119 
C 390 1119 294 1119 294 1011 
C 294 896 403 896 512 896 
L 4090 896 
z
" transform="scale(0.015625)"/>
      <path id="CMR17-48" d="M 3590 3905 
C 3590 4192 3661 4192 4102 4192 
L 4102 4352 
C 3917 4352 3578 4352 3379 4352 
C 3181 4352 2842 4352 2656 4352 
L 2656 4192 
C 3098 4192 3168 4192 3168 3904 
L 3168 2341 
L 1261 2341 
L 1261 3904 
C 1261 4192 1331 4192 1773 4192 
L 1773 4352 
C 1587 4352 1248 4352 1050 4352 
C 851 4352 512 4352 326 4352 
L 326 4192 
C 768 4192 838 4192 838 3905 
L 838 447 
C 838 160 768 160 326 160 
L 326 0 
C 512 0 851 0 1050 0 
C 1248 0 1587 0 1773 0 
L 1773 160 
C 1331 160 1261 160 1261 446 
L 1261 2176 
L 3168 2176 
L 3168 446 
C 3168 160 3098 160 2656 160 
L 2656 0 
C 2842 0 3181 0 3379 0 
C 3578 0 3917 0 4102 0 
L 4102 160 
C 3661 160 3590 160 3590 447 
L 3590 3905 
z
" transform="scale(0.015625)"/>
      <path id="CMR17-52" d="M 2509 2146 
C 3117 2268 3629 2676 3629 3186 
C 3629 3785 2950 4326 2054 4326 
L 333 4326 
L 333 4160 
C 774 4160 845 4160 845 3873 
L 845 415 
C 845 128 774 128 333 128 
L 333 -26 
C 518 -26 851 -26 1050 -26 
C 1248 -26 1581 -26 1766 -26 
L 1766 128 
C 1325 128 1254 128 1254 417 
L 1254 2112 
L 2003 2112 
C 2368 2112 2573 1964 2662 1881 
C 2918 1632 2918 1459 2918 1024 
C 2918 595 2918 377 3110 160 
C 3354 -102 3680 -128 3821 -128 
C 4294 -128 4365 396 4365 503 
C 4365 540 4365 585 4307 585 
C 4256 585 4250 547 4250 522 
C 4218 112 4032 -26 3834 -26 
C 3482 -26 3443 375 3405 764 
C 3386 898 3373 993 3360 1133 
C 3322 1452 3270 1917 2509 2146 
z
M 1984 2214 
L 1254 2214 
L 1254 3913 
C 1254 4129 1267 4160 1523 4160 
L 1990 4160 
C 2522 4160 3142 3977 3142 3190 
C 3142 2372 2464 2214 1984 2214 
z
" transform="scale(0.015625)"/>
     </defs>
     <use xlink:href="#CMR17-63" transform="scale(0.996264)"/>
     <use xlink:href="#CMR17-61" transform="translate(40.48566 0) scale(0.996264)"/>
     <use xlink:href="#CMR17-74" transform="translate(86.176138 0) scale(0.996264)"/>
     <use xlink:href="#CMR17-65" transform="translate(121.456905 0) scale(0.996264)"/>
     <use xlink:href="#CMR17-67" transform="translate(161.942566 0) scale(0.996264)"/>
     <use xlink:href="#CMR17-6f" transform="translate(207.633043 0) scale(0.996264)"/>
     <use xlink:href="#CMR17-72" transform="translate(253.32352 0) scale(0.996264)"/>
     <use xlink:href="#CMR17-79" transform="translate(288.604288 0) scale(0.996264)"/>
     <use xlink:href="#CMR17-3d" transform="translate(366.97317 0) scale(0.996264)"/>
     <use xlink:href="#CMR17-41" transform="translate(468.763925 0) scale(0.996264)"/>
     <use xlink:href="#CMR17-48" transform="translate(537.836355 0) scale(0.996264)"/>
     <use xlink:href="#CMR17-52" transform="translate(606.908784 0) scale(0.996264)"/>
    </g>
   </g>
  </g>
  <g id="axes_2">
   <g id="patch_5">
    <path d="M 392.446493 306.161871 
L 698.021782 306.161871 
L 698.021782 20.669588 
L 392.446493 20.669588 
z
" style="fill: #ffffff"/>
   </g>
   <g id="PathCollection_2">
    <g clip-path="url(#p0f84d2dfcb)">
     <use xlink:href="#m22aa349c84" x="419.564647" y="268.333512" style="fill: #6b8df0; fill-opacity: 0.8; stroke: #000000; stroke-opacity: 0.8; stroke-width: 0.7"/>
     <use xlink:href="#m22aa349c84" x="450.430837" y="224.113258" style="fill: #6b8df0; fill-opacity: 0.8; stroke: #000000; stroke-opacity: 0.8; stroke-width: 0.7"/>
     <use xlink:href="#m22aa349c84" x="476.887572" y="167.84114" style="fill: #6b8df0; fill-opacity: 0.8; stroke: #000000; stroke-opacity: 0.8; stroke-width: 0.7"/>
     <use xlink:href="#m22aa349c84" x="428.383558" y="242.106679" style="fill: #6b8df0; fill-opacity: 0.8; stroke: #000000; stroke-opacity: 0.8; stroke-width: 0.7"/>
     <use xlink:href="#m22aa349c84" x="446.021382" y="238.845494" style="fill: #6b8df0; fill-opacity: 0.8; stroke: #000000; stroke-opacity: 0.8; stroke-width: 0.7"/>
     <use xlink:href="#m22aa349c84" x="459.249749" y="218.566104" style="fill: #6b8df0; fill-opacity: 0.8; stroke: #000000; stroke-opacity: 0.8; stroke-width: 0.7"/>
     <use xlink:href="#m22aa349c84" x="406.336279" y="217.416252" style="fill: #6b8df0; fill-opacity: 0.8; stroke: #000000; stroke-opacity: 0.8; stroke-width: 0.7"/>
     <use xlink:href="#m22aa349c84" x="463.659205" y="229.601546" style="fill: #6b8df0; fill-opacity: 0.8; stroke: #000000; stroke-opacity: 0.8; stroke-width: 0.7"/>
     <use xlink:href="#m22aa349c84" x="441.611926" y="236.184744" style="fill: #6b8df0; fill-opacity: 0.8; stroke: #000000; stroke-opacity: 0.8; stroke-width: 0.7"/>
     <use xlink:href="#m22aa349c84" x="573.895601" y="145.7369" style="fill: #6b8df0; fill-opacity: 0.8; stroke: #000000; stroke-opacity: 0.8; stroke-width: 0.7"/>
     <use xlink:href="#m22aa349c84" x="490.11594" y="162.957212" style="fill: #6b8df0; fill-opacity: 0.8; stroke: #000000; stroke-opacity: 0.8; stroke-width: 0.7"/>
    </g>
   </g>
   <g id="PolyCollection_2">
    <path d="M 406.336279 231.383452 
L 406.336279 293.184949 
L 408.028798 290.54338 
L 409.721316 287.896012 
L 411.413834 285.248143 
L 413.106353 282.569923 
L 414.798871 279.850829 
L 416.49139 277.187346 
L 418.183908 274.523863 
L 419.876426 271.898872 
L 421.568945 269.352709 
L 423.261463 266.742621 
L 424.953982 264.145703 
L 426.6465 261.630345 
L 428.339018 258.921278 
L 430.031537 256.577794 
L 431.724055 254.014938 
L 433.416574 251.367426 
L 435.109092 248.933916 
L 436.80161 246.529022 
L 438.494129 244.295842 
L 440.186647 242.118665 
L 441.879166 240.151257 
L 443.571684 238.202617 
L 445.264202 236.965679 
L 446.956721 235.497058 
L 448.649239 233.970275 
L 450.341758 233.047273 
L 452.034276 232.129227 
L 453.726794 231.010499 
L 455.419313 230.125646 
L 457.111831 229.525701 
L 458.804349 228.28315 
L 460.496868 227.29398 
L 462.189386 226.156034 
L 463.881905 225.347142 
L 465.574423 224.362057 
L 467.266941 223.588652 
L 468.95946 222.312407 
L 470.651978 221.036163 
L 472.344497 219.759919 
L 474.037015 218.650257 
L 475.729533 217.411399 
L 477.422052 216.172541 
L 479.11457 214.933683 
L 480.807089 214.148379 
L 482.499607 213.838598 
L 484.192125 213.524881 
L 485.884644 213.207142 
L 487.577162 212.889402 
L 489.269681 212.056724 
L 490.962199 211.100627 
L 492.654717 210.14111 
L 494.347236 209.176173 
L 496.039754 208.211236 
L 497.732273 207.246299 
L 499.424791 206.422251 
L 501.117309 205.877819 
L 502.809828 205.333388 
L 504.502346 204.788956 
L 506.194865 204.244525 
L 507.887383 203.700093 
L 509.579901 203.155662 
L 511.27242 202.608624 
L 512.964938 202.059819 
L 514.657457 201.511013 
L 516.349975 200.962208 
L 518.042493 200.413402 
L 519.735012 199.864597 
L 521.42753 199.315792 
L 523.120049 198.736488 
L 524.812567 197.914178 
L 526.505085 197.091868 
L 528.197604 196.564499 
L 529.890122 196.08339 
L 531.582641 195.60228 
L 533.275159 195.121171 
L 534.967677 194.640061 
L 536.660196 194.158952 
L 538.352714 193.677843 
L 540.045233 193.196733 
L 541.737751 192.715624 
L 543.430269 192.21062 
L 545.122788 191.559763 
L 546.815306 190.908036 
L 548.507825 190.256309 
L 550.200343 189.604581 
L 551.892861 188.952854 
L 553.58538 188.298996 
L 555.277898 187.64273 
L 556.970417 186.986465 
L 558.662935 186.330199 
L 560.355453 185.673934 
L 562.047972 185.017668 
L 563.74049 184.361403 
L 565.433009 183.705138 
L 567.125527 183.048872 
L 568.818045 182.392607 
L 570.510564 181.703201 
L 572.203082 180.980664 
L 573.895601 180.257657 
L 573.895601 33.64651 
L 573.895601 33.64651 
L 572.203082 36.224351 
L 570.510564 38.803285 
L 568.818045 41.382219 
L 567.125527 43.961152 
L 565.433009 46.558875 
L 563.74049 49.203058 
L 562.047972 51.766771 
L 560.355453 54.338695 
L 558.662935 56.995949 
L 556.970417 59.653204 
L 555.277898 62.310458 
L 553.58538 64.967712 
L 551.892861 67.624967 
L 550.200343 70.28241 
L 548.507825 72.93997 
L 546.815306 75.59753 
L 545.122788 78.255089 
L 543.430269 80.912649 
L 541.737751 83.570208 
L 540.045233 86.227768 
L 538.352714 88.885327 
L 536.660196 91.542887 
L 534.967677 94.149985 
L 533.275159 96.731622 
L 531.582641 99.31326 
L 529.890122 101.897534 
L 528.197604 104.483082 
L 526.505085 107.068629 
L 524.812567 109.638472 
L 523.120049 112.152372 
L 521.42753 114.666271 
L 519.735012 117.180171 
L 518.042493 119.853092 
L 516.349975 122.577185 
L 514.657457 125.169665 
L 512.964938 127.737406 
L 511.27242 130.312 
L 509.579901 132.891954 
L 507.887383 135.471908 
L 506.194865 138.051863 
L 504.502346 140.634405 
L 502.809828 143.217736 
L 501.117309 145.801067 
L 499.424791 148.384397 
L 497.732273 150.942928 
L 496.039754 153.273302 
L 494.347236 155.708687 
L 492.654717 158.357993 
L 490.962199 161.005187 
L 489.269681 163.434877 
L 487.577162 165.927738 
L 485.884644 168.422639 
L 484.192125 171.124116 
L 482.499607 173.827935 
L 480.807089 176.062291 
L 479.11457 178.66669 
L 477.422052 180.885539 
L 475.729533 183.377688 
L 474.037015 185.75765 
L 472.344497 187.557536 
L 470.651978 189.77834 
L 468.95946 191.712416 
L 467.266941 193.426105 
L 465.574423 195.458675 
L 463.881905 196.750961 
L 462.189386 198.276619 
L 460.496868 199.716689 
L 458.804349 201.069842 
L 457.111831 202.116713 
L 455.419313 203.1389 
L 453.726794 204.266587 
L 452.034276 205.301838 
L 450.341758 206.374401 
L 448.649239 207.371487 
L 446.956721 208.371291 
L 445.264202 209.398587 
L 443.571684 210.360928 
L 441.879166 211.352609 
L 440.186647 212.354751 
L 438.494129 213.424066 
L 436.80161 214.493368 
L 435.109092 215.5538 
L 433.416574 216.635188 
L 431.724055 217.609182 
L 430.031537 218.549933 
L 428.339018 219.531133 
L 426.6465 220.50859 
L 424.953982 221.514073 
L 423.261463 222.561775 
L 421.568945 223.626388 
L 419.876426 224.553019 
L 418.183908 225.224185 
L 416.49139 226.204616 
L 414.798871 227.161027 
L 413.106353 228.117437 
L 411.413834 229.073848 
L 409.721316 229.837442 
L 408.028798 230.593731 
L 406.336279 231.383452 
z
" clip-path="url(#p0f84d2dfcb)" style="fill: #0c5da5; fill-opacity: 0.15"/>
   </g>
   <g id="matplotlib.axis_3">
    <g id="xtick_15">
     <g id="line2d_90">
      <g>
       <use xlink:href="#m080c615a07" x="423.974102" y="306.161871" style="stroke: #000000; stroke-width: 0.5"/>
      </g>
     </g>
     <g id="line2d_91">
      <g>
       <use xlink:href="#ma7edce0098" x="423.974102" y="20.669588" style="stroke: #000000; stroke-width: 0.5"/>
      </g>
     </g>
     <g id="text_16">
      <!-- $\mathdefault{0.02}$ -->
      <g transform="translate(410.100348 320.731459) scale(0.16 -0.16)">
       <use xlink:href="#CMR17-30" transform="scale(0.996264)"/>
       <use xlink:href="#CMMI12-3a" transform="translate(45.690477 0) scale(0.996264)"/>
       <use xlink:href="#CMR17-30" transform="translate(72.787654 0) scale(0.996264)"/>
       <use xlink:href="#CMR17-32" transform="translate(118.478131 0) scale(0.996264)"/>
      </g>
     </g>
    </g>
    <g id="xtick_16">
     <g id="line2d_92">
      <g>
       <use xlink:href="#m080c615a07" x="512.163219" y="306.161871" style="stroke: #000000; stroke-width: 0.5"/>
      </g>
     </g>
     <g id="line2d_93">
      <g>
       <use xlink:href="#ma7edce0098" x="512.163219" y="20.669588" style="stroke: #000000; stroke-width: 0.5"/>
      </g>
     </g>
     <g id="text_17">
      <!-- $\mathdefault{0.04}$ -->
      <g transform="translate(498.289464 320.731459) scale(0.16 -0.16)">
       <use xlink:href="#CMR17-30" transform="scale(0.996264)"/>
       <use xlink:href="#CMMI12-3a" transform="translate(45.690477 0) scale(0.996264)"/>
       <use xlink:href="#CMR17-30" transform="translate(72.787654 0) scale(0.996264)"/>
       <use xlink:href="#CMR17-34" transform="translate(118.478131 0) scale(0.996264)"/>
      </g>
     </g>
    </g>
    <g id="xtick_17">
     <g id="line2d_94">
      <g>
       <use xlink:href="#m080c615a07" x="600.352336" y="306.161871" style="stroke: #000000; stroke-width: 0.5"/>
      </g>
     </g>
     <g id="line2d_95">
      <g>
       <use xlink:href="#ma7edce0098" x="600.352336" y="20.669588" style="stroke: #000000; stroke-width: 0.5"/>
      </g>
     </g>
     <g id="text_18">
      <!-- $\mathdefault{0.06}$ -->
      <g transform="translate(586.478581 320.731459) scale(0.16 -0.16)">
       <use xlink:href="#CMR17-30" transform="scale(0.996264)"/>
       <use xlink:href="#CMMI12-3a" transform="translate(45.690477 0) scale(0.996264)"/>
       <use xlink:href="#CMR17-30" transform="translate(72.787654 0) scale(0.996264)"/>
       <use xlink:href="#CMR17-36" transform="translate(118.478131 0) scale(0.996264)"/>
      </g>
     </g>
    </g>
    <g id="xtick_18">
     <g id="line2d_96">
      <g>
       <use xlink:href="#m080c615a07" x="688.541452" y="306.161871" style="stroke: #000000; stroke-width: 0.5"/>
      </g>
     </g>
     <g id="line2d_97">
      <g>
       <use xlink:href="#ma7edce0098" x="688.541452" y="20.669588" style="stroke: #000000; stroke-width: 0.5"/>
      </g>
     </g>
     <g id="text_19">
      <!-- $\mathdefault{0.08}$ -->
      <g transform="translate(674.667698 320.731459) scale(0.16 -0.16)">
       <use xlink:href="#CMR17-30" transform="scale(0.996264)"/>
       <use xlink:href="#CMMI12-3a" transform="translate(45.690477 0) scale(0.996264)"/>
       <use xlink:href="#CMR17-30" transform="translate(72.787654 0) scale(0.996264)"/>
       <use xlink:href="#CMR17-38" transform="translate(118.478131 0) scale(0.996264)"/>
      </g>
     </g>
    </g>
    <g id="xtick_19">
     <g id="line2d_98">
      <g>
       <use xlink:href="#m6bb023a552" x="401.926823" y="306.161871" style="stroke: #000000; stroke-width: 0.5"/>
      </g>
     </g>
     <g id="line2d_99">
      <g>
       <use xlink:href="#m6698f7668d" x="401.926823" y="20.669588" style="stroke: #000000; stroke-width: 0.5"/>
      </g>
     </g>
    </g>
    <g id="xtick_20">
     <g id="line2d_100">
      <g>
       <use xlink:href="#m6bb023a552" x="446.021382" y="306.161871" style="stroke: #000000; stroke-width: 0.5"/>
      </g>
     </g>
     <g id="line2d_101">
      <g>
       <use xlink:href="#m6698f7668d" x="446.021382" y="20.669588" style="stroke: #000000; stroke-width: 0.5"/>
      </g>
     </g>
    </g>
    <g id="xtick_21">
     <g id="line2d_102">
      <g>
       <use xlink:href="#m6bb023a552" x="468.068661" y="306.161871" style="stroke: #000000; stroke-width: 0.5"/>
      </g>
     </g>
     <g id="line2d_103">
      <g>
       <use xlink:href="#m6698f7668d" x="468.068661" y="20.669588" style="stroke: #000000; stroke-width: 0.5"/>
      </g>
     </g>
    </g>
    <g id="xtick_22">
     <g id="line2d_104">
      <g>
       <use xlink:href="#m6bb023a552" x="490.11594" y="306.161871" style="stroke: #000000; stroke-width: 0.5"/>
      </g>
     </g>
     <g id="line2d_105">
      <g>
       <use xlink:href="#m6698f7668d" x="490.11594" y="20.669588" style="stroke: #000000; stroke-width: 0.5"/>
      </g>
     </g>
    </g>
    <g id="xtick_23">
     <g id="line2d_106">
      <g>
       <use xlink:href="#m6bb023a552" x="534.210498" y="306.161871" style="stroke: #000000; stroke-width: 0.5"/>
      </g>
     </g>
     <g id="line2d_107">
      <g>
       <use xlink:href="#m6698f7668d" x="534.210498" y="20.669588" style="stroke: #000000; stroke-width: 0.5"/>
      </g>
     </g>
    </g>
    <g id="xtick_24">
     <g id="line2d_108">
      <g>
       <use xlink:href="#m6bb023a552" x="556.257777" y="306.161871" style="stroke: #000000; stroke-width: 0.5"/>
      </g>
     </g>
     <g id="line2d_109">
      <g>
       <use xlink:href="#m6698f7668d" x="556.257777" y="20.669588" style="stroke: #000000; stroke-width: 0.5"/>
      </g>
     </g>
    </g>
    <g id="xtick_25">
     <g id="line2d_110">
      <g>
       <use xlink:href="#m6bb023a552" x="578.305056" y="306.161871" style="stroke: #000000; stroke-width: 0.5"/>
      </g>
     </g>
     <g id="line2d_111">
      <g>
       <use xlink:href="#m6698f7668d" x="578.305056" y="20.669588" style="stroke: #000000; stroke-width: 0.5"/>
      </g>
     </g>
    </g>
    <g id="xtick_26">
     <g id="line2d_112">
      <g>
       <use xlink:href="#m6bb023a552" x="622.399615" y="306.161871" style="stroke: #000000; stroke-width: 0.5"/>
      </g>
     </g>
     <g id="line2d_113">
      <g>
       <use xlink:href="#m6698f7668d" x="622.399615" y="20.669588" style="stroke: #000000; stroke-width: 0.5"/>
      </g>
     </g>
    </g>
    <g id="xtick_27">
     <g id="line2d_114">
      <g>
       <use xlink:href="#m6bb023a552" x="644.446894" y="306.161871" style="stroke: #000000; stroke-width: 0.5"/>
      </g>
     </g>
     <g id="line2d_115">
      <g>
       <use xlink:href="#m6698f7668d" x="644.446894" y="20.669588" style="stroke: #000000; stroke-width: 0.5"/>
      </g>
     </g>
    </g>
    <g id="xtick_28">
     <g id="line2d_116">
      <g>
       <use xlink:href="#m6bb023a552" x="666.494173" y="306.161871" style="stroke: #000000; stroke-width: 0.5"/>
      </g>
     </g>
     <g id="line2d_117">
      <g>
       <use xlink:href="#m6698f7668d" x="666.494173" y="20.669588" style="stroke: #000000; stroke-width: 0.5"/>
      </g>
     </g>
    </g>
    <g id="text_20">
     <!-- Area -->
     <g transform="translate(528.978591 338.900524) scale(0.16 -0.16)">
      <use xlink:href="#CMR17-41" transform="scale(0.996264)"/>
      <use xlink:href="#CMR17-72" transform="translate(69.07243 0) scale(0.996264)"/>
      <use xlink:href="#CMR17-65" transform="translate(104.353198 0) scale(0.996264)"/>
      <use xlink:href="#CMR17-61" transform="translate(144.838858 0) scale(0.996264)"/>
     </g>
    </g>
   </g>
   <g id="matplotlib.axis_4">
    <g id="ytick_31">
     <g id="line2d_118">
      <g>
       <use xlink:href="#m1be2e615ea" x="392.446493" y="295.96136" style="stroke: #000000; stroke-width: 0.5"/>
      </g>
     </g>
     <g id="line2d_119">
      <g>
       <use xlink:href="#md365679d1f" x="698.021782" y="295.96136" style="stroke: #000000; stroke-width: 0.5"/>
      </g>
     </g>
    </g>
    <g id="ytick_32">
     <g id="line2d_120">
      <g>
       <use xlink:href="#m1be2e615ea" x="392.446493" y="256.717258" style="stroke: #000000; stroke-width: 0.5"/>
      </g>
     </g>
     <g id="line2d_121">
      <g>
       <use xlink:href="#md365679d1f" x="698.021782" y="256.717258" style="stroke: #000000; stroke-width: 0.5"/>
      </g>
     </g>
    </g>
    <g id="ytick_33">
     <g id="line2d_122">
      <g>
       <use xlink:href="#m1be2e615ea" x="392.446493" y="217.473156" style="stroke: #000000; stroke-width: 0.5"/>
      </g>
     </g>
     <g id="line2d_123">
      <g>
       <use xlink:href="#md365679d1f" x="698.021782" y="217.473156" style="stroke: #000000; stroke-width: 0.5"/>
      </g>
     </g>
    </g>
    <g id="ytick_34">
     <g id="line2d_124">
      <g>
       <use xlink:href="#m1be2e615ea" x="392.446493" y="178.229054" style="stroke: #000000; stroke-width: 0.5"/>
      </g>
     </g>
     <g id="line2d_125">
      <g>
       <use xlink:href="#md365679d1f" x="698.021782" y="178.229054" style="stroke: #000000; stroke-width: 0.5"/>
      </g>
     </g>
    </g>
    <g id="ytick_35">
     <g id="line2d_126">
      <g>
       <use xlink:href="#m1be2e615ea" x="392.446493" y="138.984952" style="stroke: #000000; stroke-width: 0.5"/>
      </g>
     </g>
     <g id="line2d_127">
      <g>
       <use xlink:href="#md365679d1f" x="698.021782" y="138.984952" style="stroke: #000000; stroke-width: 0.5"/>
      </g>
     </g>
    </g>
    <g id="ytick_36">
     <g id="line2d_128">
      <g>
       <use xlink:href="#m1be2e615ea" x="392.446493" y="99.74085" style="stroke: #000000; stroke-width: 0.5"/>
      </g>
     </g>
     <g id="line2d_129">
      <g>
       <use xlink:href="#md365679d1f" x="698.021782" y="99.74085" style="stroke: #000000; stroke-width: 0.5"/>
      </g>
     </g>
    </g>
    <g id="ytick_37">
     <g id="line2d_130">
      <g>
       <use xlink:href="#m1be2e615ea" x="392.446493" y="60.496748" style="stroke: #000000; stroke-width: 0.5"/>
      </g>
     </g>
     <g id="line2d_131">
      <g>
       <use xlink:href="#md365679d1f" x="698.021782" y="60.496748" style="stroke: #000000; stroke-width: 0.5"/>
      </g>
     </g>
    </g>
    <g id="ytick_38">
     <g id="line2d_132">
      <g>
       <use xlink:href="#m1be2e615ea" x="392.446493" y="21.252646" style="stroke: #000000; stroke-width: 0.5"/>
      </g>
     </g>
     <g id="line2d_133">
      <g>
       <use xlink:href="#md365679d1f" x="698.021782" y="21.252646" style="stroke: #000000; stroke-width: 0.5"/>
      </g>
     </g>
    </g>
    <g id="ytick_39">
     <g id="line2d_134">
      <g>
       <use xlink:href="#m6d3a247259" x="392.446493" y="305.772385" style="stroke: #000000; stroke-width: 0.5"/>
      </g>
     </g>
     <g id="line2d_135">
      <g>
       <use xlink:href="#m5aa447bee0" x="698.021782" y="305.772385" style="stroke: #000000; stroke-width: 0.5"/>
      </g>
     </g>
    </g>
    <g id="ytick_40">
     <g id="line2d_136">
      <g>
       <use xlink:href="#m6d3a247259" x="392.446493" y="286.150334" style="stroke: #000000; stroke-width: 0.5"/>
      </g>
     </g>
     <g id="line2d_137">
      <g>
       <use xlink:href="#m5aa447bee0" x="698.021782" y="286.150334" style="stroke: #000000; stroke-width: 0.5"/>
      </g>
     </g>
    </g>
    <g id="ytick_41">
     <g id="line2d_138">
      <g>
       <use xlink:href="#m6d3a247259" x="392.446493" y="276.339309" style="stroke: #000000; stroke-width: 0.5"/>
      </g>
     </g>
     <g id="line2d_139">
      <g>
       <use xlink:href="#m5aa447bee0" x="698.021782" y="276.339309" style="stroke: #000000; stroke-width: 0.5"/>
      </g>
     </g>
    </g>
    <g id="ytick_42">
     <g id="line2d_140">
      <g>
       <use xlink:href="#m6d3a247259" x="392.446493" y="266.528283" style="stroke: #000000; stroke-width: 0.5"/>
      </g>
     </g>
     <g id="line2d_141">
      <g>
       <use xlink:href="#m5aa447bee0" x="698.021782" y="266.528283" style="stroke: #000000; stroke-width: 0.5"/>
      </g>
     </g>
    </g>
    <g id="ytick_43">
     <g id="line2d_142">
      <g>
       <use xlink:href="#m6d3a247259" x="392.446493" y="246.906232" style="stroke: #000000; stroke-width: 0.5"/>
      </g>
     </g>
     <g id="line2d_143">
      <g>
       <use xlink:href="#m5aa447bee0" x="698.021782" y="246.906232" style="stroke: #000000; stroke-width: 0.5"/>
      </g>
     </g>
    </g>
    <g id="ytick_44">
     <g id="line2d_144">
      <g>
       <use xlink:href="#m6d3a247259" x="392.446493" y="237.095207" style="stroke: #000000; stroke-width: 0.5"/>
      </g>
     </g>
     <g id="line2d_145">
      <g>
       <use xlink:href="#m5aa447bee0" x="698.021782" y="237.095207" style="stroke: #000000; stroke-width: 0.5"/>
      </g>
     </g>
    </g>
    <g id="ytick_45">
     <g id="line2d_146">
      <g>
       <use xlink:href="#m6d3a247259" x="392.446493" y="227.284181" style="stroke: #000000; stroke-width: 0.5"/>
      </g>
     </g>
     <g id="line2d_147">
      <g>
       <use xlink:href="#m5aa447bee0" x="698.021782" y="227.284181" style="stroke: #000000; stroke-width: 0.5"/>
      </g>
     </g>
    </g>
    <g id="ytick_46">
     <g id="line2d_148">
      <g>
       <use xlink:href="#m6d3a247259" x="392.446493" y="207.66213" style="stroke: #000000; stroke-width: 0.5"/>
      </g>
     </g>
     <g id="line2d_149">
      <g>
       <use xlink:href="#m5aa447bee0" x="698.021782" y="207.66213" style="stroke: #000000; stroke-width: 0.5"/>
      </g>
     </g>
    </g>
    <g id="ytick_47">
     <g id="line2d_150">
      <g>
       <use xlink:href="#m6d3a247259" x="392.446493" y="197.851105" style="stroke: #000000; stroke-width: 0.5"/>
      </g>
     </g>
     <g id="line2d_151">
      <g>
       <use xlink:href="#m5aa447bee0" x="698.021782" y="197.851105" style="stroke: #000000; stroke-width: 0.5"/>
      </g>
     </g>
    </g>
    <g id="ytick_48">
     <g id="line2d_152">
      <g>
       <use xlink:href="#m6d3a247259" x="392.446493" y="188.040079" style="stroke: #000000; stroke-width: 0.5"/>
      </g>
     </g>
     <g id="line2d_153">
      <g>
       <use xlink:href="#m5aa447bee0" x="698.021782" y="188.040079" style="stroke: #000000; stroke-width: 0.5"/>
      </g>
     </g>
    </g>
    <g id="ytick_49">
     <g id="line2d_154">
      <g>
       <use xlink:href="#m6d3a247259" x="392.446493" y="168.418028" style="stroke: #000000; stroke-width: 0.5"/>
      </g>
     </g>
     <g id="line2d_155">
      <g>
       <use xlink:href="#m5aa447bee0" x="698.021782" y="168.418028" style="stroke: #000000; stroke-width: 0.5"/>
      </g>
     </g>
    </g>
    <g id="ytick_50">
     <g id="line2d_156">
      <g>
       <use xlink:href="#m6d3a247259" x="392.446493" y="158.607003" style="stroke: #000000; stroke-width: 0.5"/>
      </g>
     </g>
     <g id="line2d_157">
      <g>
       <use xlink:href="#m5aa447bee0" x="698.021782" y="158.607003" style="stroke: #000000; stroke-width: 0.5"/>
      </g>
     </g>
    </g>
    <g id="ytick_51">
     <g id="line2d_158">
      <g>
       <use xlink:href="#m6d3a247259" x="392.446493" y="148.795977" style="stroke: #000000; stroke-width: 0.5"/>
      </g>
     </g>
     <g id="line2d_159">
      <g>
       <use xlink:href="#m5aa447bee0" x="698.021782" y="148.795977" style="stroke: #000000; stroke-width: 0.5"/>
      </g>
     </g>
    </g>
    <g id="ytick_52">
     <g id="line2d_160">
      <g>
       <use xlink:href="#m6d3a247259" x="392.446493" y="129.173927" style="stroke: #000000; stroke-width: 0.5"/>
      </g>
     </g>
     <g id="line2d_161">
      <g>
       <use xlink:href="#m5aa447bee0" x="698.021782" y="129.173927" style="stroke: #000000; stroke-width: 0.5"/>
      </g>
     </g>
    </g>
    <g id="ytick_53">
     <g id="line2d_162">
      <g>
       <use xlink:href="#m6d3a247259" x="392.446493" y="119.362901" style="stroke: #000000; stroke-width: 0.5"/>
      </g>
     </g>
     <g id="line2d_163">
      <g>
       <use xlink:href="#m5aa447bee0" x="698.021782" y="119.362901" style="stroke: #000000; stroke-width: 0.5"/>
      </g>
     </g>
    </g>
    <g id="ytick_54">
     <g id="line2d_164">
      <g>
       <use xlink:href="#m6d3a247259" x="392.446493" y="109.551876" style="stroke: #000000; stroke-width: 0.5"/>
      </g>
     </g>
     <g id="line2d_165">
      <g>
       <use xlink:href="#m5aa447bee0" x="698.021782" y="109.551876" style="stroke: #000000; stroke-width: 0.5"/>
      </g>
     </g>
    </g>
    <g id="ytick_55">
     <g id="line2d_166">
      <g>
       <use xlink:href="#m6d3a247259" x="392.446493" y="89.929825" style="stroke: #000000; stroke-width: 0.5"/>
      </g>
     </g>
     <g id="line2d_167">
      <g>
       <use xlink:href="#m5aa447bee0" x="698.021782" y="89.929825" style="stroke: #000000; stroke-width: 0.5"/>
      </g>
     </g>
    </g>
    <g id="ytick_56">
     <g id="line2d_168">
      <g>
       <use xlink:href="#m6d3a247259" x="392.446493" y="80.118799" style="stroke: #000000; stroke-width: 0.5"/>
      </g>
     </g>
     <g id="line2d_169">
      <g>
       <use xlink:href="#m5aa447bee0" x="698.021782" y="80.118799" style="stroke: #000000; stroke-width: 0.5"/>
      </g>
     </g>
    </g>
    <g id="ytick_57">
     <g id="line2d_170">
      <g>
       <use xlink:href="#m6d3a247259" x="392.446493" y="70.307774" style="stroke: #000000; stroke-width: 0.5"/>
      </g>
     </g>
     <g id="line2d_171">
      <g>
       <use xlink:href="#m5aa447bee0" x="698.021782" y="70.307774" style="stroke: #000000; stroke-width: 0.5"/>
      </g>
     </g>
    </g>
    <g id="ytick_58">
     <g id="line2d_172">
      <g>
       <use xlink:href="#m6d3a247259" x="392.446493" y="50.685723" style="stroke: #000000; stroke-width: 0.5"/>
      </g>
     </g>
     <g id="line2d_173">
      <g>
       <use xlink:href="#m5aa447bee0" x="698.021782" y="50.685723" style="stroke: #000000; stroke-width: 0.5"/>
      </g>
     </g>
    </g>
    <g id="ytick_59">
     <g id="line2d_174">
      <g>
       <use xlink:href="#m6d3a247259" x="392.446493" y="40.874697" style="stroke: #000000; stroke-width: 0.5"/>
      </g>
     </g>
     <g id="line2d_175">
      <g>
       <use xlink:href="#m5aa447bee0" x="698.021782" y="40.874697" style="stroke: #000000; stroke-width: 0.5"/>
      </g>
     </g>
    </g>
    <g id="ytick_60">
     <g id="line2d_176">
      <g>
       <use xlink:href="#m6d3a247259" x="392.446493" y="31.063672" style="stroke: #000000; stroke-width: 0.5"/>
      </g>
     </g>
     <g id="line2d_177">
      <g>
       <use xlink:href="#m5aa447bee0" x="698.021782" y="31.063672" style="stroke: #000000; stroke-width: 0.5"/>
      </g>
     </g>
    </g>
   </g>
   <g id="line2d_178">
    <path d="M 406.336279 250.948902 
L 408.028798 249.769291 
L 409.721316 248.589681 
L 411.413834 247.41007 
L 413.106353 246.230459 
L 414.798871 245.050849 
L 416.49139 243.871238 
L 418.183908 242.691628 
L 419.876426 241.512017 
L 421.568945 240.332406 
L 423.261463 239.152796 
L 424.953982 237.973185 
L 426.6465 236.793574 
L 428.339018 235.613964 
L 430.031537 234.434353 
L 431.724055 233.254743 
L 433.416574 232.075132 
L 435.109092 230.895521 
L 436.80161 229.715911 
L 438.494129 228.5363 
L 440.186647 227.356689 
L 441.879166 226.177079 
L 443.571684 224.997468 
L 445.264202 223.817858 
L 446.956721 222.638247 
L 448.649239 221.458636 
L 450.341758 220.279026 
L 452.034276 219.099415 
L 453.726794 217.919804 
L 455.419313 216.740194 
L 457.111831 215.560583 
L 458.804349 214.380973 
L 460.496868 213.201362 
L 462.189386 212.021751 
L 463.881905 210.842141 
L 465.574423 209.66253 
L 467.266941 208.482919 
L 468.95946 207.303309 
L 470.651978 206.123698 
L 472.344497 204.944088 
L 474.037015 203.764477 
L 475.729533 202.584866 
L 477.422052 201.405256 
L 479.11457 200.225645 
L 480.807089 199.046034 
L 482.499607 197.866424 
L 484.192125 196.686813 
L 485.884644 195.507203 
L 487.577162 194.327592 
L 489.269681 193.147981 
L 490.962199 191.968371 
L 492.654717 190.78876 
L 494.347236 189.609149 
L 496.039754 188.429539 
L 497.732273 187.249928 
L 499.424791 186.070318 
L 501.117309 184.890707 
L 502.809828 183.711096 
L 504.502346 182.531486 
L 506.194865 181.351875 
L 507.887383 180.172264 
L 509.579901 178.992654 
L 511.27242 177.813043 
L 512.964938 176.633433 
L 514.657457 175.453822 
L 516.349975 174.274211 
L 518.042493 173.094601 
L 519.735012 171.91499 
L 521.42753 170.735379 
L 523.120049 169.555769 
L 524.812567 168.376158 
L 526.505085 167.196548 
L 528.197604 166.016937 
L 529.890122 164.837326 
L 531.582641 163.657716 
L 533.275159 162.478105 
L 534.967677 161.298494 
L 536.660196 160.118884 
L 538.352714 158.939273 
L 540.045233 157.759663 
L 541.737751 156.580052 
L 543.430269 155.400441 
L 545.122788 154.220831 
L 546.815306 153.04122 
L 548.507825 151.86161 
L 550.200343 150.681999 
L 551.892861 149.502388 
L 553.58538 148.322778 
L 555.277898 147.143167 
L 556.970417 145.963556 
L 558.662935 144.783946 
L 560.355453 143.604335 
L 562.047972 142.424725 
L 563.74049 141.245114 
L 565.433009 140.065503 
L 567.125527 138.885893 
L 568.818045 137.706282 
L 570.510564 136.526671 
L 572.203082 135.347061 
L 573.895601 134.16745 
" clip-path="url(#p0f84d2dfcb)" style="fill: none; stroke: #0c5da5; stroke-width: 1.5; stroke-linecap: square"/>
   </g>
   <g id="patch_6">
    <path d="M 392.446493 306.161871 
L 392.446493 20.669588 
" style="fill: none; stroke: #000000; stroke-width: 0.5; stroke-linejoin: miter; stroke-linecap: square"/>
   </g>
   <g id="patch_7">
    <path d="M 392.446493 306.161871 
L 698.021782 306.161871 
" style="fill: none; stroke: #000000; stroke-width: 0.5; stroke-linejoin: miter; stroke-linecap: square"/>
   </g>
   <g id="text_21">
    <!-- category = ALR -->
    <g transform="translate(488.660743 14.669588) scale(0.16 -0.16)">
     <defs>
      <path id="CMR17-4c" d="M 3469 1615 
L 3354 1615 
C 3302 983 3219 166 2125 166 
L 1530 166 
C 1274 166 1261 197 1261 414 
L 1261 3898 
C 1261 4129 1274 4192 1760 4192 
L 1901 4192 
L 1901 4352 
C 1638 4352 1331 4352 1069 4352 
C 870 4352 512 4352 326 4352 
L 326 4192 
C 768 4192 838 4192 838 3905 
L 838 452 
C 838 166 768 166 326 166 
L 326 0 
L 3315 0 
L 3469 1615 
z
" transform="scale(0.015625)"/>
     </defs>
     <use xlink:href="#CMR17-63" transform="scale(0.996264)"/>
     <use xlink:href="#CMR17-61" transform="translate(40.48566 0) scale(0.996264)"/>
     <use xlink:href="#CMR17-74" transform="translate(86.176138 0) scale(0.996264)"/>
     <use xlink:href="#CMR17-65" transform="translate(121.456905 0) scale(0.996264)"/>
     <use xlink:href="#CMR17-67" transform="translate(161.942566 0) scale(0.996264)"/>
     <use xlink:href="#CMR17-6f" transform="translate(207.633043 0) scale(0.996264)"/>
     <use xlink:href="#CMR17-72" transform="translate(253.32352 0) scale(0.996264)"/>
     <use xlink:href="#CMR17-79" transform="translate(288.604288 0) scale(0.996264)"/>
     <use xlink:href="#CMR17-3d" transform="translate(366.97317 0) scale(0.996264)"/>
     <use xlink:href="#CMR17-41" transform="translate(468.763925 0) scale(0.996264)"/>
     <use xlink:href="#CMR17-4c" transform="translate(537.836355 0) scale(0.996264)"/>
     <use xlink:href="#CMR17-52" transform="translate(595.217762 0) scale(0.996264)"/>
    </g>
   </g>
  </g>
 </g>
 <defs>
  <clipPath id="p25d3cc834e">
   <rect x="72.092987" y="20.669588" width="305.575289" height="285.492283"/>
  </clipPath>
  <clipPath id="p0f84d2dfcb">
   <rect x="392.446493" y="20.669588" width="305.575289" height="285.492283"/>
  </clipPath>
 </defs>
</svg>
