<?xml version="1.0" encoding="utf-8" standalone="no"?>
<!DOCTYPE svg PUBLIC "-//W3C//DTD SVG 1.1//EN"
  "http://www.w3.org/Graphics/SVG/1.1/DTD/svg11.dtd">
<svg xmlns:xlink="http://www.w3.org/1999/xlink" width="705.6pt" height="345.6pt" viewBox="0 0 705.6 345.6" xmlns="http://www.w3.org/2000/svg" version="1.1">
 <metadata>
  <rdf:RDF xmlns:dc="http://purl.org/dc/elements/1.1/" xmlns:cc="http://creativecommons.org/ns#" xmlns:rdf="http://www.w3.org/1999/02/22-rdf-syntax-ns#">
   <cc:Work>
    <dc:type rdf:resource="http://purl.org/dc/dcmitype/StillImage"/>
    <dc:date>2023-10-10T18:27:27.128708</dc:date>
    <dc:format>image/svg+xml</dc:format>
    <dc:creator>
     <cc:Agent>
      <dc:title>Matplotlib v3.7.2, https://matplotlib.org/</dc:title>
     </cc:Agent>
    </dc:creator>
   </cc:Work>
  </rdf:RDF>
 </metadata>
 <defs>
  <style type="text/css">*{stroke-linejoin: round; stroke-linecap: butt}</style>
 </defs>
 <g id="figure_1">
  <g id="patch_1">
   <path d="M -0 345.6 
L 705.6 345.6 
L 705.6 0 
L -0 0 
z
" style="fill: #ffffff"/>
  </g>
  <g id="axes_1">
   <g id="patch_2">
    <path d="M 72.092987 306.161871 
L 381.646493 306.161871 
L 381.646493 20.669588 
L 72.092987 20.669588 
z
" style="fill: #ffffff"/>
   </g>
   <g id="PathCollection_1">
    <defs>
     <path id="mbf33323a9b" d="M 0 3.872983 
C 1.027127 3.872983 2.012324 3.464901 2.738613 2.738613 
C 3.464901 2.012324 3.872983 1.027127 3.872983 0 
C 3.872983 -1.027127 3.464901 -2.012324 2.738613 -2.738613 
C 2.012324 -3.464901 1.027127 -3.872983 0 -3.872983 
C -1.027127 -3.872983 -2.012324 -3.464901 -2.738613 -2.738613 
C -3.464901 -2.012324 -3.872983 -1.027127 -3.872983 0 
C -3.872983 1.027127 -3.464901 2.012324 -2.738613 2.738613 
C -2.012324 3.464901 -1.027127 3.872983 0 3.872983 
z
" style="stroke: #000000; stroke-opacity: 0.8; stroke-width: 0.7"/>
    </defs>
    <g clip-path="url(#pe77b9fa5a9)">
     <use xlink:href="#mbf33323a9b" x="89.157348" y="240.374088" style="fill: #a1c0ff; fill-opacity: 0.8; stroke: #000000; stroke-opacity: 0.8; stroke-width: 0.7"/>
     <use xlink:href="#mbf33323a9b" x="116.101077" y="239.55011" style="fill: #a1c0ff; fill-opacity: 0.8; stroke: #000000; stroke-opacity: 0.8; stroke-width: 0.7"/>
     <use xlink:href="#mbf33323a9b" x="107.119834" y="244.886322" style="fill: #a1c0ff; fill-opacity: 0.8; stroke: #000000; stroke-opacity: 0.8; stroke-width: 0.7"/>
     <use xlink:href="#mbf33323a9b" x="172.982282" y="232.219883" style="fill: #a1c0ff; fill-opacity: 0.8; stroke: #000000; stroke-opacity: 0.8; stroke-width: 0.7"/>
     <use xlink:href="#mbf33323a9b" x="104.126086" y="237.942519" style="fill: #a1c0ff; fill-opacity: 0.8; stroke: #000000; stroke-opacity: 0.8; stroke-width: 0.7"/>
     <use xlink:href="#mbf33323a9b" x="107.119834" y="237.887085" style="fill: #a1c0ff; fill-opacity: 0.8; stroke: #000000; stroke-opacity: 0.8; stroke-width: 0.7"/>
     <use xlink:href="#mbf33323a9b" x="110.113582" y="226.857838" style="fill: #a1c0ff; fill-opacity: 0.8; stroke: #000000; stroke-opacity: 0.8; stroke-width: 0.7"/>
     <use xlink:href="#mbf33323a9b" x="110.113582" y="235.260689" style="fill: #a1c0ff; fill-opacity: 0.8; stroke: #000000; stroke-opacity: 0.8; stroke-width: 0.7"/>
     <use xlink:href="#mbf33323a9b" x="86.1636" y="248.27857" style="fill: #a1c0ff; fill-opacity: 0.8; stroke: #000000; stroke-opacity: 0.8; stroke-width: 0.7"/>
     <use xlink:href="#mbf33323a9b" x="101.132339" y="242.988643" style="fill: #a1c0ff; fill-opacity: 0.8; stroke: #000000; stroke-opacity: 0.8; stroke-width: 0.7"/>
     <use xlink:href="#mbf33323a9b" x="98.138591" y="242.072096" style="fill: #a1c0ff; fill-opacity: 0.8; stroke: #000000; stroke-opacity: 0.8; stroke-width: 0.7"/>
     <use xlink:href="#mbf33323a9b" x="110.113582" y="232.958288" style="fill: #a1c0ff; fill-opacity: 0.8; stroke: #000000; stroke-opacity: 0.8; stroke-width: 0.7"/>
     <use xlink:href="#mbf33323a9b" x="113.107329" y="236.234286" style="fill: #a1c0ff; fill-opacity: 0.8; stroke: #000000; stroke-opacity: 0.8; stroke-width: 0.7"/>
     <use xlink:href="#mbf33323a9b" x="107.119834" y="238.498475" style="fill: #a1c0ff; fill-opacity: 0.8; stroke: #000000; stroke-opacity: 0.8; stroke-width: 0.7"/>
    </g>
   </g>
   <g id="PolyCollection_1">
    <path d="M 86.1636 238.336888 
L 86.1636 249.089792 
L 87.040557 248.664941 
L 87.917513 248.221825 
L 88.79447 247.757356 
L 89.671426 247.331591 
L 90.548382 246.885936 
L 91.425339 246.370907 
L 92.302295 245.854611 
L 93.179252 245.495908 
L 94.056208 245.108099 
L 94.933164 244.662944 
L 95.810121 244.218528 
L 96.687077 243.785186 
L 97.564033 243.390682 
L 98.44099 243.012131 
L 99.317946 242.684768 
L 100.194903 242.352599 
L 101.071859 242.054978 
L 101.948815 241.761971 
L 102.825772 241.5615 
L 103.702728 241.352912 
L 104.579684 241.130999 
L 105.456641 240.989042 
L 106.333597 240.820746 
L 107.210554 240.660193 
L 108.08751 240.49399 
L 108.964466 240.375934 
L 109.841423 240.234339 
L 110.718379 240.10897 
L 111.595336 239.997951 
L 112.472292 239.858437 
L 113.349248 239.741276 
L 114.226205 239.599384 
L 115.103161 239.471856 
L 115.980117 239.364584 
L 116.857074 239.220468 
L 117.73403 239.091941 
L 118.610987 238.953109 
L 119.487943 238.832025 
L 120.364899 238.721502 
L 121.241856 238.589718 
L 122.118812 238.467595 
L 122.995768 238.34751 
L 123.872725 238.226536 
L 124.749681 238.086692 
L 125.626638 237.952303 
L 126.503594 237.835788 
L 127.38055 237.742637 
L 128.257507 237.621663 
L 129.134463 237.500688 
L 130.01142 237.379713 
L 130.888376 237.258739 
L 131.765332 237.137764 
L 132.642289 237.016789 
L 133.519245 236.895815 
L 134.396201 236.782287 
L 135.273158 236.68412 
L 136.150114 236.563377 
L 137.027071 236.420052 
L 137.904027 236.307351 
L 138.780983 236.20497 
L 139.65794 236.099183 
L 140.534896 235.9808 
L 141.411852 235.862346 
L 142.288809 235.743892 
L 143.165765 235.618681 
L 144.042722 235.475885 
L 144.919678 235.350307 
L 145.796634 235.233753 
L 146.673591 235.127542 
L 147.550547 235.020798 
L 148.427504 234.905011 
L 149.30446 234.778067 
L 150.181416 234.651439 
L 151.058373 234.534709 
L 151.935329 234.429999 
L 152.812285 234.320493 
L 153.689242 234.20456 
L 154.566198 234.086444 
L 155.443155 233.980148 
L 156.320111 233.885123 
L 157.197067 233.790678 
L 158.074024 233.693102 
L 158.95098 233.600634 
L 159.827937 233.506136 
L 160.704893 233.422711 
L 161.581849 233.336588 
L 162.458806 233.222008 
L 163.335762 233.114326 
L 164.212718 233.02708 
L 165.089675 232.933666 
L 165.966631 232.842748 
L 166.843588 232.748545 
L 167.720544 232.654044 
L 168.5975 232.559142 
L 169.474457 232.463965 
L 170.351413 232.361051 
L 171.228369 232.257204 
L 172.105326 232.170764 
L 172.982282 232.089542 
L 172.982282 198.035951 
L 172.982282 198.035951 
L 172.105326 198.534538 
L 171.228369 199.033125 
L 170.351413 199.531712 
L 169.474457 200.030299 
L 168.5975 200.528886 
L 167.720544 201.027473 
L 166.843588 201.52606 
L 165.966631 202.024646 
L 165.089675 202.523233 
L 164.212718 203.02182 
L 163.335762 203.520407 
L 162.458806 204.030907 
L 161.581849 204.552998 
L 160.704893 205.075089 
L 159.827937 205.597181 
L 158.95098 206.119272 
L 158.074024 206.641364 
L 157.197067 207.163455 
L 156.320111 207.686218 
L 155.443155 208.208984 
L 154.566198 208.73175 
L 153.689242 209.254516 
L 152.812285 209.777283 
L 151.935329 210.300049 
L 151.058373 210.822815 
L 150.181416 211.345581 
L 149.30446 211.868347 
L 148.427504 212.391113 
L 147.550547 212.913879 
L 146.673591 213.436645 
L 145.796634 213.959411 
L 144.919678 214.482177 
L 144.042722 215.004943 
L 143.165765 215.527709 
L 142.288809 216.050475 
L 141.411852 216.573241 
L 140.534896 217.096007 
L 139.65794 217.618773 
L 138.780983 218.141539 
L 137.904027 218.664306 
L 137.027071 219.187072 
L 136.150114 219.709838 
L 135.273158 220.232604 
L 134.396201 220.75537 
L 133.519245 221.278136 
L 132.642289 221.800902 
L 131.765332 222.305298 
L 130.888376 222.789582 
L 130.01142 223.279779 
L 129.134463 223.756612 
L 128.257507 224.238848 
L 127.38055 224.721085 
L 126.503594 225.203321 
L 125.626638 225.685557 
L 124.749681 226.10934 
L 123.872725 226.514407 
L 122.995768 227.018258 
L 122.118812 227.530534 
L 121.241856 228.046931 
L 120.364899 228.563803 
L 119.487943 229.072244 
L 118.610987 229.560958 
L 117.73403 230.038638 
L 116.857074 230.613904 
L 115.980117 231.084684 
L 115.103161 231.607924 
L 114.226205 232.045985 
L 113.349248 232.547578 
L 112.472292 232.972815 
L 111.595336 233.418935 
L 110.718379 233.903743 
L 109.841423 234.288951 
L 108.964466 234.718551 
L 108.08751 235.071121 
L 107.210554 235.496836 
L 106.333597 235.824199 
L 105.456641 236.102201 
L 104.579684 236.381453 
L 103.702728 236.562637 
L 102.825772 236.753506 
L 101.948815 236.828062 
L 101.071859 236.957346 
L 100.194903 237.017317 
L 99.317946 237.078007 
L 98.44099 237.190448 
L 97.564033 237.274317 
L 96.687077 237.338797 
L 95.810121 237.403442 
L 94.933164 237.468124 
L 94.056208 237.540174 
L 93.179252 237.62866 
L 92.302295 237.71731 
L 91.425339 237.810881 
L 90.548382 237.905883 
L 89.671426 238.000884 
L 88.79447 238.092528 
L 87.917513 238.170862 
L 87.040557 238.249197 
L 86.1636 238.336888 
z
" clip-path="url(#pe77b9fa5a9)" style="fill: #0c5da5; fill-opacity: 0.15"/>
   </g>
   <g id="matplotlib.axis_1">
    <g id="xtick_1">
     <g id="line2d_1">
      <defs>
       <path id="mc0c4835b6f" d="M 0 0 
L 0 -3 
" style="stroke: #000000; stroke-width: 0.5"/>
      </defs>
      <g>
       <use xlink:href="#mc0c4835b6f" x="98.138591" y="306.161871" style="stroke: #000000; stroke-width: 0.5"/>
      </g>
     </g>
     <g id="line2d_2">
      <defs>
       <path id="mce54c5a3a0" d="M 0 0 
L 0 3 
" style="stroke: #000000; stroke-width: 0.5"/>
      </defs>
      <g>
       <use xlink:href="#mce54c5a3a0" x="98.138591" y="20.669588" style="stroke: #000000; stroke-width: 0.5"/>
      </g>
     </g>
     <g id="text_1">
      <!-- $\mathdefault{0.02}$ -->
      <g transform="translate(84.264836 320.731459) scale(0.16 -0.16)">
       <defs>
        <path id="CMR17-30" d="M 2688 2025 
C 2688 2416 2682 3080 2413 3591 
C 2176 4039 1798 4198 1466 4198 
C 1158 4198 768 4058 525 3597 
C 269 3118 243 2524 243 2025 
C 243 1661 250 1106 448 619 
C 723 -39 1216 -128 1466 -128 
C 1760 -128 2208 -7 2470 600 
C 2662 1042 2688 1559 2688 2025 
z
M 1466 -26 
C 1056 -26 813 325 723 812 
C 653 1188 653 1738 653 2096 
C 653 2588 653 2997 736 3387 
C 858 3929 1216 4096 1466 4096 
C 1728 4096 2067 3923 2189 3400 
C 2272 3036 2278 2607 2278 2096 
C 2278 1680 2278 1169 2202 792 
C 2067 95 1690 -26 1466 -26 
z
" transform="scale(0.015625)"/>
        <path id="CMMI12-3a" d="M 1178 307 
C 1178 492 1024 619 870 619 
C 685 619 557 466 557 313 
C 557 128 710 0 864 0 
C 1050 0 1178 153 1178 307 
z
" transform="scale(0.015625)"/>
        <path id="CMR17-32" d="M 2669 989 
L 2554 989 
C 2490 536 2438 459 2413 420 
C 2381 369 1920 369 1830 369 
L 602 369 
C 832 619 1280 1072 1824 1597 
C 2214 1967 2669 2402 2669 3035 
C 2669 3790 2067 4224 1395 4224 
C 691 4224 262 3604 262 3030 
C 262 2780 448 2748 525 2748 
C 589 2748 781 2787 781 3010 
C 781 3207 614 3264 525 3264 
C 486 3264 448 3258 422 3245 
C 544 3790 915 4058 1306 4058 
C 1862 4058 2227 3617 2227 3035 
C 2227 2479 1901 2000 1536 1584 
L 262 146 
L 262 0 
L 2515 0 
L 2669 989 
z
" transform="scale(0.015625)"/>
       </defs>
       <use xlink:href="#CMR17-30" transform="scale(0.996264)"/>
       <use xlink:href="#CMMI12-3a" transform="translate(45.690477 0) scale(0.996264)"/>
       <use xlink:href="#CMR17-30" transform="translate(72.787654 0) scale(0.996264)"/>
       <use xlink:href="#CMR17-32" transform="translate(118.478131 0) scale(0.996264)"/>
      </g>
     </g>
    </g>
    <g id="xtick_2">
     <g id="line2d_3">
      <g>
       <use xlink:href="#mc0c4835b6f" x="158.013544" y="306.161871" style="stroke: #000000; stroke-width: 0.5"/>
      </g>
     </g>
     <g id="line2d_4">
      <g>
       <use xlink:href="#mce54c5a3a0" x="158.013544" y="20.669588" style="stroke: #000000; stroke-width: 0.5"/>
      </g>
     </g>
     <g id="text_2">
      <!-- $\mathdefault{0.04}$ -->
      <g transform="translate(144.139789 320.731459) scale(0.16 -0.16)">
       <defs>
        <path id="CMR17-34" d="M 2150 4122 
C 2150 4256 2144 4256 2029 4256 
L 128 1254 
L 128 1088 
L 1779 1088 
L 1779 457 
C 1779 224 1766 160 1318 160 
L 1197 160 
L 1197 0 
C 1402 0 1747 0 1965 0 
C 2182 0 2528 0 2733 0 
L 2733 160 
L 2611 160 
C 2163 160 2150 224 2150 457 
L 2150 1088 
L 2803 1088 
L 2803 1254 
L 2150 1254 
L 2150 4122 
z
M 1798 3703 
L 1798 1254 
L 256 1254 
L 1798 3703 
z
" transform="scale(0.015625)"/>
       </defs>
       <use xlink:href="#CMR17-30" transform="scale(0.996264)"/>
       <use xlink:href="#CMMI12-3a" transform="translate(45.690477 0) scale(0.996264)"/>
       <use xlink:href="#CMR17-30" transform="translate(72.787654 0) scale(0.996264)"/>
       <use xlink:href="#CMR17-34" transform="translate(118.478131 0) scale(0.996264)"/>
      </g>
     </g>
    </g>
    <g id="xtick_3">
     <g id="line2d_5">
      <g>
       <use xlink:href="#mc0c4835b6f" x="217.888497" y="306.161871" style="stroke: #000000; stroke-width: 0.5"/>
      </g>
     </g>
     <g id="line2d_6">
      <g>
       <use xlink:href="#mce54c5a3a0" x="217.888497" y="20.669588" style="stroke: #000000; stroke-width: 0.5"/>
      </g>
     </g>
     <g id="text_3">
      <!-- $\mathdefault{0.06}$ -->
      <g transform="translate(204.014742 320.731459) scale(0.16 -0.16)">
       <defs>
        <path id="CMR17-36" d="M 678 2176 
C 678 3690 1395 4032 1811 4032 
C 1946 4032 2272 4009 2400 3776 
C 2298 3776 2106 3776 2106 3553 
C 2106 3381 2246 3323 2336 3323 
C 2394 3323 2566 3348 2566 3560 
C 2566 3954 2246 4179 1805 4179 
C 1043 4179 243 3390 243 1984 
C 243 253 966 -128 1478 -128 
C 2099 -128 2688 427 2688 1283 
C 2688 2081 2170 2662 1517 2662 
C 1126 2662 838 2407 678 1960 
L 678 2176 
z
M 1478 25 
C 691 25 691 1200 691 1436 
C 691 1896 909 2560 1504 2560 
C 1613 2560 1926 2560 2138 2120 
C 2253 1870 2253 1609 2253 1289 
C 2253 944 2253 690 2118 434 
C 1978 171 1773 25 1478 25 
z
" transform="scale(0.015625)"/>
       </defs>
       <use xlink:href="#CMR17-30" transform="scale(0.996264)"/>
       <use xlink:href="#CMMI12-3a" transform="translate(45.690477 0) scale(0.996264)"/>
       <use xlink:href="#CMR17-30" transform="translate(72.787654 0) scale(0.996264)"/>
       <use xlink:href="#CMR17-36" transform="translate(118.478131 0) scale(0.996264)"/>
      </g>
     </g>
    </g>
    <g id="xtick_4">
     <g id="line2d_7">
      <g>
       <use xlink:href="#mc0c4835b6f" x="277.76345" y="306.161871" style="stroke: #000000; stroke-width: 0.5"/>
      </g>
     </g>
     <g id="line2d_8">
      <g>
       <use xlink:href="#mce54c5a3a0" x="277.76345" y="20.669588" style="stroke: #000000; stroke-width: 0.5"/>
      </g>
     </g>
     <g id="text_4">
      <!-- $\mathdefault{0.08}$ -->
      <g transform="translate(263.889695 320.731459) scale(0.16 -0.16)">
       <defs>
        <path id="CMR17-38" d="M 1741 2264 
C 2144 2467 2554 2773 2554 3263 
C 2554 3841 1990 4179 1472 4179 
C 890 4179 378 3759 378 3180 
C 378 3021 416 2747 666 2505 
C 730 2442 998 2251 1171 2130 
C 883 1983 211 1634 211 934 
C 211 279 838 -128 1459 -128 
C 2144 -128 2720 362 2720 1010 
C 2720 1590 2330 1857 2074 2029 
L 1741 2264 
z
M 902 2822 
C 851 2854 595 3051 595 3351 
C 595 3739 998 4032 1459 4032 
C 1965 4032 2336 3676 2336 3262 
C 2336 2669 1670 2331 1638 2331 
C 1632 2331 1626 2331 1574 2370 
L 902 2822 
z
M 2080 1519 
C 2176 1449 2483 1240 2483 851 
C 2483 381 2010 25 1472 25 
C 890 25 448 438 448 940 
C 448 1443 838 1862 1280 2060 
L 2080 1519 
z
" transform="scale(0.015625)"/>
       </defs>
       <use xlink:href="#CMR17-30" transform="scale(0.996264)"/>
       <use xlink:href="#CMMI12-3a" transform="translate(45.690477 0) scale(0.996264)"/>
       <use xlink:href="#CMR17-30" transform="translate(72.787654 0) scale(0.996264)"/>
       <use xlink:href="#CMR17-38" transform="translate(118.478131 0) scale(0.996264)"/>
      </g>
     </g>
    </g>
    <g id="xtick_5">
     <g id="line2d_9">
      <g>
       <use xlink:href="#mc0c4835b6f" x="337.638403" y="306.161871" style="stroke: #000000; stroke-width: 0.5"/>
      </g>
     </g>
     <g id="line2d_10">
      <g>
       <use xlink:href="#mce54c5a3a0" x="337.638403" y="20.669588" style="stroke: #000000; stroke-width: 0.5"/>
      </g>
     </g>
     <g id="text_5">
      <!-- $\mathdefault{0.10}$ -->
      <g transform="translate(323.764648 320.731459) scale(0.16 -0.16)">
       <defs>
        <path id="CMR17-31" d="M 1702 4058 
C 1702 4192 1696 4192 1606 4192 
C 1357 3916 979 3827 621 3827 
C 602 3827 570 3827 563 3808 
C 557 3795 557 3782 557 3648 
C 755 3648 1088 3686 1344 3839 
L 1344 461 
C 1344 236 1331 160 781 160 
L 589 160 
L 589 0 
C 896 0 1216 0 1523 0 
C 1830 0 2150 0 2458 0 
L 2458 160 
L 2266 160 
C 1715 160 1702 230 1702 458 
L 1702 4058 
z
" transform="scale(0.015625)"/>
       </defs>
       <use xlink:href="#CMR17-30" transform="scale(0.996264)"/>
       <use xlink:href="#CMMI12-3a" transform="translate(45.690477 0) scale(0.996264)"/>
       <use xlink:href="#CMR17-31" transform="translate(72.787654 0) scale(0.996264)"/>
       <use xlink:href="#CMR17-30" transform="translate(118.478131 0) scale(0.996264)"/>
      </g>
     </g>
    </g>
    <g id="xtick_6">
     <g id="line2d_11">
      <defs>
       <path id="mbc2114c446" d="M 0 0 
L 0 -1.5 
" style="stroke: #000000; stroke-width: 0.5"/>
      </defs>
      <g>
       <use xlink:href="#mbc2114c446" x="83.169853" y="306.161871" style="stroke: #000000; stroke-width: 0.5"/>
      </g>
     </g>
     <g id="line2d_12">
      <defs>
       <path id="mb0936f86fe" d="M 0 0 
L 0 1.5 
" style="stroke: #000000; stroke-width: 0.5"/>
      </defs>
      <g>
       <use xlink:href="#mb0936f86fe" x="83.169853" y="20.669588" style="stroke: #000000; stroke-width: 0.5"/>
      </g>
     </g>
    </g>
    <g id="xtick_7">
     <g id="line2d_13">
      <g>
       <use xlink:href="#mbc2114c446" x="113.107329" y="306.161871" style="stroke: #000000; stroke-width: 0.5"/>
      </g>
     </g>
     <g id="line2d_14">
      <g>
       <use xlink:href="#mb0936f86fe" x="113.107329" y="20.669588" style="stroke: #000000; stroke-width: 0.5"/>
      </g>
     </g>
    </g>
    <g id="xtick_8">
     <g id="line2d_15">
      <g>
       <use xlink:href="#mbc2114c446" x="128.076068" y="306.161871" style="stroke: #000000; stroke-width: 0.5"/>
      </g>
     </g>
     <g id="line2d_16">
      <g>
       <use xlink:href="#mb0936f86fe" x="128.076068" y="20.669588" style="stroke: #000000; stroke-width: 0.5"/>
      </g>
     </g>
    </g>
    <g id="xtick_9">
     <g id="line2d_17">
      <g>
       <use xlink:href="#mbc2114c446" x="143.044806" y="306.161871" style="stroke: #000000; stroke-width: 0.5"/>
      </g>
     </g>
     <g id="line2d_18">
      <g>
       <use xlink:href="#mb0936f86fe" x="143.044806" y="20.669588" style="stroke: #000000; stroke-width: 0.5"/>
      </g>
     </g>
    </g>
    <g id="xtick_10">
     <g id="line2d_19">
      <g>
       <use xlink:href="#mbc2114c446" x="172.982282" y="306.161871" style="stroke: #000000; stroke-width: 0.5"/>
      </g>
     </g>
     <g id="line2d_20">
      <g>
       <use xlink:href="#mb0936f86fe" x="172.982282" y="20.669588" style="stroke: #000000; stroke-width: 0.5"/>
      </g>
     </g>
    </g>
    <g id="xtick_11">
     <g id="line2d_21">
      <g>
       <use xlink:href="#mbc2114c446" x="187.95102" y="306.161871" style="stroke: #000000; stroke-width: 0.5"/>
      </g>
     </g>
     <g id="line2d_22">
      <g>
       <use xlink:href="#mb0936f86fe" x="187.95102" y="20.669588" style="stroke: #000000; stroke-width: 0.5"/>
      </g>
     </g>
    </g>
    <g id="xtick_12">
     <g id="line2d_23">
      <g>
       <use xlink:href="#mbc2114c446" x="202.919759" y="306.161871" style="stroke: #000000; stroke-width: 0.5"/>
      </g>
     </g>
     <g id="line2d_24">
      <g>
       <use xlink:href="#mb0936f86fe" x="202.919759" y="20.669588" style="stroke: #000000; stroke-width: 0.5"/>
      </g>
     </g>
    </g>
    <g id="xtick_13">
     <g id="line2d_25">
      <g>
       <use xlink:href="#mbc2114c446" x="232.857235" y="306.161871" style="stroke: #000000; stroke-width: 0.5"/>
      </g>
     </g>
     <g id="line2d_26">
      <g>
       <use xlink:href="#mb0936f86fe" x="232.857235" y="20.669588" style="stroke: #000000; stroke-width: 0.5"/>
      </g>
     </g>
    </g>
    <g id="xtick_14">
     <g id="line2d_27">
      <g>
       <use xlink:href="#mbc2114c446" x="247.825973" y="306.161871" style="stroke: #000000; stroke-width: 0.5"/>
      </g>
     </g>
     <g id="line2d_28">
      <g>
       <use xlink:href="#mb0936f86fe" x="247.825973" y="20.669588" style="stroke: #000000; stroke-width: 0.5"/>
      </g>
     </g>
    </g>
    <g id="xtick_15">
     <g id="line2d_29">
      <g>
       <use xlink:href="#mbc2114c446" x="262.794712" y="306.161871" style="stroke: #000000; stroke-width: 0.5"/>
      </g>
     </g>
     <g id="line2d_30">
      <g>
       <use xlink:href="#mb0936f86fe" x="262.794712" y="20.669588" style="stroke: #000000; stroke-width: 0.5"/>
      </g>
     </g>
    </g>
    <g id="xtick_16">
     <g id="line2d_31">
      <g>
       <use xlink:href="#mbc2114c446" x="292.732188" y="306.161871" style="stroke: #000000; stroke-width: 0.5"/>
      </g>
     </g>
     <g id="line2d_32">
      <g>
       <use xlink:href="#mb0936f86fe" x="292.732188" y="20.669588" style="stroke: #000000; stroke-width: 0.5"/>
      </g>
     </g>
    </g>
    <g id="xtick_17">
     <g id="line2d_33">
      <g>
       <use xlink:href="#mbc2114c446" x="307.700926" y="306.161871" style="stroke: #000000; stroke-width: 0.5"/>
      </g>
     </g>
     <g id="line2d_34">
      <g>
       <use xlink:href="#mb0936f86fe" x="307.700926" y="20.669588" style="stroke: #000000; stroke-width: 0.5"/>
      </g>
     </g>
    </g>
    <g id="xtick_18">
     <g id="line2d_35">
      <g>
       <use xlink:href="#mbc2114c446" x="322.669665" y="306.161871" style="stroke: #000000; stroke-width: 0.5"/>
      </g>
     </g>
     <g id="line2d_36">
      <g>
       <use xlink:href="#mb0936f86fe" x="322.669665" y="20.669588" style="stroke: #000000; stroke-width: 0.5"/>
      </g>
     </g>
    </g>
    <g id="xtick_19">
     <g id="line2d_37">
      <g>
       <use xlink:href="#mbc2114c446" x="352.607141" y="306.161871" style="stroke: #000000; stroke-width: 0.5"/>
      </g>
     </g>
     <g id="line2d_38">
      <g>
       <use xlink:href="#mb0936f86fe" x="352.607141" y="20.669588" style="stroke: #000000; stroke-width: 0.5"/>
      </g>
     </g>
    </g>
    <g id="xtick_20">
     <g id="line2d_39">
      <g>
       <use xlink:href="#mbc2114c446" x="367.575879" y="306.161871" style="stroke: #000000; stroke-width: 0.5"/>
      </g>
     </g>
     <g id="line2d_40">
      <g>
       <use xlink:href="#mb0936f86fe" x="367.575879" y="20.669588" style="stroke: #000000; stroke-width: 0.5"/>
      </g>
     </g>
    </g>
    <g id="text_6">
     <!-- Area -->
     <g transform="translate(210.614193 338.900524) scale(0.16 -0.16)">
      <defs>
       <path id="CMR17-41" d="M 2323 4378 
C 2291 4461 2278 4480 2214 4480 
C 2150 4480 2138 4461 2106 4378 
L 749 566 
C 627 223 371 153 147 153 
L 147 -13 
C 262 0 518 0 640 0 
C 800 0 1056 0 1210 -13 
L 1210 153 
C 909 153 864 361 864 439 
C 864 497 877 530 890 569 
L 1229 1536 
L 2906 1536 
L 3290 442 
C 3322 365 3322 352 3322 327 
C 3322 153 3046 153 2925 153 
L 2925 0 
C 3110 0 3443 0 3642 0 
C 3808 0 4128 0 4282 -13 
L 4282 153 
C 3942 153 3827 153 3744 387 
L 2323 4378 
z
M 2067 3893 
L 2848 1702 
L 1286 1702 
L 2067 3893 
z
" transform="scale(0.015625)"/>
       <path id="CMR17-72" d="M 960 1497 
C 960 2112 1222 2688 1702 2688 
C 1747 2688 1792 2682 1837 2662 
C 1837 2662 1696 2617 1696 2452 
C 1696 2298 1818 2234 1914 2234 
C 1990 2234 2131 2279 2131 2458 
C 2131 2663 1926 2790 1709 2790 
C 1222 2790 1011 2317 947 2093 
L 941 2093 
L 941 2790 
L 198 2720 
L 198 2554 
C 576 2554 634 2515 634 2208 
L 634 428 
C 634 184 608 153 198 153 
L 198 -13 
C 352 0 646 0 813 0 
C 998 0 1325 0 1498 -13 
L 1498 153 
C 1037 153 960 153 960 440 
L 960 1497 
z
" transform="scale(0.015625)"/>
       <path id="CMR17-65" d="M 2438 1472 
C 2464 1498 2464 1511 2464 1576 
C 2464 2238 2118 2816 1389 2816 
C 710 2816 173 2169 173 1383 
C 173 551 781 -64 1459 -64 
C 2176 -64 2458 607 2458 740 
C 2458 784 2419 784 2406 784 
C 2362 784 2355 771 2330 696 
C 2189 265 1837 51 1504 51 
C 1229 51 954 203 781 480 
C 582 803 582 1176 582 1472 
L 2438 1472 
z
M 589 1568 
C 634 2505 1126 2714 1382 2714 
C 1818 2714 2112 2297 2118 1568 
L 589 1568 
z
" transform="scale(0.015625)"/>
       <path id="CMR17-61" d="M 2304 1653 
C 2304 2072 2304 2294 2035 2543 
C 1798 2752 1523 2816 1306 2816 
C 800 2816 435 2407 435 1971 
C 435 1728 627 1728 666 1728 
C 749 1728 896 1778 896 1954 
C 896 2112 774 2181 666 2181 
C 640 2181 608 2174 589 2168 
C 723 2592 1069 2714 1293 2714 
C 1613 2714 1965 2429 1965 1885 
L 1965 1600 
C 1587 1600 1133 1549 774 1357 
C 371 1133 256 813 256 570 
C 256 77 832 -64 1171 -64 
C 1523 -64 1850 139 1990 511 
C 2003 233 2182 -18 2464 -18 
C 2598 -18 2938 70 2938 567 
L 2938 920 
L 2822 920 
L 2822 562 
C 2822 178 2650 128 2566 128 
C 2304 128 2304 458 2304 738 
L 2304 1653 
z
M 1965 870 
C 1965 317 1568 38 1216 38 
C 896 38 646 275 646 570 
C 646 761 730 1100 1101 1305 
C 1408 1478 1760 1504 1965 1504 
L 1965 870 
z
" transform="scale(0.015625)"/>
      </defs>
      <use xlink:href="#CMR17-41" transform="scale(0.996264)"/>
      <use xlink:href="#CMR17-72" transform="translate(69.07243 0) scale(0.996264)"/>
      <use xlink:href="#CMR17-65" transform="translate(104.353198 0) scale(0.996264)"/>
      <use xlink:href="#CMR17-61" transform="translate(144.838858 0) scale(0.996264)"/>
     </g>
    </g>
   </g>
   <g id="matplotlib.axis_2">
    <g id="ytick_1">
     <g id="line2d_41">
      <defs>
       <path id="m5f317960a6" d="M 0 0 
L 3 0 
" style="stroke: #000000; stroke-width: 0.5"/>
      </defs>
      <g>
       <use xlink:href="#m5f317960a6" x="72.092987" y="256.953748" style="stroke: #000000; stroke-width: 0.5"/>
      </g>
     </g>
     <g id="line2d_42">
      <defs>
       <path id="m8c215ac38e" d="M 0 0 
L -3 0 
" style="stroke: #000000; stroke-width: 0.5"/>
      </defs>
      <g>
       <use xlink:href="#m8c215ac38e" x="381.646493" y="256.953748" style="stroke: #000000; stroke-width: 0.5"/>
      </g>
     </g>
     <g id="text_7">
      <!-- $\mathdefault{0}$ -->
      <g transform="translate(60.789 262.488542) scale(0.16 -0.16)">
       <use xlink:href="#CMR17-30" transform="scale(0.996264)"/>
      </g>
     </g>
    </g>
    <g id="ytick_2">
     <g id="line2d_43">
      <g>
       <use xlink:href="#m5f317960a6" x="72.092987" y="203.134166" style="stroke: #000000; stroke-width: 0.5"/>
      </g>
     </g>
     <g id="line2d_44">
      <g>
       <use xlink:href="#m8c215ac38e" x="381.646493" y="203.134166" style="stroke: #000000; stroke-width: 0.5"/>
      </g>
     </g>
     <g id="text_8">
      <!-- $\mathdefault{100000}$ -->
      <g transform="translate(21.769064 208.66896) scale(0.16 -0.16)">
       <use xlink:href="#CMR17-31" transform="scale(0.996264)"/>
       <use xlink:href="#CMR17-30" transform="translate(45.690477 0) scale(0.996264)"/>
       <use xlink:href="#CMR17-30" transform="translate(91.380954 0) scale(0.996264)"/>
       <use xlink:href="#CMR17-30" transform="translate(137.071431 0) scale(0.996264)"/>
       <use xlink:href="#CMR17-30" transform="translate(182.761908 0) scale(0.996264)"/>
       <use xlink:href="#CMR17-30" transform="translate(228.452386 0) scale(0.996264)"/>
      </g>
     </g>
    </g>
    <g id="ytick_3">
     <g id="line2d_45">
      <g>
       <use xlink:href="#m5f317960a6" x="72.092987" y="149.314584" style="stroke: #000000; stroke-width: 0.5"/>
      </g>
     </g>
     <g id="line2d_46">
      <g>
       <use xlink:href="#m8c215ac38e" x="381.646493" y="149.314584" style="stroke: #000000; stroke-width: 0.5"/>
      </g>
     </g>
     <g id="text_9">
      <!-- $\mathdefault{200000}$ -->
      <g transform="translate(21.769064 154.849378) scale(0.16 -0.16)">
       <use xlink:href="#CMR17-32" transform="scale(0.996264)"/>
       <use xlink:href="#CMR17-30" transform="translate(45.690477 0) scale(0.996264)"/>
       <use xlink:href="#CMR17-30" transform="translate(91.380954 0) scale(0.996264)"/>
       <use xlink:href="#CMR17-30" transform="translate(137.071431 0) scale(0.996264)"/>
       <use xlink:href="#CMR17-30" transform="translate(182.761908 0) scale(0.996264)"/>
       <use xlink:href="#CMR17-30" transform="translate(228.452386 0) scale(0.996264)"/>
      </g>
     </g>
    </g>
    <g id="ytick_4">
     <g id="line2d_47">
      <g>
       <use xlink:href="#m5f317960a6" x="72.092987" y="95.495002" style="stroke: #000000; stroke-width: 0.5"/>
      </g>
     </g>
     <g id="line2d_48">
      <g>
       <use xlink:href="#m8c215ac38e" x="381.646493" y="95.495002" style="stroke: #000000; stroke-width: 0.5"/>
      </g>
     </g>
     <g id="text_10">
      <!-- $\mathdefault{300000}$ -->
      <g transform="translate(21.769064 101.029796) scale(0.16 -0.16)">
       <defs>
        <path id="CMR17-33" d="M 1414 2157 
C 1984 2157 2234 1662 2234 1090 
C 2234 320 1824 25 1453 25 
C 1114 25 563 194 390 693 
C 422 680 454 680 486 680 
C 640 680 755 782 755 948 
C 755 1133 614 1216 486 1216 
C 378 1216 211 1165 211 926 
C 211 335 787 -128 1466 -128 
C 2176 -128 2720 430 2720 1085 
C 2720 1707 2208 2157 1600 2227 
C 2086 2328 2554 2756 2554 3329 
C 2554 3820 2048 4179 1472 4179 
C 890 4179 378 3829 378 3329 
C 378 3110 544 3072 627 3072 
C 762 3072 877 3155 877 3321 
C 877 3486 762 3569 627 3569 
C 602 3569 570 3569 544 3557 
C 730 3959 1235 4032 1459 4032 
C 1683 4032 2106 3925 2106 3320 
C 2106 3143 2080 2828 1862 2550 
C 1670 2304 1453 2304 1242 2284 
C 1210 2284 1062 2269 1037 2269 
C 992 2263 966 2257 966 2208 
C 966 2163 973 2157 1101 2157 
L 1414 2157 
z
" transform="scale(0.015625)"/>
       </defs>
       <use xlink:href="#CMR17-33" transform="scale(0.996264)"/>
       <use xlink:href="#CMR17-30" transform="translate(45.690477 0) scale(0.996264)"/>
       <use xlink:href="#CMR17-30" transform="translate(91.380954 0) scale(0.996264)"/>
       <use xlink:href="#CMR17-30" transform="translate(137.071431 0) scale(0.996264)"/>
       <use xlink:href="#CMR17-30" transform="translate(182.761908 0) scale(0.996264)"/>
       <use xlink:href="#CMR17-30" transform="translate(228.452386 0) scale(0.996264)"/>
      </g>
     </g>
    </g>
    <g id="ytick_5">
     <g id="line2d_49">
      <g>
       <use xlink:href="#m5f317960a6" x="72.092987" y="41.67542" style="stroke: #000000; stroke-width: 0.5"/>
      </g>
     </g>
     <g id="line2d_50">
      <g>
       <use xlink:href="#m8c215ac38e" x="381.646493" y="41.67542" style="stroke: #000000; stroke-width: 0.5"/>
      </g>
     </g>
     <g id="text_11">
      <!-- $\mathdefault{400000}$ -->
      <g transform="translate(21.769064 47.210214) scale(0.16 -0.16)">
       <use xlink:href="#CMR17-34" transform="scale(0.996264)"/>
       <use xlink:href="#CMR17-30" transform="translate(45.690477 0) scale(0.996264)"/>
       <use xlink:href="#CMR17-30" transform="translate(91.380954 0) scale(0.996264)"/>
       <use xlink:href="#CMR17-30" transform="translate(137.071431 0) scale(0.996264)"/>
       <use xlink:href="#CMR17-30" transform="translate(182.761908 0) scale(0.996264)"/>
       <use xlink:href="#CMR17-30" transform="translate(228.452386 0) scale(0.996264)"/>
      </g>
     </g>
    </g>
    <g id="ytick_6">
     <g id="line2d_51">
      <defs>
       <path id="m03088e4098" d="M 0 0 
L 1.5 0 
" style="stroke: #000000; stroke-width: 0.5"/>
      </defs>
      <g>
       <use xlink:href="#m03088e4098" x="72.092987" y="300.009414" style="stroke: #000000; stroke-width: 0.5"/>
      </g>
     </g>
     <g id="line2d_52">
      <defs>
       <path id="m573393740b" d="M 0 0 
L -1.5 0 
" style="stroke: #000000; stroke-width: 0.5"/>
      </defs>
      <g>
       <use xlink:href="#m573393740b" x="381.646493" y="300.009414" style="stroke: #000000; stroke-width: 0.5"/>
      </g>
     </g>
    </g>
    <g id="ytick_7">
     <g id="line2d_53">
      <g>
       <use xlink:href="#m03088e4098" x="72.092987" y="289.245497" style="stroke: #000000; stroke-width: 0.5"/>
      </g>
     </g>
     <g id="line2d_54">
      <g>
       <use xlink:href="#m573393740b" x="381.646493" y="289.245497" style="stroke: #000000; stroke-width: 0.5"/>
      </g>
     </g>
    </g>
    <g id="ytick_8">
     <g id="line2d_55">
      <g>
       <use xlink:href="#m03088e4098" x="72.092987" y="278.481581" style="stroke: #000000; stroke-width: 0.5"/>
      </g>
     </g>
     <g id="line2d_56">
      <g>
       <use xlink:href="#m573393740b" x="381.646493" y="278.481581" style="stroke: #000000; stroke-width: 0.5"/>
      </g>
     </g>
    </g>
    <g id="ytick_9">
     <g id="line2d_57">
      <g>
       <use xlink:href="#m03088e4098" x="72.092987" y="267.717665" style="stroke: #000000; stroke-width: 0.5"/>
      </g>
     </g>
     <g id="line2d_58">
      <g>
       <use xlink:href="#m573393740b" x="381.646493" y="267.717665" style="stroke: #000000; stroke-width: 0.5"/>
      </g>
     </g>
    </g>
    <g id="ytick_10">
     <g id="line2d_59">
      <g>
       <use xlink:href="#m03088e4098" x="72.092987" y="246.189832" style="stroke: #000000; stroke-width: 0.5"/>
      </g>
     </g>
     <g id="line2d_60">
      <g>
       <use xlink:href="#m573393740b" x="381.646493" y="246.189832" style="stroke: #000000; stroke-width: 0.5"/>
      </g>
     </g>
    </g>
    <g id="ytick_11">
     <g id="line2d_61">
      <g>
       <use xlink:href="#m03088e4098" x="72.092987" y="235.425915" style="stroke: #000000; stroke-width: 0.5"/>
      </g>
     </g>
     <g id="line2d_62">
      <g>
       <use xlink:href="#m573393740b" x="381.646493" y="235.425915" style="stroke: #000000; stroke-width: 0.5"/>
      </g>
     </g>
    </g>
    <g id="ytick_12">
     <g id="line2d_63">
      <g>
       <use xlink:href="#m03088e4098" x="72.092987" y="224.661999" style="stroke: #000000; stroke-width: 0.5"/>
      </g>
     </g>
     <g id="line2d_64">
      <g>
       <use xlink:href="#m573393740b" x="381.646493" y="224.661999" style="stroke: #000000; stroke-width: 0.5"/>
      </g>
     </g>
    </g>
    <g id="ytick_13">
     <g id="line2d_65">
      <g>
       <use xlink:href="#m03088e4098" x="72.092987" y="213.898083" style="stroke: #000000; stroke-width: 0.5"/>
      </g>
     </g>
     <g id="line2d_66">
      <g>
       <use xlink:href="#m573393740b" x="381.646493" y="213.898083" style="stroke: #000000; stroke-width: 0.5"/>
      </g>
     </g>
    </g>
    <g id="ytick_14">
     <g id="line2d_67">
      <g>
       <use xlink:href="#m03088e4098" x="72.092987" y="192.37025" style="stroke: #000000; stroke-width: 0.5"/>
      </g>
     </g>
     <g id="line2d_68">
      <g>
       <use xlink:href="#m573393740b" x="381.646493" y="192.37025" style="stroke: #000000; stroke-width: 0.5"/>
      </g>
     </g>
    </g>
    <g id="ytick_15">
     <g id="line2d_69">
      <g>
       <use xlink:href="#m03088e4098" x="72.092987" y="181.606333" style="stroke: #000000; stroke-width: 0.5"/>
      </g>
     </g>
     <g id="line2d_70">
      <g>
       <use xlink:href="#m573393740b" x="381.646493" y="181.606333" style="stroke: #000000; stroke-width: 0.5"/>
      </g>
     </g>
    </g>
    <g id="ytick_16">
     <g id="line2d_71">
      <g>
       <use xlink:href="#m03088e4098" x="72.092987" y="170.842417" style="stroke: #000000; stroke-width: 0.5"/>
      </g>
     </g>
     <g id="line2d_72">
      <g>
       <use xlink:href="#m573393740b" x="381.646493" y="170.842417" style="stroke: #000000; stroke-width: 0.5"/>
      </g>
     </g>
    </g>
    <g id="ytick_17">
     <g id="line2d_73">
      <g>
       <use xlink:href="#m03088e4098" x="72.092987" y="160.078501" style="stroke: #000000; stroke-width: 0.5"/>
      </g>
     </g>
     <g id="line2d_74">
      <g>
       <use xlink:href="#m573393740b" x="381.646493" y="160.078501" style="stroke: #000000; stroke-width: 0.5"/>
      </g>
     </g>
    </g>
    <g id="ytick_18">
     <g id="line2d_75">
      <g>
       <use xlink:href="#m03088e4098" x="72.092987" y="138.550668" style="stroke: #000000; stroke-width: 0.5"/>
      </g>
     </g>
     <g id="line2d_76">
      <g>
       <use xlink:href="#m573393740b" x="381.646493" y="138.550668" style="stroke: #000000; stroke-width: 0.5"/>
      </g>
     </g>
    </g>
    <g id="ytick_19">
     <g id="line2d_77">
      <g>
       <use xlink:href="#m03088e4098" x="72.092987" y="127.786751" style="stroke: #000000; stroke-width: 0.5"/>
      </g>
     </g>
     <g id="line2d_78">
      <g>
       <use xlink:href="#m573393740b" x="381.646493" y="127.786751" style="stroke: #000000; stroke-width: 0.5"/>
      </g>
     </g>
    </g>
    <g id="ytick_20">
     <g id="line2d_79">
      <g>
       <use xlink:href="#m03088e4098" x="72.092987" y="117.022835" style="stroke: #000000; stroke-width: 0.5"/>
      </g>
     </g>
     <g id="line2d_80">
      <g>
       <use xlink:href="#m573393740b" x="381.646493" y="117.022835" style="stroke: #000000; stroke-width: 0.5"/>
      </g>
     </g>
    </g>
    <g id="ytick_21">
     <g id="line2d_81">
      <g>
       <use xlink:href="#m03088e4098" x="72.092987" y="106.258919" style="stroke: #000000; stroke-width: 0.5"/>
      </g>
     </g>
     <g id="line2d_82">
      <g>
       <use xlink:href="#m573393740b" x="381.646493" y="106.258919" style="stroke: #000000; stroke-width: 0.5"/>
      </g>
     </g>
    </g>
    <g id="ytick_22">
     <g id="line2d_83">
      <g>
       <use xlink:href="#m03088e4098" x="72.092987" y="84.731086" style="stroke: #000000; stroke-width: 0.5"/>
      </g>
     </g>
     <g id="line2d_84">
      <g>
       <use xlink:href="#m573393740b" x="381.646493" y="84.731086" style="stroke: #000000; stroke-width: 0.5"/>
      </g>
     </g>
    </g>
    <g id="ytick_23">
     <g id="line2d_85">
      <g>
       <use xlink:href="#m03088e4098" x="72.092987" y="73.967169" style="stroke: #000000; stroke-width: 0.5"/>
      </g>
     </g>
     <g id="line2d_86">
      <g>
       <use xlink:href="#m573393740b" x="381.646493" y="73.967169" style="stroke: #000000; stroke-width: 0.5"/>
      </g>
     </g>
    </g>
    <g id="ytick_24">
     <g id="line2d_87">
      <g>
       <use xlink:href="#m03088e4098" x="72.092987" y="63.203253" style="stroke: #000000; stroke-width: 0.5"/>
      </g>
     </g>
     <g id="line2d_88">
      <g>
       <use xlink:href="#m573393740b" x="381.646493" y="63.203253" style="stroke: #000000; stroke-width: 0.5"/>
      </g>
     </g>
    </g>
    <g id="ytick_25">
     <g id="line2d_89">
      <g>
       <use xlink:href="#m03088e4098" x="72.092987" y="52.439337" style="stroke: #000000; stroke-width: 0.5"/>
      </g>
     </g>
     <g id="line2d_90">
      <g>
       <use xlink:href="#m573393740b" x="381.646493" y="52.439337" style="stroke: #000000; stroke-width: 0.5"/>
      </g>
     </g>
    </g>
    <g id="ytick_26">
     <g id="line2d_91">
      <g>
       <use xlink:href="#m03088e4098" x="72.092987" y="30.911504" style="stroke: #000000; stroke-width: 0.5"/>
      </g>
     </g>
     <g id="line2d_92">
      <g>
       <use xlink:href="#m573393740b" x="381.646493" y="30.911504" style="stroke: #000000; stroke-width: 0.5"/>
      </g>
     </g>
    </g>
    <g id="text_12">
     <!-- Population -->
     <g transform="translate(14.669588 200.591681) rotate(-90) scale(0.16 -0.16)">
      <defs>
       <path id="CMR17-50" d="M 1267 2042 
L 2291 2042 
C 3117 2042 3718 2578 3718 3184 
C 3718 3791 3130 4352 2291 4352 
L 333 4352 
L 333 4186 
C 774 4186 845 4186 845 3899 
L 845 446 
C 845 160 774 160 333 160 
L 333 0 
C 518 0 858 0 1056 0 
C 1254 0 1594 0 1779 0 
L 1779 160 
C 1338 160 1267 160 1267 446 
L 1267 2042 
z
M 1254 2176 
L 1254 3938 
C 1254 4155 1267 4186 1523 4186 
L 2170 4186 
C 2995 4186 3232 3714 3232 3184 
C 3232 2604 2950 2176 2170 2176 
L 1254 2176 
z
" transform="scale(0.015625)"/>
       <path id="CMR17-6f" d="M 2758 1356 
C 2758 2176 2163 2816 1466 2816 
C 768 2816 173 2176 173 1356 
C 173 551 768 -64 1466 -64 
C 2163 -64 2758 551 2758 1356 
z
M 1466 51 
C 1165 51 909 230 762 480 
C 602 767 582 1126 582 1408 
C 582 1677 595 2010 762 2298 
C 890 2509 1139 2714 1466 2714 
C 1754 2714 1997 2554 2150 2330 
C 2349 2029 2349 1607 2349 1408 
C 2349 1158 2336 775 2163 467 
C 1984 173 1709 51 1466 51 
z
" transform="scale(0.015625)"/>
       <path id="CMR17-70" d="M 1408 -1063 
C 998 -1063 973 -1037 973 -789 
L 973 402 
C 1158 134 1427 -38 1766 -38 
C 2406 -38 3053 523 3053 1388 
C 3053 2191 2496 2802 1837 2802 
C 1453 2802 1139 2592 960 2338 
L 960 2802 
L 198 2732 
L 198 2567 
C 576 2567 634 2528 634 2223 
L 634 -789 
C 634 -1031 608 -1063 198 -1063 
L 198 -1228 
C 352 -1216 634 -1216 800 -1216 
C 966 -1216 1254 -1216 1408 -1228 
L 1408 -1063 
z
M 973 2012 
C 973 2102 973 2235 1222 2471 
C 1254 2497 1472 2688 1792 2688 
C 2259 2688 2643 2108 2643 1382 
C 2643 656 2234 64 1728 64 
C 1498 64 1248 172 1056 472 
C 973 612 973 650 973 752 
L 973 2012 
z
" transform="scale(0.015625)"/>
       <path id="CMR17-75" d="M 1882 2693 
L 1882 2528 
C 2259 2528 2317 2489 2317 2186 
L 2317 1032 
C 2317 500 2029 38 1555 38 
C 1030 38 986 348 986 678 
L 986 2763 
L 211 2693 
L 211 2528 
C 467 2528 640 2528 646 2274 
L 646 1058 
C 646 633 646 361 813 183 
C 896 101 1056 -64 1517 -64 
C 2061 -64 2272 377 2323 506 
L 2330 506 
L 2330 -63 
L 3091 -63 
L 3091 128 
C 2714 128 2656 166 2656 473 
L 2656 2763 
L 1882 2693 
z
" transform="scale(0.015625)"/>
       <path id="CMR17-6c" d="M 979 4396 
L 218 4326 
L 218 4160 
C 595 4160 653 4122 653 3817 
L 653 426 
C 653 184 627 153 218 153 
L 218 -13 
C 371 0 653 0 813 0 
C 979 0 1261 0 1414 -13 
L 1414 153 
C 1005 153 979 178 979 426 
L 979 4396 
z
" transform="scale(0.015625)"/>
       <path id="CMR17-74" d="M 966 2560 
L 1862 2560 
L 1862 2725 
L 966 2725 
L 966 3904 
L 851 3904 
C 838 3245 614 2668 70 2668 
L 70 2560 
L 627 2560 
L 627 771 
C 627 650 627 -64 1370 -64 
C 1747 -64 1965 306 1965 777 
L 1965 1140 
L 1850 1140 
L 1850 783 
C 1850 344 1677 51 1408 51 
C 1222 51 966 178 966 758 
L 966 2560 
z
" transform="scale(0.015625)"/>
       <path id="CMR17-69" d="M 992 3909 
C 992 4049 877 4170 730 4170 
C 589 4170 467 4056 467 3909 
C 467 3769 582 3648 730 3648 
C 870 3648 992 3763 992 3909 
z
M 243 2706 
L 243 2541 
C 602 2541 653 2502 653 2197 
L 653 427 
C 653 184 627 153 218 153 
L 218 -13 
C 371 0 646 0 806 0 
C 960 0 1222 0 1370 -13 
L 1370 153 
C 992 153 979 191 979 420 
L 979 2776 
L 243 2706 
z
" transform="scale(0.015625)"/>
       <path id="CMR17-6e" d="M 2656 1933 
C 2656 2259 2592 2790 1837 2790 
C 1331 2790 1069 2400 973 2144 
L 966 2144 
L 966 2790 
L 211 2720 
L 211 2554 
C 589 2554 646 2515 646 2208 
L 646 428 
C 646 184 621 153 211 153 
L 211 -13 
C 365 0 646 0 813 0 
C 979 0 1267 0 1421 -13 
L 1421 153 
C 1011 153 986 178 986 428 
L 986 1658 
C 986 2247 1344 2688 1792 2688 
C 2266 2688 2317 2266 2317 1958 
L 2317 428 
C 2317 184 2291 153 1882 153 
L 1882 -13 
C 2035 0 2317 0 2483 0 
C 2650 0 2938 0 3091 -13 
L 3091 153 
C 2682 153 2656 178 2656 428 
L 2656 1933 
z
" transform="scale(0.015625)"/>
      </defs>
      <use xlink:href="#CMR17-50" transform="scale(0.996264)"/>
      <use xlink:href="#CMR17-6f" transform="translate(59.983847 0) scale(0.996264)"/>
      <use xlink:href="#CMR17-70" transform="translate(105.674324 0) scale(0.996264)"/>
      <use xlink:href="#CMR17-75" transform="translate(156.569693 0) scale(0.996264)"/>
      <use xlink:href="#CMR17-6c" transform="translate(207.465063 0) scale(0.996264)"/>
      <use xlink:href="#CMR17-61" transform="translate(232.336122 0) scale(0.996264)"/>
      <use xlink:href="#CMR17-74" transform="translate(278.026599 0) scale(0.996264)"/>
      <use xlink:href="#CMR17-69" transform="translate(313.307367 0) scale(0.996264)"/>
      <use xlink:href="#CMR17-6f" transform="translate(338.178425 0) scale(0.996264)"/>
      <use xlink:href="#CMR17-6e" transform="translate(383.868902 0) scale(0.996264)"/>
     </g>
    </g>
   </g>
   <g id="line2d_93">
    <path d="M 86.1636 241.668413 
L 87.040557 241.541166 
L 87.917513 241.41392 
L 88.79447 241.286673 
L 89.671426 241.159427 
L 90.548382 241.03218 
L 91.425339 240.904934 
L 92.302295 240.777687 
L 93.179252 240.65044 
L 94.056208 240.523194 
L 94.933164 240.395947 
L 95.810121 240.268701 
L 96.687077 240.141454 
L 97.564033 240.014207 
L 98.44099 239.886961 
L 99.317946 239.759714 
L 100.194903 239.632468 
L 101.071859 239.505221 
L 101.948815 239.377975 
L 102.825772 239.250728 
L 103.702728 239.123481 
L 104.579684 238.996235 
L 105.456641 238.868988 
L 106.333597 238.741742 
L 107.210554 238.614495 
L 108.08751 238.487248 
L 108.964466 238.360002 
L 109.841423 238.232755 
L 110.718379 238.105509 
L 111.595336 237.978262 
L 112.472292 237.851016 
L 113.349248 237.723769 
L 114.226205 237.596522 
L 115.103161 237.469276 
L 115.980117 237.342029 
L 116.857074 237.214783 
L 117.73403 237.087536 
L 118.610987 236.960289 
L 119.487943 236.833043 
L 120.364899 236.705796 
L 121.241856 236.57855 
L 122.118812 236.451303 
L 122.995768 236.324057 
L 123.872725 236.19681 
L 124.749681 236.069563 
L 125.626638 235.942317 
L 126.503594 235.81507 
L 127.38055 235.687824 
L 128.257507 235.560577 
L 129.134463 235.43333 
L 130.01142 235.306084 
L 130.888376 235.178837 
L 131.765332 235.051591 
L 132.642289 234.924344 
L 133.519245 234.797098 
L 134.396201 234.669851 
L 135.273158 234.542604 
L 136.150114 234.415358 
L 137.027071 234.288111 
L 137.904027 234.160865 
L 138.780983 234.033618 
L 139.65794 233.906372 
L 140.534896 233.779125 
L 141.411852 233.651878 
L 142.288809 233.524632 
L 143.165765 233.397385 
L 144.042722 233.270139 
L 144.919678 233.142892 
L 145.796634 233.015645 
L 146.673591 232.888399 
L 147.550547 232.761152 
L 148.427504 232.633906 
L 149.30446 232.506659 
L 150.181416 232.379413 
L 151.058373 232.252166 
L 151.935329 232.124919 
L 152.812285 231.997673 
L 153.689242 231.870426 
L 154.566198 231.74318 
L 155.443155 231.615933 
L 156.320111 231.488686 
L 157.197067 231.36144 
L 158.074024 231.234193 
L 158.95098 231.106947 
L 159.827937 230.9797 
L 160.704893 230.852454 
L 161.581849 230.725207 
L 162.458806 230.59796 
L 163.335762 230.470714 
L 164.212718 230.343467 
L 165.089675 230.216221 
L 165.966631 230.088974 
L 166.843588 229.961727 
L 167.720544 229.834481 
L 168.5975 229.707234 
L 169.474457 229.579988 
L 170.351413 229.452741 
L 171.228369 229.325495 
L 172.105326 229.198248 
L 172.982282 229.071001 
" clip-path="url(#pe77b9fa5a9)" style="fill: none; stroke: #0c5da5; stroke-width: 1.5; stroke-linecap: square"/>
   </g>
   <g id="patch_3">
    <path d="M 72.092987 306.161871 
L 72.092987 20.669588 
" style="fill: none; stroke: #000000; stroke-width: 0.5; stroke-linejoin: miter; stroke-linecap: square"/>
   </g>
   <g id="patch_4">
    <path d="M 72.092987 306.161871 
L 381.646493 306.161871 
" style="fill: none; stroke: #000000; stroke-width: 0.5; stroke-linejoin: miter; stroke-linecap: square"/>
   </g>
   <g id="text_13">
    <!-- category = ALU -->
    <g transform="translate(170.189339 14.669588) scale(0.16 -0.16)">
     <defs>
      <path id="CMR17-63" d="M 2234 2240 
C 2112 2240 1933 2240 1933 2017 
C 1933 1838 2080 1787 2163 1787 
C 2208 1787 2394 1807 2394 2024 
C 2394 2467 1958 2803 1466 2803 
C 787 2803 211 2178 211 1363 
C 211 516 813 -64 1466 -64 
C 2259 -64 2458 677 2458 748 
C 2458 774 2451 793 2406 793 
C 2362 793 2355 787 2330 703 
C 2163 180 1798 51 1523 51 
C 1114 51 621 427 621 1369 
C 621 2338 1094 2688 1472 2688 
C 1722 2688 2093 2573 2234 2240 
z
" transform="scale(0.015625)"/>
      <path id="CMR17-67" d="M 710 1164 
C 832 1068 1043 960 1299 960 
C 1805 960 2240 1357 2240 1888 
C 2240 2054 2189 2310 1997 2509 
C 2176 2692 2438 2752 2586 2752 
C 2611 2752 2650 2752 2682 2734 
C 2656 2728 2598 2703 2598 2605 
C 2598 2527 2656 2471 2739 2471 
C 2835 2471 2886 2533 2886 2614 
C 2886 2731 2790 2854 2586 2854 
C 2330 2854 2106 2738 1926 2580 
C 1734 2753 1504 2816 1299 2816 
C 794 2816 358 2419 358 1888 
C 358 1522 570 1292 634 1228 
C 442 1004 442 743 442 711 
C 442 545 506 302 723 168 
C 390 85 128 -169 128 -486 
C 128 -943 736 -1280 1466 -1280 
C 2170 -1280 2803 -956 2803 -479 
C 2803 384 1856 384 1363 384 
C 1216 384 954 384 922 391 
C 723 423 589 602 589 826 
C 589 883 589 1024 710 1164 
z
M 1299 1068 
C 736 1068 736 1760 736 1889 
C 736 2016 736 2708 1299 2708 
C 1862 2708 1862 2016 1862 1889 
C 1862 1760 1862 1068 1299 1068 
z
M 1466 -1171 
C 826 -1171 384 -835 384 -486 
C 384 -289 493 -105 634 -4 
C 794 104 858 104 1293 104 
C 1818 104 2547 104 2547 -486 
C 2547 -835 2106 -1171 1466 -1171 
z
" transform="scale(0.015625)"/>
      <path id="CMR17-79" d="M 2496 2197 
C 2656 2586 2944 2586 3034 2586 
L 3034 2752 
C 2912 2752 2752 2752 2630 2752 
C 2496 2752 2285 2752 2157 2758 
L 2157 2592 
C 2400 2573 2406 2394 2406 2343 
C 2406 2280 2394 2248 2362 2171 
L 1664 449 
L 902 2306 
C 870 2382 870 2426 870 2433 
C 870 2573 1018 2586 1171 2586 
L 1171 2758 
C 1018 2752 742 2752 582 2752 
C 410 2752 205 2752 64 2758 
L 64 2586 
C 410 2586 448 2554 531 2350 
L 1485 15 
C 1197 -738 1030 -1178 627 -1178 
C 557 -1178 397 -1159 282 -1044 
C 429 -1031 493 -942 493 -833 
C 493 -725 416 -629 288 -629 
C 147 -629 77 -725 77 -840 
C 77 -1095 339 -1280 627 -1280 
C 998 -1280 1229 -922 1357 -604 
L 2496 2197 
z
" transform="scale(0.015625)"/>
      <path id="CMR17-3d" d="M 4115 2017 
C 4211 2017 4307 2017 4307 2125 
C 4307 2240 4198 2240 4090 2240 
L 512 2240 
C 403 2240 294 2240 294 2125 
C 294 2017 390 2017 486 2017 
L 4115 2017 
z
M 4090 896 
C 4198 896 4307 896 4307 1011 
C 4307 1119 4211 1119 4115 1119 
L 486 1119 
C 390 1119 294 1119 294 1011 
C 294 896 403 896 512 896 
L 4090 896 
z
" transform="scale(0.015625)"/>
      <path id="CMR17-4c" d="M 3469 1615 
L 3354 1615 
C 3302 983 3219 166 2125 166 
L 1530 166 
C 1274 166 1261 197 1261 414 
L 1261 3898 
C 1261 4129 1274 4192 1760 4192 
L 1901 4192 
L 1901 4352 
C 1638 4352 1331 4352 1069 4352 
C 870 4352 512 4352 326 4352 
L 326 4192 
C 768 4192 838 4192 838 3905 
L 838 452 
C 838 166 768 166 326 166 
L 326 0 
L 3315 0 
L 3469 1615 
z
" transform="scale(0.015625)"/>
      <path id="CMR17-55" d="M 3456 1433 
C 3456 579 2899 38 2291 38 
C 1965 38 1670 210 1491 477 
C 1286 783 1261 1178 1261 1401 
L 1261 3874 
C 1261 4160 1331 4160 1773 4160 
L 1773 4320 
C 1587 4320 1248 4320 1050 4320 
C 851 4320 512 4320 326 4320 
L 326 4160 
C 768 4160 838 4160 838 3874 
L 838 1433 
C 838 516 1536 -128 2278 -128 
C 3110 -128 3590 719 3590 1344 
L 3590 3766 
C 3590 4122 3917 4160 4102 4160 
L 4102 4326 
C 3955 4320 3686 4320 3526 4320 
C 3366 4320 3091 4320 2944 4326 
L 2944 4160 
C 3456 4160 3456 3861 3456 3702 
L 3456 1433 
z
" transform="scale(0.015625)"/>
     </defs>
     <use xlink:href="#CMR17-63" transform="scale(0.996264)"/>
     <use xlink:href="#CMR17-61" transform="translate(40.48566 0) scale(0.996264)"/>
     <use xlink:href="#CMR17-74" transform="translate(86.176138 0) scale(0.996264)"/>
     <use xlink:href="#CMR17-65" transform="translate(121.456905 0) scale(0.996264)"/>
     <use xlink:href="#CMR17-67" transform="translate(161.942566 0) scale(0.996264)"/>
     <use xlink:href="#CMR17-6f" transform="translate(207.633043 0) scale(0.996264)"/>
     <use xlink:href="#CMR17-72" transform="translate(253.32352 0) scale(0.996264)"/>
     <use xlink:href="#CMR17-79" transform="translate(288.604288 0) scale(0.996264)"/>
     <use xlink:href="#CMR17-3d" transform="translate(366.97317 0) scale(0.996264)"/>
     <use xlink:href="#CMR17-41" transform="translate(468.763925 0) scale(0.996264)"/>
     <use xlink:href="#CMR17-4c" transform="translate(537.836355 0) scale(0.996264)"/>
     <use xlink:href="#CMR17-55" transform="translate(595.217762 0) scale(0.996264)"/>
    </g>
   </g>
  </g>
  <g id="axes_2">
   <g id="patch_5">
    <path d="M 392.446493 306.161871 
L 702 306.161871 
L 702 20.669588 
L 392.446493 20.669588 
z
" style="fill: #ffffff"/>
   </g>
   <g id="PathCollection_2">
    <g clip-path="url(#p73afe4da1b)">
     <use xlink:href="#mbf33323a9b" x="448.429574" y="238.420437" style="fill: #a1c0ff; fill-opacity: 0.8; stroke: #000000; stroke-opacity: 0.8; stroke-width: 0.7"/>
     <use xlink:href="#mbf33323a9b" x="439.448331" y="243.477325" style="fill: #a1c0ff; fill-opacity: 0.8; stroke: #000000; stroke-opacity: 0.8; stroke-width: 0.7"/>
     <use xlink:href="#mbf33323a9b" x="448.429574" y="222.362288" style="fill: #a1c0ff; fill-opacity: 0.8; stroke: #000000; stroke-opacity: 0.8; stroke-width: 0.7"/>
     <use xlink:href="#mbf33323a9b" x="421.485845" y="248.058986" style="fill: #a1c0ff; fill-opacity: 0.8; stroke: #000000; stroke-opacity: 0.8; stroke-width: 0.7"/>
     <use xlink:href="#mbf33323a9b" x="687.929386" y="218.802661" style="fill: #a1c0ff; fill-opacity: 0.8; stroke: #000000; stroke-opacity: 0.8; stroke-width: 0.7"/>
     <use xlink:href="#mbf33323a9b" x="496.329537" y="246.109102" style="fill: #a1c0ff; fill-opacity: 0.8; stroke: #000000; stroke-opacity: 0.8; stroke-width: 0.7"/>
    </g>
   </g>
   <g id="PolyCollection_2">
    <path d="M 421.485845 226.036491 
L 421.485845 252.365176 
L 424.177194 251.055719 
L 426.868543 250.257834 
L 429.559892 249.944483 
L 432.251241 249.631581 
L 434.94259 249.301546 
L 437.633939 248.315843 
L 440.325288 248.010281 
L 443.016637 247.704718 
L 445.707985 247.399156 
L 448.399334 247.093594 
L 451.090683 246.788032 
L 453.782032 246.482469 
L 456.473381 246.176907 
L 459.16473 245.871345 
L 461.856079 245.565782 
L 464.547428 245.554033 
L 467.238777 245.523465 
L 469.930126 245.371966 
L 472.621474 245.235856 
L 475.312823 245.139485 
L 478.004172 245.064952 
L 480.695521 245.016595 
L 483.38687 244.810763 
L 486.078219 244.807668 
L 488.769568 244.896774 
L 491.460917 244.881668 
L 494.152266 245.321668 
L 496.843614 245.795387 
L 499.534963 246.027788 
L 502.226312 246.385361 
L 504.917661 247.062776 
L 507.60901 247.741043 
L 510.300359 248.322232 
L 512.991708 248.861011 
L 515.683057 249.399791 
L 518.374406 249.938571 
L 521.065755 250.477351 
L 523.757103 251.016131 
L 526.448452 251.55491 
L 529.139801 252.09369 
L 531.83115 252.63247 
L 534.522499 253.243123 
L 537.213848 253.943882 
L 539.905197 254.644641 
L 542.596546 255.3454 
L 545.287895 256.046158 
L 547.979244 256.746917 
L 550.670592 257.447676 
L 553.361941 258.148435 
L 556.05329 258.849194 
L 558.744639 259.549953 
L 561.435988 260.250711 
L 564.127337 260.95147 
L 566.818686 261.652229 
L 569.510035 262.352988 
L 572.201384 263.053747 
L 574.892732 263.754506 
L 577.584081 264.455264 
L 580.27543 265.156023 
L 582.966779 265.856782 
L 585.658128 266.557541 
L 588.349477 267.2583 
L 591.040826 267.959059 
L 593.732175 268.659817 
L 596.423524 269.360576 
L 599.114873 270.061335 
L 601.806221 270.762094 
L 604.49757 271.462853 
L 607.188919 272.163612 
L 609.880268 272.86437 
L 612.571617 273.565129 
L 615.262966 274.265888 
L 617.954315 274.966647 
L 620.645664 275.667406 
L 623.337013 276.368165 
L 626.028361 277.068923 
L 628.71971 277.769682 
L 631.411059 278.470441 
L 634.102408 279.1712 
L 636.793757 279.871959 
L 639.485106 280.572718 
L 642.176455 281.273476 
L 644.867804 281.974235 
L 647.559153 282.674994 
L 650.250502 283.375753 
L 652.94185 284.076512 
L 655.633199 284.777271 
L 658.324548 285.47803 
L 661.015897 286.178788 
L 663.707246 286.879547 
L 666.398595 287.580306 
L 669.089944 288.281065 
L 671.781293 288.981824 
L 674.472642 289.682583 
L 677.16399 290.383341 
L 679.855339 291.0841 
L 682.546688 291.784859 
L 685.238037 292.485618 
L 687.929386 293.184949 
L 687.929386 33.64651 
L 687.929386 33.64651 
L 685.238037 35.812293 
L 682.546688 37.978075 
L 679.855339 40.143858 
L 677.16399 42.309641 
L 674.472642 44.475423 
L 671.781293 46.641206 
L 669.089944 48.806988 
L 666.398595 50.972771 
L 663.707246 53.138553 
L 661.015897 55.304336 
L 658.324548 57.470119 
L 655.633199 59.635901 
L 652.94185 61.801684 
L 650.250502 63.967466 
L 647.559153 66.133249 
L 644.867804 68.299032 
L 642.176455 70.464814 
L 639.485106 72.630597 
L 636.793757 74.796379 
L 634.102408 76.962162 
L 631.411059 79.127944 
L 628.71971 81.293727 
L 626.028361 83.45951 
L 623.337013 85.625292 
L 620.645664 87.791075 
L 617.954315 89.956857 
L 615.262966 92.12264 
L 612.571617 94.288423 
L 609.880268 96.454205 
L 607.188919 98.619988 
L 604.49757 100.78577 
L 601.806221 102.951553 
L 599.114873 105.117335 
L 596.423524 107.283118 
L 593.732175 109.448901 
L 591.040826 111.614683 
L 588.349477 113.780466 
L 585.658128 115.946248 
L 582.966779 118.112031 
L 580.27543 120.277814 
L 577.584081 122.443596 
L 574.892732 124.609379 
L 572.201384 126.775161 
L 569.510035 128.940944 
L 566.818686 131.106726 
L 564.127337 133.272509 
L 561.435988 135.438292 
L 558.744639 137.604074 
L 556.05329 139.769857 
L 553.361941 141.935639 
L 550.670592 144.101422 
L 547.979244 146.267205 
L 545.287895 148.432987 
L 542.596546 150.59877 
L 539.905197 152.764552 
L 537.213848 154.930335 
L 534.522499 157.096117 
L 531.83115 159.2619 
L 529.139801 161.427683 
L 526.448452 163.593465 
L 523.757103 165.859051 
L 521.065755 168.336823 
L 518.374406 170.814594 
L 515.683057 173.292365 
L 512.991708 175.770136 
L 510.300359 178.247908 
L 507.60901 180.725679 
L 504.917661 183.20345 
L 502.226312 185.681222 
L 499.534963 188.158993 
L 496.843614 190.636764 
L 494.152266 193.114535 
L 491.460917 195.583099 
L 488.769568 197.900427 
L 486.078219 200.060541 
L 483.38687 202.220656 
L 480.695521 204.38077 
L 478.004172 206.540885 
L 475.312823 208.700999 
L 472.621474 210.861114 
L 469.930126 213.021228 
L 467.238777 215.181343 
L 464.547428 217.213321 
L 461.856079 219.141175 
L 459.16473 221.069029 
L 456.473381 222.229549 
L 453.782032 224.924737 
L 451.090683 226.287828 
L 448.399334 227.700772 
L 445.707985 228.056135 
L 443.016637 228.598131 
L 440.325288 228.056227 
L 437.633939 228.054436 
L 434.94259 227.315046 
L 432.251241 226.888464 
L 429.559892 226.967218 
L 426.868543 227.051204 
L 424.177194 226.708507 
L 421.485845 226.036491 
z
" clip-path="url(#p73afe4da1b)" style="fill: #0c5da5; fill-opacity: 0.15"/>
   </g>
   <g id="matplotlib.axis_3">
    <g id="xtick_21">
     <g id="line2d_94">
      <g>
       <use xlink:href="#mc0c4835b6f" x="418.492098" y="306.161871" style="stroke: #000000; stroke-width: 0.5"/>
      </g>
     </g>
     <g id="line2d_95">
      <g>
       <use xlink:href="#mce54c5a3a0" x="418.492098" y="20.669588" style="stroke: #000000; stroke-width: 0.5"/>
      </g>
     </g>
     <g id="text_14">
      <!-- $\mathdefault{0.02}$ -->
      <g transform="translate(404.618343 320.731459) scale(0.16 -0.16)">
       <use xlink:href="#CMR17-30" transform="scale(0.996264)"/>
       <use xlink:href="#CMMI12-3a" transform="translate(45.690477 0) scale(0.996264)"/>
       <use xlink:href="#CMR17-30" transform="translate(72.787654 0) scale(0.996264)"/>
       <use xlink:href="#CMR17-32" transform="translate(118.478131 0) scale(0.996264)"/>
      </g>
     </g>
    </g>
    <g id="xtick_22">
     <g id="line2d_96">
      <g>
       <use xlink:href="#mc0c4835b6f" x="478.367051" y="306.161871" style="stroke: #000000; stroke-width: 0.5"/>
      </g>
     </g>
     <g id="line2d_97">
      <g>
       <use xlink:href="#mce54c5a3a0" x="478.367051" y="20.669588" style="stroke: #000000; stroke-width: 0.5"/>
      </g>
     </g>
     <g id="text_15">
      <!-- $\mathdefault{0.04}$ -->
      <g transform="translate(464.493296 320.731459) scale(0.16 -0.16)">
       <use xlink:href="#CMR17-30" transform="scale(0.996264)"/>
       <use xlink:href="#CMMI12-3a" transform="translate(45.690477 0) scale(0.996264)"/>
       <use xlink:href="#CMR17-30" transform="translate(72.787654 0) scale(0.996264)"/>
       <use xlink:href="#CMR17-34" transform="translate(118.478131 0) scale(0.996264)"/>
      </g>
     </g>
    </g>
    <g id="xtick_23">
     <g id="line2d_98">
      <g>
       <use xlink:href="#mc0c4835b6f" x="538.242004" y="306.161871" style="stroke: #000000; stroke-width: 0.5"/>
      </g>
     </g>
     <g id="line2d_99">
      <g>
       <use xlink:href="#mce54c5a3a0" x="538.242004" y="20.669588" style="stroke: #000000; stroke-width: 0.5"/>
      </g>
     </g>
     <g id="text_16">
      <!-- $\mathdefault{0.06}$ -->
      <g transform="translate(524.368249 320.731459) scale(0.16 -0.16)">
       <use xlink:href="#CMR17-30" transform="scale(0.996264)"/>
       <use xlink:href="#CMMI12-3a" transform="translate(45.690477 0) scale(0.996264)"/>
       <use xlink:href="#CMR17-30" transform="translate(72.787654 0) scale(0.996264)"/>
       <use xlink:href="#CMR17-36" transform="translate(118.478131 0) scale(0.996264)"/>
      </g>
     </g>
    </g>
    <g id="xtick_24">
     <g id="line2d_100">
      <g>
       <use xlink:href="#mc0c4835b6f" x="598.116957" y="306.161871" style="stroke: #000000; stroke-width: 0.5"/>
      </g>
     </g>
     <g id="line2d_101">
      <g>
       <use xlink:href="#mce54c5a3a0" x="598.116957" y="20.669588" style="stroke: #000000; stroke-width: 0.5"/>
      </g>
     </g>
     <g id="text_17">
      <!-- $\mathdefault{0.08}$ -->
      <g transform="translate(584.243202 320.731459) scale(0.16 -0.16)">
       <use xlink:href="#CMR17-30" transform="scale(0.996264)"/>
       <use xlink:href="#CMMI12-3a" transform="translate(45.690477 0) scale(0.996264)"/>
       <use xlink:href="#CMR17-30" transform="translate(72.787654 0) scale(0.996264)"/>
       <use xlink:href="#CMR17-38" transform="translate(118.478131 0) scale(0.996264)"/>
      </g>
     </g>
    </g>
    <g id="xtick_25">
     <g id="line2d_102">
      <g>
       <use xlink:href="#mc0c4835b6f" x="657.99191" y="306.161871" style="stroke: #000000; stroke-width: 0.5"/>
      </g>
     </g>
     <g id="line2d_103">
      <g>
       <use xlink:href="#mce54c5a3a0" x="657.99191" y="20.669588" style="stroke: #000000; stroke-width: 0.5"/>
      </g>
     </g>
     <g id="text_18">
      <!-- $\mathdefault{0.10}$ -->
      <g transform="translate(644.118155 320.731459) scale(0.16 -0.16)">
       <use xlink:href="#CMR17-30" transform="scale(0.996264)"/>
       <use xlink:href="#CMMI12-3a" transform="translate(45.690477 0) scale(0.996264)"/>
       <use xlink:href="#CMR17-31" transform="translate(72.787654 0) scale(0.996264)"/>
       <use xlink:href="#CMR17-30" transform="translate(118.478131 0) scale(0.996264)"/>
      </g>
     </g>
    </g>
    <g id="xtick_26">
     <g id="line2d_104">
      <g>
       <use xlink:href="#mbc2114c446" x="403.52336" y="306.161871" style="stroke: #000000; stroke-width: 0.5"/>
      </g>
     </g>
     <g id="line2d_105">
      <g>
       <use xlink:href="#mb0936f86fe" x="403.52336" y="20.669588" style="stroke: #000000; stroke-width: 0.5"/>
      </g>
     </g>
    </g>
    <g id="xtick_27">
     <g id="line2d_106">
      <g>
       <use xlink:href="#mbc2114c446" x="433.460836" y="306.161871" style="stroke: #000000; stroke-width: 0.5"/>
      </g>
     </g>
     <g id="line2d_107">
      <g>
       <use xlink:href="#mb0936f86fe" x="433.460836" y="20.669588" style="stroke: #000000; stroke-width: 0.5"/>
      </g>
     </g>
    </g>
    <g id="xtick_28">
     <g id="line2d_108">
      <g>
       <use xlink:href="#mbc2114c446" x="448.429574" y="306.161871" style="stroke: #000000; stroke-width: 0.5"/>
      </g>
     </g>
     <g id="line2d_109">
      <g>
       <use xlink:href="#mb0936f86fe" x="448.429574" y="20.669588" style="stroke: #000000; stroke-width: 0.5"/>
      </g>
     </g>
    </g>
    <g id="xtick_29">
     <g id="line2d_110">
      <g>
       <use xlink:href="#mbc2114c446" x="463.398312" y="306.161871" style="stroke: #000000; stroke-width: 0.5"/>
      </g>
     </g>
     <g id="line2d_111">
      <g>
       <use xlink:href="#mb0936f86fe" x="463.398312" y="20.669588" style="stroke: #000000; stroke-width: 0.5"/>
      </g>
     </g>
    </g>
    <g id="xtick_30">
     <g id="line2d_112">
      <g>
       <use xlink:href="#mbc2114c446" x="493.335789" y="306.161871" style="stroke: #000000; stroke-width: 0.5"/>
      </g>
     </g>
     <g id="line2d_113">
      <g>
       <use xlink:href="#mb0936f86fe" x="493.335789" y="20.669588" style="stroke: #000000; stroke-width: 0.5"/>
      </g>
     </g>
    </g>
    <g id="xtick_31">
     <g id="line2d_114">
      <g>
       <use xlink:href="#mbc2114c446" x="508.304527" y="306.161871" style="stroke: #000000; stroke-width: 0.5"/>
      </g>
     </g>
     <g id="line2d_115">
      <g>
       <use xlink:href="#mb0936f86fe" x="508.304527" y="20.669588" style="stroke: #000000; stroke-width: 0.5"/>
      </g>
     </g>
    </g>
    <g id="xtick_32">
     <g id="line2d_116">
      <g>
       <use xlink:href="#mbc2114c446" x="523.273265" y="306.161871" style="stroke: #000000; stroke-width: 0.5"/>
      </g>
     </g>
     <g id="line2d_117">
      <g>
       <use xlink:href="#mb0936f86fe" x="523.273265" y="20.669588" style="stroke: #000000; stroke-width: 0.5"/>
      </g>
     </g>
    </g>
    <g id="xtick_33">
     <g id="line2d_118">
      <g>
       <use xlink:href="#mbc2114c446" x="553.210742" y="306.161871" style="stroke: #000000; stroke-width: 0.5"/>
      </g>
     </g>
     <g id="line2d_119">
      <g>
       <use xlink:href="#mb0936f86fe" x="553.210742" y="20.669588" style="stroke: #000000; stroke-width: 0.5"/>
      </g>
     </g>
    </g>
    <g id="xtick_34">
     <g id="line2d_120">
      <g>
       <use xlink:href="#mbc2114c446" x="568.17948" y="306.161871" style="stroke: #000000; stroke-width: 0.5"/>
      </g>
     </g>
     <g id="line2d_121">
      <g>
       <use xlink:href="#mb0936f86fe" x="568.17948" y="20.669588" style="stroke: #000000; stroke-width: 0.5"/>
      </g>
     </g>
    </g>
    <g id="xtick_35">
     <g id="line2d_122">
      <g>
       <use xlink:href="#mbc2114c446" x="583.148218" y="306.161871" style="stroke: #000000; stroke-width: 0.5"/>
      </g>
     </g>
     <g id="line2d_123">
      <g>
       <use xlink:href="#mb0936f86fe" x="583.148218" y="20.669588" style="stroke: #000000; stroke-width: 0.5"/>
      </g>
     </g>
    </g>
    <g id="xtick_36">
     <g id="line2d_124">
      <g>
       <use xlink:href="#mbc2114c446" x="613.085695" y="306.161871" style="stroke: #000000; stroke-width: 0.5"/>
      </g>
     </g>
     <g id="line2d_125">
      <g>
       <use xlink:href="#mb0936f86fe" x="613.085695" y="20.669588" style="stroke: #000000; stroke-width: 0.5"/>
      </g>
     </g>
    </g>
    <g id="xtick_37">
     <g id="line2d_126">
      <g>
       <use xlink:href="#mbc2114c446" x="628.054433" y="306.161871" style="stroke: #000000; stroke-width: 0.5"/>
      </g>
     </g>
     <g id="line2d_127">
      <g>
       <use xlink:href="#mb0936f86fe" x="628.054433" y="20.669588" style="stroke: #000000; stroke-width: 0.5"/>
      </g>
     </g>
    </g>
    <g id="xtick_38">
     <g id="line2d_128">
      <g>
       <use xlink:href="#mbc2114c446" x="643.023171" y="306.161871" style="stroke: #000000; stroke-width: 0.5"/>
      </g>
     </g>
     <g id="line2d_129">
      <g>
       <use xlink:href="#mb0936f86fe" x="643.023171" y="20.669588" style="stroke: #000000; stroke-width: 0.5"/>
      </g>
     </g>
    </g>
    <g id="xtick_39">
     <g id="line2d_130">
      <g>
       <use xlink:href="#mbc2114c446" x="672.960648" y="306.161871" style="stroke: #000000; stroke-width: 0.5"/>
      </g>
     </g>
     <g id="line2d_131">
      <g>
       <use xlink:href="#mb0936f86fe" x="672.960648" y="20.669588" style="stroke: #000000; stroke-width: 0.5"/>
      </g>
     </g>
    </g>
    <g id="xtick_40">
     <g id="line2d_132">
      <g>
       <use xlink:href="#mbc2114c446" x="687.929386" y="306.161871" style="stroke: #000000; stroke-width: 0.5"/>
      </g>
     </g>
     <g id="line2d_133">
      <g>
       <use xlink:href="#mb0936f86fe" x="687.929386" y="20.669588" style="stroke: #000000; stroke-width: 0.5"/>
      </g>
     </g>
    </g>
    <g id="text_19">
     <!-- Area -->
     <g transform="translate(530.967699 338.900524) scale(0.16 -0.16)">
      <use xlink:href="#CMR17-41" transform="scale(0.996264)"/>
      <use xlink:href="#CMR17-72" transform="translate(69.07243 0) scale(0.996264)"/>
      <use xlink:href="#CMR17-65" transform="translate(104.353198 0) scale(0.996264)"/>
      <use xlink:href="#CMR17-61" transform="translate(144.838858 0) scale(0.996264)"/>
     </g>
    </g>
   </g>
   <g id="matplotlib.axis_4">
    <g id="ytick_27">
     <g id="line2d_134">
      <g>
       <use xlink:href="#m5f317960a6" x="392.446493" y="256.953748" style="stroke: #000000; stroke-width: 0.5"/>
      </g>
     </g>
     <g id="line2d_135">
      <g>
       <use xlink:href="#m8c215ac38e" x="702" y="256.953748" style="stroke: #000000; stroke-width: 0.5"/>
      </g>
     </g>
    </g>
    <g id="ytick_28">
     <g id="line2d_136">
      <g>
       <use xlink:href="#m5f317960a6" x="392.446493" y="203.134166" style="stroke: #000000; stroke-width: 0.5"/>
      </g>
     </g>
     <g id="line2d_137">
      <g>
       <use xlink:href="#m8c215ac38e" x="702" y="203.134166" style="stroke: #000000; stroke-width: 0.5"/>
      </g>
     </g>
    </g>
    <g id="ytick_29">
     <g id="line2d_138">
      <g>
       <use xlink:href="#m5f317960a6" x="392.446493" y="149.314584" style="stroke: #000000; stroke-width: 0.5"/>
      </g>
     </g>
     <g id="line2d_139">
      <g>
       <use xlink:href="#m8c215ac38e" x="702" y="149.314584" style="stroke: #000000; stroke-width: 0.5"/>
      </g>
     </g>
    </g>
    <g id="ytick_30">
     <g id="line2d_140">
      <g>
       <use xlink:href="#m5f317960a6" x="392.446493" y="95.495002" style="stroke: #000000; stroke-width: 0.5"/>
      </g>
     </g>
     <g id="line2d_141">
      <g>
       <use xlink:href="#m8c215ac38e" x="702" y="95.495002" style="stroke: #000000; stroke-width: 0.5"/>
      </g>
     </g>
    </g>
    <g id="ytick_31">
     <g id="line2d_142">
      <g>
       <use xlink:href="#m5f317960a6" x="392.446493" y="41.67542" style="stroke: #000000; stroke-width: 0.5"/>
      </g>
     </g>
     <g id="line2d_143">
      <g>
       <use xlink:href="#m8c215ac38e" x="702" y="41.67542" style="stroke: #000000; stroke-width: 0.5"/>
      </g>
     </g>
    </g>
    <g id="ytick_32">
     <g id="line2d_144">
      <g>
       <use xlink:href="#m03088e4098" x="392.446493" y="300.009414" style="stroke: #000000; stroke-width: 0.5"/>
      </g>
     </g>
     <g id="line2d_145">
      <g>
       <use xlink:href="#m573393740b" x="702" y="300.009414" style="stroke: #000000; stroke-width: 0.5"/>
      </g>
     </g>
    </g>
    <g id="ytick_33">
     <g id="line2d_146">
      <g>
       <use xlink:href="#m03088e4098" x="392.446493" y="289.245497" style="stroke: #000000; stroke-width: 0.5"/>
      </g>
     </g>
     <g id="line2d_147">
      <g>
       <use xlink:href="#m573393740b" x="702" y="289.245497" style="stroke: #000000; stroke-width: 0.5"/>
      </g>
     </g>
    </g>
    <g id="ytick_34">
     <g id="line2d_148">
      <g>
       <use xlink:href="#m03088e4098" x="392.446493" y="278.481581" style="stroke: #000000; stroke-width: 0.5"/>
      </g>
     </g>
     <g id="line2d_149">
      <g>
       <use xlink:href="#m573393740b" x="702" y="278.481581" style="stroke: #000000; stroke-width: 0.5"/>
      </g>
     </g>
    </g>
    <g id="ytick_35">
     <g id="line2d_150">
      <g>
       <use xlink:href="#m03088e4098" x="392.446493" y="267.717665" style="stroke: #000000; stroke-width: 0.5"/>
      </g>
     </g>
     <g id="line2d_151">
      <g>
       <use xlink:href="#m573393740b" x="702" y="267.717665" style="stroke: #000000; stroke-width: 0.5"/>
      </g>
     </g>
    </g>
    <g id="ytick_36">
     <g id="line2d_152">
      <g>
       <use xlink:href="#m03088e4098" x="392.446493" y="246.189832" style="stroke: #000000; stroke-width: 0.5"/>
      </g>
     </g>
     <g id="line2d_153">
      <g>
       <use xlink:href="#m573393740b" x="702" y="246.189832" style="stroke: #000000; stroke-width: 0.5"/>
      </g>
     </g>
    </g>
    <g id="ytick_37">
     <g id="line2d_154">
      <g>
       <use xlink:href="#m03088e4098" x="392.446493" y="235.425915" style="stroke: #000000; stroke-width: 0.5"/>
      </g>
     </g>
     <g id="line2d_155">
      <g>
       <use xlink:href="#m573393740b" x="702" y="235.425915" style="stroke: #000000; stroke-width: 0.5"/>
      </g>
     </g>
    </g>
    <g id="ytick_38">
     <g id="line2d_156">
      <g>
       <use xlink:href="#m03088e4098" x="392.446493" y="224.661999" style="stroke: #000000; stroke-width: 0.5"/>
      </g>
     </g>
     <g id="line2d_157">
      <g>
       <use xlink:href="#m573393740b" x="702" y="224.661999" style="stroke: #000000; stroke-width: 0.5"/>
      </g>
     </g>
    </g>
    <g id="ytick_39">
     <g id="line2d_158">
      <g>
       <use xlink:href="#m03088e4098" x="392.446493" y="213.898083" style="stroke: #000000; stroke-width: 0.5"/>
      </g>
     </g>
     <g id="line2d_159">
      <g>
       <use xlink:href="#m573393740b" x="702" y="213.898083" style="stroke: #000000; stroke-width: 0.5"/>
      </g>
     </g>
    </g>
    <g id="ytick_40">
     <g id="line2d_160">
      <g>
       <use xlink:href="#m03088e4098" x="392.446493" y="192.37025" style="stroke: #000000; stroke-width: 0.5"/>
      </g>
     </g>
     <g id="line2d_161">
      <g>
       <use xlink:href="#m573393740b" x="702" y="192.37025" style="stroke: #000000; stroke-width: 0.5"/>
      </g>
     </g>
    </g>
    <g id="ytick_41">
     <g id="line2d_162">
      <g>
       <use xlink:href="#m03088e4098" x="392.446493" y="181.606333" style="stroke: #000000; stroke-width: 0.5"/>
      </g>
     </g>
     <g id="line2d_163">
      <g>
       <use xlink:href="#m573393740b" x="702" y="181.606333" style="stroke: #000000; stroke-width: 0.5"/>
      </g>
     </g>
    </g>
    <g id="ytick_42">
     <g id="line2d_164">
      <g>
       <use xlink:href="#m03088e4098" x="392.446493" y="170.842417" style="stroke: #000000; stroke-width: 0.5"/>
      </g>
     </g>
     <g id="line2d_165">
      <g>
       <use xlink:href="#m573393740b" x="702" y="170.842417" style="stroke: #000000; stroke-width: 0.5"/>
      </g>
     </g>
    </g>
    <g id="ytick_43">
     <g id="line2d_166">
      <g>
       <use xlink:href="#m03088e4098" x="392.446493" y="160.078501" style="stroke: #000000; stroke-width: 0.5"/>
      </g>
     </g>
     <g id="line2d_167">
      <g>
       <use xlink:href="#m573393740b" x="702" y="160.078501" style="stroke: #000000; stroke-width: 0.5"/>
      </g>
     </g>
    </g>
    <g id="ytick_44">
     <g id="line2d_168">
      <g>
       <use xlink:href="#m03088e4098" x="392.446493" y="138.550668" style="stroke: #000000; stroke-width: 0.5"/>
      </g>
     </g>
     <g id="line2d_169">
      <g>
       <use xlink:href="#m573393740b" x="702" y="138.550668" style="stroke: #000000; stroke-width: 0.5"/>
      </g>
     </g>
    </g>
    <g id="ytick_45">
     <g id="line2d_170">
      <g>
       <use xlink:href="#m03088e4098" x="392.446493" y="127.786751" style="stroke: #000000; stroke-width: 0.5"/>
      </g>
     </g>
     <g id="line2d_171">
      <g>
       <use xlink:href="#m573393740b" x="702" y="127.786751" style="stroke: #000000; stroke-width: 0.5"/>
      </g>
     </g>
    </g>
    <g id="ytick_46">
     <g id="line2d_172">
      <g>
       <use xlink:href="#m03088e4098" x="392.446493" y="117.022835" style="stroke: #000000; stroke-width: 0.5"/>
      </g>
     </g>
     <g id="line2d_173">
      <g>
       <use xlink:href="#m573393740b" x="702" y="117.022835" style="stroke: #000000; stroke-width: 0.5"/>
      </g>
     </g>
    </g>
    <g id="ytick_47">
     <g id="line2d_174">
      <g>
       <use xlink:href="#m03088e4098" x="392.446493" y="106.258919" style="stroke: #000000; stroke-width: 0.5"/>
      </g>
     </g>
     <g id="line2d_175">
      <g>
       <use xlink:href="#m573393740b" x="702" y="106.258919" style="stroke: #000000; stroke-width: 0.5"/>
      </g>
     </g>
    </g>
    <g id="ytick_48">
     <g id="line2d_176">
      <g>
       <use xlink:href="#m03088e4098" x="392.446493" y="84.731086" style="stroke: #000000; stroke-width: 0.5"/>
      </g>
     </g>
     <g id="line2d_177">
      <g>
       <use xlink:href="#m573393740b" x="702" y="84.731086" style="stroke: #000000; stroke-width: 0.5"/>
      </g>
     </g>
    </g>
    <g id="ytick_49">
     <g id="line2d_178">
      <g>
       <use xlink:href="#m03088e4098" x="392.446493" y="73.967169" style="stroke: #000000; stroke-width: 0.5"/>
      </g>
     </g>
     <g id="line2d_179">
      <g>
       <use xlink:href="#m573393740b" x="702" y="73.967169" style="stroke: #000000; stroke-width: 0.5"/>
      </g>
     </g>
    </g>
    <g id="ytick_50">
     <g id="line2d_180">
      <g>
       <use xlink:href="#m03088e4098" x="392.446493" y="63.203253" style="stroke: #000000; stroke-width: 0.5"/>
      </g>
     </g>
     <g id="line2d_181">
      <g>
       <use xlink:href="#m573393740b" x="702" y="63.203253" style="stroke: #000000; stroke-width: 0.5"/>
      </g>
     </g>
    </g>
    <g id="ytick_51">
     <g id="line2d_182">
      <g>
       <use xlink:href="#m03088e4098" x="392.446493" y="52.439337" style="stroke: #000000; stroke-width: 0.5"/>
      </g>
     </g>
     <g id="line2d_183">
      <g>
       <use xlink:href="#m573393740b" x="702" y="52.439337" style="stroke: #000000; stroke-width: 0.5"/>
      </g>
     </g>
    </g>
    <g id="ytick_52">
     <g id="line2d_184">
      <g>
       <use xlink:href="#m03088e4098" x="392.446493" y="30.911504" style="stroke: #000000; stroke-width: 0.5"/>
      </g>
     </g>
     <g id="line2d_185">
      <g>
       <use xlink:href="#m573393740b" x="702" y="30.911504" style="stroke: #000000; stroke-width: 0.5"/>
      </g>
     </g>
    </g>
   </g>
   <g id="line2d_186">
    <path d="M 421.485845 241.830163 
L 424.177194 241.6103 
L 426.868543 241.390438 
L 429.559892 241.170575 
L 432.251241 240.950712 
L 434.94259 240.730849 
L 437.633939 240.510986 
L 440.325288 240.291123 
L 443.016637 240.071261 
L 445.707985 239.851398 
L 448.399334 239.631535 
L 451.090683 239.411672 
L 453.782032 239.191809 
L 456.473381 238.971946 
L 459.16473 238.752084 
L 461.856079 238.532221 
L 464.547428 238.312358 
L 467.238777 238.092495 
L 469.930126 237.872632 
L 472.621474 237.652769 
L 475.312823 237.432907 
L 478.004172 237.213044 
L 480.695521 236.993181 
L 483.38687 236.773318 
L 486.078219 236.553455 
L 488.769568 236.333592 
L 491.460917 236.11373 
L 494.152266 235.893867 
L 496.843614 235.674004 
L 499.534963 235.454141 
L 502.226312 235.234278 
L 504.917661 235.014415 
L 507.60901 234.794553 
L 510.300359 234.57469 
L 512.991708 234.354827 
L 515.683057 234.134964 
L 518.374406 233.915101 
L 521.065755 233.695238 
L 523.757103 233.475376 
L 526.448452 233.255513 
L 529.139801 233.03565 
L 531.83115 232.815787 
L 534.522499 232.595924 
L 537.213848 232.376062 
L 539.905197 232.156199 
L 542.596546 231.936336 
L 545.287895 231.716473 
L 547.979244 231.49661 
L 550.670592 231.276747 
L 553.361941 231.056885 
L 556.05329 230.837022 
L 558.744639 230.617159 
L 561.435988 230.397296 
L 564.127337 230.177433 
L 566.818686 229.95757 
L 569.510035 229.737708 
L 572.201384 229.517845 
L 574.892732 229.297982 
L 577.584081 229.078119 
L 580.27543 228.858256 
L 582.966779 228.638393 
L 585.658128 228.418531 
L 588.349477 228.198668 
L 591.040826 227.978805 
L 593.732175 227.758942 
L 596.423524 227.539079 
L 599.114873 227.319216 
L 601.806221 227.099354 
L 604.49757 226.879491 
L 607.188919 226.659628 
L 609.880268 226.439765 
L 612.571617 226.219902 
L 615.262966 226.000039 
L 617.954315 225.780177 
L 620.645664 225.560314 
L 623.337013 225.340451 
L 626.028361 225.120588 
L 628.71971 224.900725 
L 631.411059 224.680862 
L 634.102408 224.461 
L 636.793757 224.241137 
L 639.485106 224.021274 
L 642.176455 223.801411 
L 644.867804 223.581548 
L 647.559153 223.361685 
L 650.250502 223.141823 
L 652.94185 222.92196 
L 655.633199 222.702097 
L 658.324548 222.482234 
L 661.015897 222.262371 
L 663.707246 222.042508 
L 666.398595 221.822646 
L 669.089944 221.602783 
L 671.781293 221.38292 
L 674.472642 221.163057 
L 677.16399 220.943194 
L 679.855339 220.723331 
L 682.546688 220.503469 
L 685.238037 220.283606 
L 687.929386 220.063743 
" clip-path="url(#p73afe4da1b)" style="fill: none; stroke: #0c5da5; stroke-width: 1.5; stroke-linecap: square"/>
   </g>
   <g id="patch_6">
    <path d="M 392.446493 306.161871 
L 392.446493 20.669588 
" style="fill: none; stroke: #000000; stroke-width: 0.5; stroke-linejoin: miter; stroke-linecap: square"/>
   </g>
   <g id="patch_7">
    <path d="M 392.446493 306.161871 
L 702 306.161871 
" style="fill: none; stroke: #000000; stroke-width: 0.5; stroke-linejoin: miter; stroke-linecap: square"/>
   </g>
   <g id="text_20">
    <!-- category = HAR -->
    <g transform="translate(489.675736 14.669588) scale(0.16 -0.16)">
     <defs>
      <path id="CMR17-48" d="M 3590 3905 
C 3590 4192 3661 4192 4102 4192 
L 4102 4352 
C 3917 4352 3578 4352 3379 4352 
C 3181 4352 2842 4352 2656 4352 
L 2656 4192 
C 3098 4192 3168 4192 3168 3904 
L 3168 2341 
L 1261 2341 
L 1261 3904 
C 1261 4192 1331 4192 1773 4192 
L 1773 4352 
C 1587 4352 1248 4352 1050 4352 
C 851 4352 512 4352 326 4352 
L 326 4192 
C 768 4192 838 4192 838 3905 
L 838 447 
C 838 160 768 160 326 160 
L 326 0 
C 512 0 851 0 1050 0 
C 1248 0 1587 0 1773 0 
L 1773 160 
C 1331 160 1261 160 1261 446 
L 1261 2176 
L 3168 2176 
L 3168 446 
C 3168 160 3098 160 2656 160 
L 2656 0 
C 2842 0 3181 0 3379 0 
C 3578 0 3917 0 4102 0 
L 4102 160 
C 3661 160 3590 160 3590 447 
L 3590 3905 
z
" transform="scale(0.015625)"/>
      <path id="CMR17-52" d="M 2509 2146 
C 3117 2268 3629 2676 3629 3186 
C 3629 3785 2950 4326 2054 4326 
L 333 4326 
L 333 4160 
C 774 4160 845 4160 845 3873 
L 845 415 
C 845 128 774 128 333 128 
L 333 -26 
C 518 -26 851 -26 1050 -26 
C 1248 -26 1581 -26 1766 -26 
L 1766 128 
C 1325 128 1254 128 1254 417 
L 1254 2112 
L 2003 2112 
C 2368 2112 2573 1964 2662 1881 
C 2918 1632 2918 1459 2918 1024 
C 2918 595 2918 377 3110 160 
C 3354 -102 3680 -128 3821 -128 
C 4294 -128 4365 396 4365 503 
C 4365 540 4365 585 4307 585 
C 4256 585 4250 547 4250 522 
C 4218 112 4032 -26 3834 -26 
C 3482 -26 3443 375 3405 764 
C 3386 898 3373 993 3360 1133 
C 3322 1452 3270 1917 2509 2146 
z
M 1984 2214 
L 1254 2214 
L 1254 3913 
C 1254 4129 1267 4160 1523 4160 
L 1990 4160 
C 2522 4160 3142 3977 3142 3190 
C 3142 2372 2464 2214 1984 2214 
z
" transform="scale(0.015625)"/>
     </defs>
     <use xlink:href="#CMR17-63" transform="scale(0.996264)"/>
     <use xlink:href="#CMR17-61" transform="translate(40.48566 0) scale(0.996264)"/>
     <use xlink:href="#CMR17-74" transform="translate(86.176138 0) scale(0.996264)"/>
     <use xlink:href="#CMR17-65" transform="translate(121.456905 0) scale(0.996264)"/>
     <use xlink:href="#CMR17-67" transform="translate(161.942566 0) scale(0.996264)"/>
     <use xlink:href="#CMR17-6f" transform="translate(207.633043 0) scale(0.996264)"/>
     <use xlink:href="#CMR17-72" transform="translate(253.32352 0) scale(0.996264)"/>
     <use xlink:href="#CMR17-79" transform="translate(288.604288 0) scale(0.996264)"/>
     <use xlink:href="#CMR17-3d" transform="translate(366.97317 0) scale(0.996264)"/>
     <use xlink:href="#CMR17-48" transform="translate(468.763925 0) scale(0.996264)"/>
     <use xlink:href="#CMR17-41" transform="translate(537.836355 0) scale(0.996264)"/>
     <use xlink:href="#CMR17-52" transform="translate(606.908784 0) scale(0.996264)"/>
    </g>
   </g>
  </g>
 </g>
 <defs>
  <clipPath id="pe77b9fa5a9">
   <rect x="72.092987" y="20.669588" width="309.553507" height="285.492283"/>
  </clipPath>
  <clipPath id="p73afe4da1b">
   <rect x="392.446493" y="20.669588" width="309.553507" height="285.492283"/>
  </clipPath>
 </defs>
</svg>
