<?xml version="1.0" encoding="utf-8" standalone="no"?>
<!DOCTYPE svg PUBLIC "-//W3C//DTD SVG 1.1//EN"
  "http://www.w3.org/Graphics/SVG/1.1/DTD/svg11.dtd">
<svg xmlns:xlink="http://www.w3.org/1999/xlink" width="396pt" height="79.2pt" viewBox="0 0 396 79.2" xmlns="http://www.w3.org/2000/svg" version="1.1">
 <metadata>
  <rdf:RDF xmlns:dc="http://purl.org/dc/elements/1.1/" xmlns:cc="http://creativecommons.org/ns#" xmlns:rdf="http://www.w3.org/1999/02/22-rdf-syntax-ns#">
   <cc:Work>
    <dc:type rdf:resource="http://purl.org/dc/dcmitype/StillImage"/>
    <dc:date>2023-10-10T20:40:02.428877</dc:date>
    <dc:format>image/svg+xml</dc:format>
    <dc:creator>
     <cc:Agent>
      <dc:title>Matplotlib v3.7.2, https://matplotlib.org/</dc:title>
     </cc:Agent>
    </dc:creator>
   </cc:Work>
  </rdf:RDF>
 </metadata>
 <defs>
  <style type="text/css">*{stroke-linejoin: round; stroke-linecap: butt}</style>
 </defs>
 <g id="figure_1">
  <g id="patch_1">
   <path d="M 0 79.2 
L 396 79.2 
L 396 0 
L 0 0 
L 0 79.2 
z
" style="fill: none; opacity: 0"/>
  </g>
  <g id="axes_1">
   <g id="patch_2">
    <path d="M 51.530679 27.558169 
Q 54.306802 23.158705 57.863491 21.072362 
Q 61.42018 18.986018 66.023743 18.986018 
Q 72.226079 18.986018 75.270987 23.328788 
Q 78.316736 27.660218 77.721847 35.665428 
L 75.94139 59.624363 
L 69.38755 59.624363 
L 71.151997 35.880866 
Q 71.575835 30.177437 69.750942 27.422103 
Q 67.93823 24.65543 63.79956 24.65543 
Q 58.731105 24.65543 55.532753 28.023061 
Q 52.346582 31.379353 51.914318 37.196169 
L 50.247615 59.624363 
L 43.693775 59.624363 
L 45.458222 35.880866 
Q 45.884587 30.143421 44.070191 27.399425 
Q 42.255794 24.65543 38.037752 24.65543 
Q 33.03733 24.65543 29.838135 28.0344 
Q 26.650279 31.413369 26.220543 37.196169 
L 24.55384 59.624363 
L 18 59.624363 
L 20.949171 19.938479 
L 27.503011 19.938479 
L 27.044625 26.1068 
Q 29.549697 22.455698 32.796795 20.720858 
Q 36.043892 18.986018 40.329968 18.986018 
Q 44.661399 18.986018 47.525396 21.18575 
Q 50.390236 23.374143 51.530679 27.558169 
z
M 108.462172 39.679372 
Q 100.559012 39.679372 97.374892 41.482245 
Q 94.190771 43.285118 93.866363 47.650565 
Q 93.608521 51.120245 95.747292 53.161233 
Q 97.886905 55.190883 101.810138 55.190883 
Q 107.241435 55.190883 110.804003 51.347022 
Q 114.366572 47.50316 114.840124 41.130741 
L 114.947979 39.679372 
L 108.462172 39.679372 
z
M 121.668347 36.980732 
L 119.985634 59.624363 
L 113.465811 59.624363 
L 113.913242 53.603448 
Q 111.41154 57.209194 107.949848 58.932695 
Q 104.488155 60.656196 99.669155 60.656196 
Q 93.580207 60.656196 90.228932 57.231871 
Q 86.888996 53.807546 87.315362 48.070101 
Q 87.812508 41.380195 92.544129 37.978548 
Q 97.28709 34.576901 106.176728 34.576901 
L 115.327158 34.576901 
L 115.375188 33.930588 
Q 115.709708 29.429075 112.933124 26.96855 
Q 110.156539 24.508025 104.804614 24.508025 
Q 101.402967 24.508025 98.110734 25.324421 
Q 94.829839 26.140816 91.73773 27.773607 
L 92.186004 21.741352 
Q 95.860533 20.358016 99.278721 19.677686 
Q 102.697751 18.986018 105.883961 18.986018 
Q 114.501467 18.986018 118.421534 23.453515 
Q 122.342443 27.909673 121.668347 36.980732 
z
M 143.64791 8.667688 
L 142.810346 19.938479 
L 156.235513 19.938479 
L 155.858862 25.006934 
L 142.433695 25.006934 
L 140.832716 46.550699 
Q 140.472075 51.403716 141.695918 52.787052 
Q 142.91976 54.170389 147.001737 54.170389 
L 153.691643 54.170389 
L 153.286343 59.624363 
L 146.596437 59.624363 
Q 139.04478 59.624363 136.385027 56.812335 
Q 133.726117 53.988968 134.278876 46.550699 
L 135.879854 25.006934 
L 131.094871 25.006934 
L 131.471522 19.938479 
L 136.256506 19.938479 
L 137.09407 8.667688 
L 143.64791 8.667688 
z
M 168.609507 53.67148 
L 167.045604 74.716338 
L 160.491764 74.716338 
L 164.562462 19.938479 
L 171.116302 19.938479 
L 170.668871 25.959395 
Q 172.995435 22.421682 176.252186 20.709519 
Q 179.521118 18.986018 183.875226 18.986018 
Q 191.109396 18.986018 195.195882 24.723463 
Q 199.293707 30.460908 198.598545 39.815438 
Q 197.903384 49.169967 192.951985 54.918751 
Q 188.012767 60.656196 180.778597 60.656196 
Q 176.424489 60.656196 173.411713 58.932695 
Q 170.410276 57.209194 168.609507 53.67148 
z
M 191.829268 39.815438 
Q 192.363489 32.626623 189.708242 28.533308 
Q 187.052994 24.439992 181.882491 24.439992 
Q 176.700648 24.439992 173.437029 28.533308 
Q 170.17341 32.626623 169.639189 39.815438 
Q 169.104968 47.004252 171.760215 51.097567 
Q 174.415462 55.190883 179.597305 55.190883 
Q 184.767809 55.190883 188.031427 51.097567 
Q 191.295046 47.004252 191.829268 39.815438 
z
M 212.02438 4.483662 
L 218.544203 4.483662 
L 214.446542 59.624363 
L 207.926718 59.624363 
L 212.02438 4.483662 
z
M 246.073604 24.508025 
Q 240.835067 24.508025 237.480738 28.601341 
Q 234.126408 32.694656 233.597243 39.815438 
Q 233.068077 46.936219 235.791357 51.029534 
Q 238.525976 55.12285 243.79853 55.12285 
Q 249.014389 55.12285 252.358222 51.018196 
Q 255.714237 46.902203 256.240874 39.815438 
Q 256.764984 32.762689 254.021554 28.635357 
Q 251.289463 24.508025 246.073604 24.508025 
z
M 246.48396 18.986018 
Q 254.988078 18.986018 259.429896 24.519364 
Q 263.883895 30.041371 263.157557 39.815438 
Q 262.433746 49.555487 257.156507 55.111511 
Q 251.891449 60.656196 243.387331 60.656196 
Q 234.849196 60.656196 230.41956 55.111511 
Q 226.002105 49.555487 226.725916 39.815438 
Q 227.452254 30.041371 232.692949 24.519364 
Q 237.945826 18.986018 246.48396 18.986018 
z
M 282.725672 8.667688 
L 281.888108 19.938479 
L 295.313275 19.938479 
L 294.936624 25.006934 
L 281.511457 25.006934 
L 279.910478 46.550699 
Q 279.549837 51.403716 280.77368 52.787052 
Q 281.997522 54.170389 286.079499 54.170389 
L 292.769405 54.170389 
L 292.364105 59.624363 
L 285.674199 59.624363 
Q 278.122542 59.624363 275.462789 56.812335 
Q 272.803879 53.988968 273.356638 46.550699 
L 274.957616 25.006934 
L 270.172633 25.006934 
L 270.549284 19.938479 
L 275.334268 19.938479 
L 276.171832 8.667688 
L 282.725672 8.667688 
z
M 305.03817 4.483662 
L 311.557993 4.483662 
L 307.460331 59.624363 
L 300.940508 59.624363 
L 305.03817 4.483662 
z
M 324.051525 19.938479 
L 330.571348 19.938479 
L 327.622178 59.624363 
L 321.102354 59.624363 
L 324.051525 19.938479 
z
M 325.200016 4.483662 
L 331.71984 4.483662 
L 331.105569 12.749665 
L 324.585746 12.749665 
L 325.200016 4.483662 
z
M 371.230722 39.815438 
Q 371.764943 32.626623 369.109696 28.533308 
Q 366.454449 24.439992 361.283945 24.439992 
Q 356.102103 24.439992 352.838484 28.533308 
Q 349.574865 32.626623 349.040644 39.815438 
Q 348.506423 47.004252 351.16167 51.097567 
Q 353.816917 55.190883 358.998759 55.190883 
Q 364.169263 55.190883 367.432882 51.097567 
Q 370.696501 47.004252 371.230722 39.815438 
z
M 350.070326 25.959395 
Q 352.396889 22.421682 355.65364 20.709519 
Q 358.922573 18.986018 363.276681 18.986018 
Q 370.510851 18.986018 374.597337 24.723463 
Q 378.695162 30.460908 378 39.815438 
Q 377.304838 49.169967 372.353439 54.918751 
Q 367.414221 60.656196 360.180052 60.656196 
Q 355.825943 60.656196 352.813167 58.932695 
Q 349.81173 57.209194 348.010962 53.67148 
L 347.568586 59.624363 
L 341.014746 59.624363 
L 345.112408 4.483662 
L 351.666248 4.483662 
L 350.070326 25.959395 
z
" clip-path="url(#pfab00638ac)" style="fill: #11557c"/>
   </g>
  </g>
  <g id="axes_2">
   <g id="patch_3">
    <path d="M 275.22 39.996 
C 275.22 36.095832 274.451752 32.233588 272.959222 28.630302 
C 271.466692 25.027016 269.278907 21.752764 266.521071 18.994929 
C 263.763236 16.237093 260.488984 14.049308 256.885698 12.556778 
C 253.282412 11.064248 249.420168 10.296 245.52 10.296 
C 241.619832 10.296 237.757588 11.064248 234.154302 12.556778 
C 230.551016 14.049308 227.276764 16.237093 224.518929 18.994929 
C 221.761093 21.752764 219.573308 25.027016 218.080778 28.630302 
C 216.588248 32.233588 215.82 36.095832 215.82 39.996 
C 215.82 43.896168 216.588248 47.758412 218.080778 51.361698 
C 219.573308 54.964984 221.761093 58.239236 224.518929 60.997071 
C 227.276764 63.754907 230.551016 65.942692 234.154302 67.435222 
C 237.757588 68.927752 241.619832 69.696 245.52 69.696 
C 249.420168 69.696 253.282412 68.927752 256.885698 67.435222 
C 260.488984 65.942692 263.763236 63.754907 266.521071 60.997071 
C 269.278907 58.239236 271.466692 54.964984 272.959222 51.361698 
C 274.451752 47.758412 275.22 43.896168 275.22 39.996 
M 245.52 39.996 
C 245.52 39.996 245.52 39.996 245.52 39.996 
C 245.52 39.996 245.52 39.996 245.52 39.996 
C 245.52 39.996 245.52 39.996 245.52 39.996 
C 245.52 39.996 245.52 39.996 245.52 39.996 
C 245.52 39.996 245.52 39.996 245.52 39.996 
C 245.52 39.996 245.52 39.996 245.52 39.996 
C 245.52 39.996 245.52 39.996 245.52 39.996 
C 245.52 39.996 245.52 39.996 245.52 39.996 
C 245.52 39.996 245.52 39.996 245.52 39.996 
C 245.52 39.996 245.52 39.996 245.52 39.996 
C 245.52 39.996 245.52 39.996 245.52 39.996 
C 245.52 39.996 245.52 39.996 245.52 39.996 
C 245.52 39.996 245.52 39.996 245.52 39.996 
C 245.52 39.996 245.52 39.996 245.52 39.996 
C 245.52 39.996 245.52 39.996 245.52 39.996 
C 245.52 39.996 245.52 39.996 245.52 39.996 
z
" style="fill: #ffffff"/>
   </g>
   <g id="patch_4">
    <path d="M 245.52 39.996 
C 245.52 39.996 245.52 39.996 245.52 39.996 
C 245.52 39.996 245.52 39.996 245.52 39.996 
C 245.52 39.996 245.52 39.996 245.52 39.996 
C 245.52 39.996 245.52 39.996 245.52 39.996 
C 245.52 39.996 245.52 39.996 245.52 39.996 
C 245.52 39.996 245.52 39.996 245.52 39.996 
C 245.52 39.996 245.52 39.996 245.52 39.996 
C 245.52 39.996 245.52 39.996 245.52 39.996 
C 245.52 39.996 245.52 39.996 245.52 39.996 
C 245.52 39.996 245.52 39.996 245.52 39.996 
C 245.52 39.996 245.52 39.996 245.52 39.996 
C 245.52 39.996 245.52 39.996 245.52 39.996 
C 245.52 39.996 245.52 39.996 245.52 39.996 
C 245.52 39.996 245.52 39.996 245.52 39.996 
C 245.52 39.996 245.52 39.996 245.52 39.996 
C 245.52 39.996 245.52 39.996 245.52 39.996 
L 277.134 39.996 
C 277.134 44.147512 276.316243 48.258657 274.727528 52.094154 
C 273.138813 55.929651 270.810036 59.414911 267.874474 62.350474 
C 264.938911 65.286036 261.453651 67.614813 257.618154 69.203528 
C 253.782657 70.792243 249.671512 71.61 245.52 71.61 
C 241.368488 71.61 237.257343 70.792243 233.421846 69.203528 
C 229.586349 67.614813 226.101089 65.286036 223.165526 62.350474 
C 220.229964 59.414911 217.901187 55.929651 216.312472 52.094154 
C 214.723757 48.258657 213.906 44.147512 213.906 39.996 
C 213.906 35.844488 214.723757 31.733343 216.312472 27.897846 
C 217.901187 24.062349 220.229964 20.577089 223.165526 17.641526 
C 226.101089 14.705964 229.586349 12.377187 233.421846 10.788472 
C 237.257343 9.199757 241.368488 8.382 245.52 8.382 
C 249.671512 8.382 253.782657 9.199757 257.618154 10.788472 
C 261.453651 12.377187 264.938911 14.705964 267.874474 17.641526 
C 270.810036 20.577089 273.138813 24.062349 274.727528 27.897846 
C 276.316243 31.733343 277.134 35.844488 277.134 39.996 
z
" style="fill: #ffffff"/>
   </g>
   <g id="matplotlib.axis_1">
    <g id="xtick_1">
     <g id="line2d_1">
      <path d="M 245.52 39.996 
L 275.22 39.996 
" clip-path="url(#p205cdb8051)" style="fill: none; stroke: #e6e6e6; stroke-width: 0.5; stroke-linecap: square"/>
     </g>
    </g>
    <g id="xtick_2">
     <g id="line2d_2">
      <path d="M 245.52 39.996 
L 266.521071 18.994929 
" clip-path="url(#p205cdb8051)" style="fill: none; stroke: #e6e6e6; stroke-width: 0.5; stroke-linecap: square"/>
     </g>
    </g>
    <g id="xtick_3">
     <g id="line2d_3">
      <path d="M 245.52 39.996 
L 245.52 10.296 
" clip-path="url(#p205cdb8051)" style="fill: none; stroke: #e6e6e6; stroke-width: 0.5; stroke-linecap: square"/>
     </g>
    </g>
    <g id="xtick_4">
     <g id="line2d_4">
      <path d="M 245.52 39.996 
L 224.518929 18.994929 
" clip-path="url(#p205cdb8051)" style="fill: none; stroke: #e6e6e6; stroke-width: 0.5; stroke-linecap: square"/>
     </g>
    </g>
    <g id="xtick_5">
     <g id="line2d_5">
      <path d="M 245.52 39.996 
L 215.82 39.996 
" clip-path="url(#p205cdb8051)" style="fill: none; stroke: #e6e6e6; stroke-width: 0.5; stroke-linecap: square"/>
     </g>
    </g>
    <g id="xtick_6">
     <g id="line2d_6">
      <path d="M 245.52 39.996 
L 224.518929 60.997071 
" clip-path="url(#p205cdb8051)" style="fill: none; stroke: #e6e6e6; stroke-width: 0.5; stroke-linecap: square"/>
     </g>
    </g>
    <g id="xtick_7">
     <g id="line2d_7">
      <path d="M 245.52 39.996 
L 245.52 69.696 
" clip-path="url(#p205cdb8051)" style="fill: none; stroke: #e6e6e6; stroke-width: 0.5; stroke-linecap: square"/>
     </g>
    </g>
    <g id="xtick_8">
     <g id="line2d_8">
      <path d="M 245.52 39.996 
L 266.521071 60.997071 
" clip-path="url(#p205cdb8051)" style="fill: none; stroke: #e6e6e6; stroke-width: 0.5; stroke-linecap: square"/>
     </g>
    </g>
   </g>
   <g id="matplotlib.axis_2">
    <g id="ytick_1">
     <g id="line2d_9">
      <path d="M 248.82 39.996 
C 248.82 39.562648 248.734639 39.13351 248.568802 38.733145 
C 248.402966 38.33278 248.159879 37.968974 247.853452 37.662548 
C 247.547026 37.356121 247.18322 37.113034 246.782855 36.947198 
C 246.38249 36.781361 245.953352 36.696 245.52 36.696 
C 245.086648 36.696 244.65751 36.781361 244.257145 36.947198 
C 243.85678 37.113034 243.492974 37.356121 243.186548 37.662548 
C 242.880121 37.968974 242.637034 38.33278 242.471198 38.733145 
C 242.305361 39.13351 242.22 39.562648 242.22 39.996 
C 242.22 40.429352 242.305361 40.85849 242.471198 41.258855 
C 242.637034 41.65922 242.880121 42.023026 243.186548 42.329452 
C 243.492974 42.635879 243.85678 42.878966 244.257145 43.044802 
C 244.65751 43.210639 245.086648 43.296 245.52 43.296 
C 245.953352 43.296 246.38249 43.210639 246.782855 43.044802 
C 247.18322 42.878966 247.547026 42.635879 247.853452 42.329452 
C 248.159879 42.023026 248.402966 41.65922 248.568802 41.258855 
C 248.734639 40.85849 248.82 40.429352 248.82 39.996 
" clip-path="url(#p205cdb8051)" style="fill: none; stroke: #e6e6e6; stroke-width: 0.5; stroke-linecap: square"/>
     </g>
    </g>
    <g id="ytick_2">
     <g id="line2d_10">
      <path d="M 255.42 39.996 
C 255.42 38.695944 255.163917 37.408529 254.666407 36.207434 
C 254.168897 35.006339 253.439636 33.914921 252.520357 32.995643 
C 251.601079 32.076364 250.509661 31.347103 249.308566 30.849593 
C 248.107471 30.352083 246.820056 30.096 245.52 30.096 
C 244.219944 30.096 242.932529 30.352083 241.731434 30.849593 
C 240.530339 31.347103 239.438921 32.076364 238.519643 32.995643 
C 237.600364 33.914921 236.871103 35.006339 236.373593 36.207434 
C 235.876083 37.408529 235.62 38.695944 235.62 39.996 
C 235.62 41.296056 235.876083 42.583471 236.373593 43.784566 
C 236.871103 44.985661 237.600364 46.077079 238.519643 46.996357 
C 239.438921 47.915636 240.530339 48.644897 241.731434 49.142407 
C 242.932529 49.639917 244.219944 49.896 245.52 49.896 
C 246.820056 49.896 248.107471 49.639917 249.308566 49.142407 
C 250.509661 48.644897 251.601079 47.915636 252.520357 46.996357 
C 253.439636 46.077079 254.168897 44.985661 254.666407 43.784566 
C 255.163917 42.583471 255.42 41.296056 255.42 39.996 
" clip-path="url(#p205cdb8051)" style="fill: none; stroke: #e6e6e6; stroke-width: 0.5; stroke-linecap: square"/>
     </g>
    </g>
    <g id="ytick_3">
     <g id="line2d_11">
      <path d="M 262.02 39.996 
C 262.02 37.82924 261.593195 35.683549 260.764012 33.681723 
C 259.934829 31.679898 258.719393 29.860869 257.187262 28.328738 
C 255.655131 26.796607 253.836102 25.581171 251.834277 24.751988 
C 249.832451 23.922805 247.68676 23.496 245.52 23.496 
C 243.35324 23.496 241.207549 23.922805 239.205723 24.751988 
C 237.203898 25.581171 235.384869 26.796607 233.852738 28.328738 
C 232.320607 29.860869 231.105171 31.679898 230.275988 33.681723 
C 229.446805 35.683549 229.02 37.82924 229.02 39.996 
C 229.02 42.16276 229.446805 44.308451 230.275988 46.310277 
C 231.105171 48.312102 232.320607 50.131131 233.852738 51.663262 
C 235.384869 53.195393 237.203898 54.410829 239.205723 55.240012 
C 241.207549 56.069195 243.35324 56.496 245.52 56.496 
C 247.68676 56.496 249.832451 56.069195 251.834277 55.240012 
C 253.836102 54.410829 255.655131 53.195393 257.187262 51.663262 
C 258.719393 50.131131 259.934829 48.312102 260.764012 46.310277 
C 261.593195 44.308451 262.02 42.16276 262.02 39.996 
" clip-path="url(#p205cdb8051)" style="fill: none; stroke: #e6e6e6; stroke-width: 0.5; stroke-linecap: square"/>
     </g>
    </g>
    <g id="ytick_4">
     <g id="line2d_12">
      <path d="M 268.62 39.996 
C 268.62 36.962536 268.022474 33.958568 266.861617 31.156013 
C 265.700761 28.353457 263.99915 25.806816 261.854167 23.661833 
C 259.709184 21.51685 257.162543 19.815239 254.359987 18.654383 
C 251.557432 17.493526 248.553464 16.896 245.52 16.896 
C 242.486536 16.896 239.482568 17.493526 236.680013 18.654383 
C 233.877457 19.815239 231.330816 21.51685 229.185833 23.661833 
C 227.04085 25.806816 225.339239 28.353457 224.178383 31.156013 
C 223.017526 33.958568 222.42 36.962536 222.42 39.996 
C 222.42 43.029464 223.017526 46.033432 224.178383 48.835987 
C 225.339239 51.638543 227.04085 54.185184 229.185833 56.330167 
C 231.330816 58.47515 233.877457 60.176761 236.680013 61.337617 
C 239.482568 62.498474 242.486536 63.096 245.52 63.096 
C 248.553464 63.096 251.557432 62.498474 254.359987 61.337617 
C 257.162543 60.176761 259.709184 58.47515 261.854167 56.330167 
C 263.99915 54.185184 265.700761 51.638543 266.861617 48.835987 
C 268.022474 46.033432 268.62 43.029464 268.62 39.996 
" clip-path="url(#p205cdb8051)" style="fill: none; stroke: #e6e6e6; stroke-width: 0.5; stroke-linecap: square"/>
     </g>
    </g>
   </g>
   <g id="patch_5">
    <path d="M 245.52 39.996 
C 245.52 39.996 245.52 39.996 245.52 39.996 
C 245.52 39.996 245.52 39.996 245.52 39.996 
L 251.796973 37.956488 
C 251.903816 38.285318 251.984655 38.622037 252.038743 38.963533 
C 252.092831 39.305028 252.12 39.650247 252.12 39.996 
z
" clip-path="url(#p205cdb8051)" style="fill: #004cff; fill-opacity: 0.6; stroke: #4c4c4c; stroke-width: 0.7; stroke-linejoin: miter"/>
   </g>
   <g id="patch_6">
    <path d="M 245.52 39.996 
C 245.52 39.996 245.52 39.996 245.52 39.996 
C 245.52 39.996 245.52 39.996 245.52 39.996 
L 252.477222 21.45855 
C 253.448339 21.823016 254.389317 22.26323 255.291463 22.775126 
C 256.193609 23.287021 257.054137 23.869017 257.865098 24.515737 
z
" clip-path="url(#p205cdb8051)" style="fill: #ceff29; fill-opacity: 0.6; stroke: #4c4c4c; stroke-width: 0.7; stroke-linejoin: miter"/>
   </g>
   <g id="patch_7">
    <path d="M 245.52 39.996 
C 245.52 39.996 245.52 39.996 245.52 39.996 
C 245.52 39.996 245.52 39.996 245.52 39.996 
L 228.600884 19.730179 
C 230.194396 18.39982 231.939272 17.262039 233.799322 16.340436 
C 235.659372 15.418833 237.621647 14.719822 239.645447 14.257903 
z
" clip-path="url(#p205cdb8051)" style="fill: #ff6800; fill-opacity: 0.6; stroke: #4c4c4c; stroke-width: 0.7; stroke-linejoin: miter"/>
   </g>
   <g id="patch_8">
    <path d="M 245.52 39.996 
C 245.52 39.996 245.52 39.996 245.52 39.996 
C 245.52 39.996 245.52 39.996 245.52 39.996 
L 222.791227 44.120664 
C 222.358406 41.735629 222.30368 39.297263 222.629061 36.895212 
C 222.954441 34.49316 223.65589 32.157225 224.707619 29.973286 
z
" clip-path="url(#p205cdb8051)" style="fill: #ffc400; fill-opacity: 0.6; stroke: #4c4c4c; stroke-width: 0.7; stroke-linejoin: miter"/>
   </g>
   <g id="patch_9">
    <path d="M 245.52 39.996 
C 245.52 39.996 245.52 39.996 245.52 39.996 
C 245.52 39.996 245.52 39.996 245.52 39.996 
L 234.669573 47.513195 
C 234.472748 47.229095 234.287157 46.937375 234.113229 46.638708 
C 233.9393 46.340041 233.77717 46.034658 233.627211 45.723265 
z
" clip-path="url(#p205cdb8051)" style="fill: #29ffce; fill-opacity: 0.6; stroke: #4c4c4c; stroke-width: 0.7; stroke-linejoin: miter"/>
   </g>
   <g id="patch_10">
    <path d="M 245.52 39.996 
C 245.52 39.996 245.52 39.996 245.52 39.996 
C 245.52 39.996 245.52 39.996 245.52 39.996 
L 248.283853 56.262872 
C 247.218334 56.443911 246.137601 56.519821 245.057237 56.489509 
C 243.976873 56.459197 242.902096 56.322809 241.848405 56.082311 
z
" clip-path="url(#p205cdb8051)" style="fill: #7dff7a; fill-opacity: 0.6; stroke: #4c4c4c; stroke-width: 0.7; stroke-linejoin: miter"/>
   </g>
   <g id="patch_11">
    <path d="M 245.52 39.996 
C 245.52 39.996 245.52 39.996 245.52 39.996 
C 245.52 39.996 245.52 39.996 245.52 39.996 
L 266.34373 56.223515 
C 265.706293 57.041498 265.021212 57.821211 264.29205 58.558601 
C 263.562887 59.29599 262.79091 59.989776 261.980131 60.636351 
z
" clip-path="url(#p205cdb8051)" style="fill: #ff6800; fill-opacity: 0.6; stroke: #4c4c4c; stroke-width: 0.7; stroke-linejoin: miter"/>
   </g>
   <g id="patch_12">
    <path d="M 275.22 39.996 
C 275.22 36.095832 274.451752 32.233588 272.959222 28.630302 
C 271.466692 25.027016 269.278907 21.752764 266.521071 18.994929 
C 263.763236 16.237093 260.488984 14.049308 256.885698 12.556778 
C 253.282412 11.064248 249.420168 10.296 245.52 10.296 
C 241.619832 10.296 237.757588 11.064248 234.154302 12.556778 
C 230.551016 14.049308 227.276764 16.237093 224.518929 18.994929 
C 221.761093 21.752764 219.573308 25.027016 218.080778 28.630302 
C 216.588248 32.233588 215.82 36.095832 215.82 39.996 
C 215.82 43.896168 216.588248 47.758412 218.080778 51.361698 
C 219.573308 54.964984 221.761093 58.239236 224.518929 60.997071 
C 227.276764 63.754907 230.551016 65.942692 234.154302 67.435222 
C 237.757588 68.927752 241.619832 69.696 245.52 69.696 
C 249.420168 69.696 253.282412 68.927752 256.885698 67.435222 
C 260.488984 65.942692 263.763236 63.754907 266.521071 60.997071 
C 269.278907 58.239236 271.466692 54.964984 272.959222 51.361698 
C 274.451752 47.758412 275.22 43.896168 275.22 39.996 
" style="fill: none; stroke: #11557c; stroke-linejoin: miter; stroke-linecap: square"/>
   </g>
  </g>
 </g>
 <defs>
  <clipPath id="pfab00638ac">
   <rect x="0" y="0.972029" width="396" height="77.255943"/>
  </clipPath>
  <clipPath id="p205cdb8051">
   <path d="M 275.22 39.996 
C 275.22 36.095832 274.451752 32.233588 272.959222 28.630302 
C 271.466692 25.027016 269.278907 21.752764 266.521071 18.994929 
C 263.763236 16.237093 260.488984 14.049308 256.885698 12.556778 
C 253.282412 11.064248 249.420168 10.296 245.52 10.296 
C 241.619832 10.296 237.757588 11.064248 234.154302 12.556778 
C 230.551016 14.049308 227.276764 16.237093 224.518929 18.994929 
C 221.761093 21.752764 219.573308 25.027016 218.080778 28.630302 
C 216.588248 32.233588 215.82 36.095832 215.82 39.996 
C 215.82 43.896168 216.588248 47.758412 218.080778 51.361698 
C 219.573308 54.964984 221.761093 58.239236 224.518929 60.997071 
C 227.276764 63.754907 230.551016 65.942692 234.154302 67.435222 
C 237.757588 68.927752 241.619832 69.696 245.52 69.696 
C 249.420168 69.696 253.282412 68.927752 256.885698 67.435222 
C 260.488984 65.942692 263.763236 63.754907 266.521071 60.997071 
C 269.278907 58.239236 271.466692 54.964984 272.959222 51.361698 
C 274.451752 47.758412 275.22 43.896168 275.22 39.996 
M 245.52 39.996 
C 245.52 39.996 245.52 39.996 245.52 39.996 
C 245.52 39.996 245.52 39.996 245.52 39.996 
C 245.52 39.996 245.52 39.996 245.52 39.996 
C 245.52 39.996 245.52 39.996 245.52 39.996 
C 245.52 39.996 245.52 39.996 245.52 39.996 
C 245.52 39.996 245.52 39.996 245.52 39.996 
C 245.52 39.996 245.52 39.996 245.52 39.996 
C 245.52 39.996 245.52 39.996 245.52 39.996 
C 245.52 39.996 245.52 39.996 245.52 39.996 
C 245.52 39.996 245.52 39.996 245.52 39.996 
C 245.52 39.996 245.52 39.996 245.52 39.996 
C 245.52 39.996 245.52 39.996 245.52 39.996 
C 245.52 39.996 245.52 39.996 245.52 39.996 
C 245.52 39.996 245.52 39.996 245.52 39.996 
C 245.52 39.996 245.52 39.996 245.52 39.996 
C 245.52 39.996 245.52 39.996 245.52 39.996 
z
"/>
  </clipPath>
 </defs>
</svg>
