<?xml version="1.0" encoding="utf-8" standalone="no"?>
<!DOCTYPE svg PUBLIC "-//W3C//DTD SVG 1.1//EN"
  "http://www.w3.org/Graphics/SVG/1.1/DTD/svg11.dtd">
<svg xmlns:xlink="http://www.w3.org/1999/xlink" width="1109.859682pt" height="571.842553pt" viewBox="0 0 1109.859682 571.842553" xmlns="http://www.w3.org/2000/svg" version="1.1">
 <metadata>
  <rdf:RDF xmlns:dc="http://purl.org/dc/elements/1.1/" xmlns:cc="http://creativecommons.org/ns#" xmlns:rdf="http://www.w3.org/1999/02/22-rdf-syntax-ns#">
   <cc:Work>
    <dc:type rdf:resource="http://purl.org/dc/dcmitype/StillImage"/>
    <dc:date>2023-11-19T01:28:42.379553</dc:date>
    <dc:format>image/svg+xml</dc:format>
    <dc:creator>
     <cc:Agent>
      <dc:title>Matplotlib v3.7.2, https://matplotlib.org/</dc:title>
     </cc:Agent>
    </dc:creator>
   </cc:Work>
  </rdf:RDF>
 </metadata>
 <defs>
  <style type="text/css">*{stroke-linejoin: round; stroke-linecap: butt}</style>
 </defs>
 <g id="figure_1">
  <g id="patch_1">
   <path d="M 0 571.842553 
L 1109.859682 571.842553 
L 1109.859682 0 
L 0 0 
z
" style="fill: #ffffff"/>
  </g>
  <g id="axes_1">
   <g id="patch_2">
    <path d="M 34.899682 543.0312 
L 1106.259682 543.0312 
L 1106.259682 3.6 
L 34.899682 3.6 
z
" style="fill: #ffffff"/>
   </g>
   <g id="matplotlib.axis_1">
    <g id="xtick_1">
     <g id="line2d_1">
      <defs>
       <path id="m6647ee21da" d="M 0 0 
L 0 -3 
" style="stroke: #000000; stroke-width: 0.5"/>
      </defs>
      <g>
       <use xlink:href="#m6647ee21da" x="83.597864" y="543.0312" style="stroke: #000000; stroke-width: 0.5"/>
      </g>
     </g>
     <g id="line2d_2">
      <defs>
       <path id="m16b7819e81" d="M 0 0 
L 0 3 
" style="stroke: #000000; stroke-width: 0.5"/>
      </defs>
      <g>
       <use xlink:href="#m16b7819e81" x="83.597864" y="3.6" style="stroke: #000000; stroke-width: 0.5"/>
      </g>
     </g>
     <g id="text_1">
      <!-- $\mathdefault{0}$ -->
      <g transform="translate(81.107197 553.449698) scale(0.1 -0.1)">
       <defs>
        <path id="CMR17-30" d="M 2688 2025 
C 2688 2416 2682 3080 2413 3591 
C 2176 4039 1798 4198 1466 4198 
C 1158 4198 768 4058 525 3597 
C 269 3118 243 2524 243 2025 
C 243 1661 250 1106 448 619 
C 723 -39 1216 -128 1466 -128 
C 1760 -128 2208 -7 2470 600 
C 2662 1042 2688 1559 2688 2025 
z
M 1466 -26 
C 1056 -26 813 325 723 812 
C 653 1188 653 1738 653 2096 
C 653 2588 653 2997 736 3387 
C 858 3929 1216 4096 1466 4096 
C 1728 4096 2067 3923 2189 3400 
C 2272 3036 2278 2607 2278 2096 
C 2278 1680 2278 1169 2202 792 
C 2067 95 1690 -26 1466 -26 
z
" transform="scale(0.015625)"/>
       </defs>
       <use xlink:href="#CMR17-30" transform="scale(0.996264)"/>
      </g>
     </g>
    </g>
    <g id="xtick_2">
     <g id="line2d_3">
      <g>
       <use xlink:href="#m6647ee21da" x="280.358195" y="543.0312" style="stroke: #000000; stroke-width: 0.5"/>
      </g>
     </g>
     <g id="line2d_4">
      <g>
       <use xlink:href="#m16b7819e81" x="280.358195" y="3.6" style="stroke: #000000; stroke-width: 0.5"/>
      </g>
     </g>
     <g id="text_2">
      <!-- $\mathdefault{20}$ -->
      <g transform="translate(275.37686 553.449698) scale(0.1 -0.1)">
       <defs>
        <path id="CMR17-32" d="M 2669 989 
L 2554 989 
C 2490 536 2438 459 2413 420 
C 2381 369 1920 369 1830 369 
L 602 369 
C 832 619 1280 1072 1824 1597 
C 2214 1967 2669 2402 2669 3035 
C 2669 3790 2067 4224 1395 4224 
C 691 4224 262 3604 262 3030 
C 262 2780 448 2748 525 2748 
C 589 2748 781 2787 781 3010 
C 781 3207 614 3264 525 3264 
C 486 3264 448 3258 422 3245 
C 544 3790 915 4058 1306 4058 
C 1862 4058 2227 3617 2227 3035 
C 2227 2479 1901 2000 1536 1584 
L 262 146 
L 262 0 
L 2515 0 
L 2669 989 
z
" transform="scale(0.015625)"/>
       </defs>
       <use xlink:href="#CMR17-32" transform="scale(0.996264)"/>
       <use xlink:href="#CMR17-30" transform="translate(45.690477 0) scale(0.996264)"/>
      </g>
     </g>
    </g>
    <g id="xtick_3">
     <g id="line2d_5">
      <g>
       <use xlink:href="#m6647ee21da" x="477.118525" y="543.0312" style="stroke: #000000; stroke-width: 0.5"/>
      </g>
     </g>
     <g id="line2d_6">
      <g>
       <use xlink:href="#m16b7819e81" x="477.118525" y="3.6" style="stroke: #000000; stroke-width: 0.5"/>
      </g>
     </g>
     <g id="text_3">
      <!-- $\mathdefault{40}$ -->
      <g transform="translate(472.13719 553.449698) scale(0.1 -0.1)">
       <defs>
        <path id="CMR17-34" d="M 2150 4122 
C 2150 4256 2144 4256 2029 4256 
L 128 1254 
L 128 1088 
L 1779 1088 
L 1779 457 
C 1779 224 1766 160 1318 160 
L 1197 160 
L 1197 0 
C 1402 0 1747 0 1965 0 
C 2182 0 2528 0 2733 0 
L 2733 160 
L 2611 160 
C 2163 160 2150 224 2150 457 
L 2150 1088 
L 2803 1088 
L 2803 1254 
L 2150 1254 
L 2150 4122 
z
M 1798 3703 
L 1798 1254 
L 256 1254 
L 1798 3703 
z
" transform="scale(0.015625)"/>
       </defs>
       <use xlink:href="#CMR17-34" transform="scale(0.996264)"/>
       <use xlink:href="#CMR17-30" transform="translate(45.690477 0) scale(0.996264)"/>
      </g>
     </g>
    </g>
    <g id="xtick_4">
     <g id="line2d_7">
      <g>
       <use xlink:href="#m6647ee21da" x="673.878856" y="543.0312" style="stroke: #000000; stroke-width: 0.5"/>
      </g>
     </g>
     <g id="line2d_8">
      <g>
       <use xlink:href="#m16b7819e81" x="673.878856" y="3.6" style="stroke: #000000; stroke-width: 0.5"/>
      </g>
     </g>
     <g id="text_4">
      <!-- $\mathdefault{60}$ -->
      <g transform="translate(668.897521 553.449698) scale(0.1 -0.1)">
       <defs>
        <path id="CMR17-36" d="M 678 2176 
C 678 3690 1395 4032 1811 4032 
C 1946 4032 2272 4009 2400 3776 
C 2298 3776 2106 3776 2106 3553 
C 2106 3381 2246 3323 2336 3323 
C 2394 3323 2566 3348 2566 3560 
C 2566 3954 2246 4179 1805 4179 
C 1043 4179 243 3390 243 1984 
C 243 253 966 -128 1478 -128 
C 2099 -128 2688 427 2688 1283 
C 2688 2081 2170 2662 1517 2662 
C 1126 2662 838 2407 678 1960 
L 678 2176 
z
M 1478 25 
C 691 25 691 1200 691 1436 
C 691 1896 909 2560 1504 2560 
C 1613 2560 1926 2560 2138 2120 
C 2253 1870 2253 1609 2253 1289 
C 2253 944 2253 690 2118 434 
C 1978 171 1773 25 1478 25 
z
" transform="scale(0.015625)"/>
       </defs>
       <use xlink:href="#CMR17-36" transform="scale(0.996264)"/>
       <use xlink:href="#CMR17-30" transform="translate(45.690477 0) scale(0.996264)"/>
      </g>
     </g>
    </g>
    <g id="xtick_5">
     <g id="line2d_9">
      <g>
       <use xlink:href="#m6647ee21da" x="870.639187" y="543.0312" style="stroke: #000000; stroke-width: 0.5"/>
      </g>
     </g>
     <g id="line2d_10">
      <g>
       <use xlink:href="#m16b7819e81" x="870.639187" y="3.6" style="stroke: #000000; stroke-width: 0.5"/>
      </g>
     </g>
     <g id="text_5">
      <!-- $\mathdefault{80}$ -->
      <g transform="translate(865.657851 553.449698) scale(0.1 -0.1)">
       <defs>
        <path id="CMR17-38" d="M 1741 2264 
C 2144 2467 2554 2773 2554 3263 
C 2554 3841 1990 4179 1472 4179 
C 890 4179 378 3759 378 3180 
C 378 3021 416 2747 666 2505 
C 730 2442 998 2251 1171 2130 
C 883 1983 211 1634 211 934 
C 211 279 838 -128 1459 -128 
C 2144 -128 2720 362 2720 1010 
C 2720 1590 2330 1857 2074 2029 
L 1741 2264 
z
M 902 2822 
C 851 2854 595 3051 595 3351 
C 595 3739 998 4032 1459 4032 
C 1965 4032 2336 3676 2336 3262 
C 2336 2669 1670 2331 1638 2331 
C 1632 2331 1626 2331 1574 2370 
L 902 2822 
z
M 2080 1519 
C 2176 1449 2483 1240 2483 851 
C 2483 381 2010 25 1472 25 
C 890 25 448 438 448 940 
C 448 1443 838 1862 1280 2060 
L 2080 1519 
z
" transform="scale(0.015625)"/>
       </defs>
       <use xlink:href="#CMR17-38" transform="scale(0.996264)"/>
       <use xlink:href="#CMR17-30" transform="translate(45.690477 0) scale(0.996264)"/>
      </g>
     </g>
    </g>
    <g id="xtick_6">
     <g id="line2d_11">
      <g>
       <use xlink:href="#m6647ee21da" x="1067.399517" y="543.0312" style="stroke: #000000; stroke-width: 0.5"/>
      </g>
     </g>
     <g id="line2d_12">
      <g>
       <use xlink:href="#m16b7819e81" x="1067.399517" y="3.6" style="stroke: #000000; stroke-width: 0.5"/>
      </g>
     </g>
     <g id="text_6">
      <!-- $\mathdefault{100}$ -->
      <g transform="translate(1059.927514 553.449698) scale(0.1 -0.1)">
       <defs>
        <path id="CMR17-31" d="M 1702 4058 
C 1702 4192 1696 4192 1606 4192 
C 1357 3916 979 3827 621 3827 
C 602 3827 570 3827 563 3808 
C 557 3795 557 3782 557 3648 
C 755 3648 1088 3686 1344 3839 
L 1344 461 
C 1344 236 1331 160 781 160 
L 589 160 
L 589 0 
C 896 0 1216 0 1523 0 
C 1830 0 2150 0 2458 0 
L 2458 160 
L 2266 160 
C 1715 160 1702 230 1702 458 
L 1702 4058 
z
" transform="scale(0.015625)"/>
       </defs>
       <use xlink:href="#CMR17-31" transform="scale(0.996264)"/>
       <use xlink:href="#CMR17-30" transform="translate(45.690477 0) scale(0.996264)"/>
       <use xlink:href="#CMR17-30" transform="translate(91.380954 0) scale(0.996264)"/>
      </g>
     </g>
    </g>
    <g id="xtick_7">
     <g id="line2d_13">
      <defs>
       <path id="md47dc1bbb1" d="M 0 0 
L 0 -1.5 
" style="stroke: #000000; stroke-width: 0.5"/>
      </defs>
      <g>
       <use xlink:href="#md47dc1bbb1" x="132.787947" y="543.0312" style="stroke: #000000; stroke-width: 0.5"/>
      </g>
     </g>
     <g id="line2d_14">
      <defs>
       <path id="m2fad1bb22f" d="M 0 0 
L 0 1.5 
" style="stroke: #000000; stroke-width: 0.5"/>
      </defs>
      <g>
       <use xlink:href="#m2fad1bb22f" x="132.787947" y="3.6" style="stroke: #000000; stroke-width: 0.5"/>
      </g>
     </g>
    </g>
    <g id="xtick_8">
     <g id="line2d_15">
      <g>
       <use xlink:href="#md47dc1bbb1" x="181.97803" y="543.0312" style="stroke: #000000; stroke-width: 0.5"/>
      </g>
     </g>
     <g id="line2d_16">
      <g>
       <use xlink:href="#m2fad1bb22f" x="181.97803" y="3.6" style="stroke: #000000; stroke-width: 0.5"/>
      </g>
     </g>
    </g>
    <g id="xtick_9">
     <g id="line2d_17">
      <g>
       <use xlink:href="#md47dc1bbb1" x="231.168112" y="543.0312" style="stroke: #000000; stroke-width: 0.5"/>
      </g>
     </g>
     <g id="line2d_18">
      <g>
       <use xlink:href="#m2fad1bb22f" x="231.168112" y="3.6" style="stroke: #000000; stroke-width: 0.5"/>
      </g>
     </g>
    </g>
    <g id="xtick_10">
     <g id="line2d_19">
      <g>
       <use xlink:href="#md47dc1bbb1" x="329.548278" y="543.0312" style="stroke: #000000; stroke-width: 0.5"/>
      </g>
     </g>
     <g id="line2d_20">
      <g>
       <use xlink:href="#m2fad1bb22f" x="329.548278" y="3.6" style="stroke: #000000; stroke-width: 0.5"/>
      </g>
     </g>
    </g>
    <g id="xtick_11">
     <g id="line2d_21">
      <g>
       <use xlink:href="#md47dc1bbb1" x="378.73836" y="543.0312" style="stroke: #000000; stroke-width: 0.5"/>
      </g>
     </g>
     <g id="line2d_22">
      <g>
       <use xlink:href="#m2fad1bb22f" x="378.73836" y="3.6" style="stroke: #000000; stroke-width: 0.5"/>
      </g>
     </g>
    </g>
    <g id="xtick_12">
     <g id="line2d_23">
      <g>
       <use xlink:href="#md47dc1bbb1" x="427.928443" y="543.0312" style="stroke: #000000; stroke-width: 0.5"/>
      </g>
     </g>
     <g id="line2d_24">
      <g>
       <use xlink:href="#m2fad1bb22f" x="427.928443" y="3.6" style="stroke: #000000; stroke-width: 0.5"/>
      </g>
     </g>
    </g>
    <g id="xtick_13">
     <g id="line2d_25">
      <g>
       <use xlink:href="#md47dc1bbb1" x="526.308608" y="543.0312" style="stroke: #000000; stroke-width: 0.5"/>
      </g>
     </g>
     <g id="line2d_26">
      <g>
       <use xlink:href="#m2fad1bb22f" x="526.308608" y="3.6" style="stroke: #000000; stroke-width: 0.5"/>
      </g>
     </g>
    </g>
    <g id="xtick_14">
     <g id="line2d_27">
      <g>
       <use xlink:href="#md47dc1bbb1" x="575.498691" y="543.0312" style="stroke: #000000; stroke-width: 0.5"/>
      </g>
     </g>
     <g id="line2d_28">
      <g>
       <use xlink:href="#m2fad1bb22f" x="575.498691" y="3.6" style="stroke: #000000; stroke-width: 0.5"/>
      </g>
     </g>
    </g>
    <g id="xtick_15">
     <g id="line2d_29">
      <g>
       <use xlink:href="#md47dc1bbb1" x="624.688773" y="543.0312" style="stroke: #000000; stroke-width: 0.5"/>
      </g>
     </g>
     <g id="line2d_30">
      <g>
       <use xlink:href="#m2fad1bb22f" x="624.688773" y="3.6" style="stroke: #000000; stroke-width: 0.5"/>
      </g>
     </g>
    </g>
    <g id="xtick_16">
     <g id="line2d_31">
      <g>
       <use xlink:href="#md47dc1bbb1" x="723.068939" y="543.0312" style="stroke: #000000; stroke-width: 0.5"/>
      </g>
     </g>
     <g id="line2d_32">
      <g>
       <use xlink:href="#m2fad1bb22f" x="723.068939" y="3.6" style="stroke: #000000; stroke-width: 0.5"/>
      </g>
     </g>
    </g>
    <g id="xtick_17">
     <g id="line2d_33">
      <g>
       <use xlink:href="#md47dc1bbb1" x="772.259021" y="543.0312" style="stroke: #000000; stroke-width: 0.5"/>
      </g>
     </g>
     <g id="line2d_34">
      <g>
       <use xlink:href="#m2fad1bb22f" x="772.259021" y="3.6" style="stroke: #000000; stroke-width: 0.5"/>
      </g>
     </g>
    </g>
    <g id="xtick_18">
     <g id="line2d_35">
      <g>
       <use xlink:href="#md47dc1bbb1" x="821.449104" y="543.0312" style="stroke: #000000; stroke-width: 0.5"/>
      </g>
     </g>
     <g id="line2d_36">
      <g>
       <use xlink:href="#m2fad1bb22f" x="821.449104" y="3.6" style="stroke: #000000; stroke-width: 0.5"/>
      </g>
     </g>
    </g>
    <g id="xtick_19">
     <g id="line2d_37">
      <g>
       <use xlink:href="#md47dc1bbb1" x="919.829269" y="543.0312" style="stroke: #000000; stroke-width: 0.5"/>
      </g>
     </g>
     <g id="line2d_38">
      <g>
       <use xlink:href="#m2fad1bb22f" x="919.829269" y="3.6" style="stroke: #000000; stroke-width: 0.5"/>
      </g>
     </g>
    </g>
    <g id="xtick_20">
     <g id="line2d_39">
      <g>
       <use xlink:href="#md47dc1bbb1" x="969.019352" y="543.0312" style="stroke: #000000; stroke-width: 0.5"/>
      </g>
     </g>
     <g id="line2d_40">
      <g>
       <use xlink:href="#m2fad1bb22f" x="969.019352" y="3.6" style="stroke: #000000; stroke-width: 0.5"/>
      </g>
     </g>
    </g>
    <g id="xtick_21">
     <g id="line2d_41">
      <g>
       <use xlink:href="#md47dc1bbb1" x="1018.209435" y="543.0312" style="stroke: #000000; stroke-width: 0.5"/>
      </g>
     </g>
     <g id="line2d_42">
      <g>
       <use xlink:href="#m2fad1bb22f" x="1018.209435" y="3.6" style="stroke: #000000; stroke-width: 0.5"/>
      </g>
     </g>
    </g>
    <g id="text_7">
     <!-- Calculus Of Evolutionary Steps -->
     <g transform="translate(501.809639 566.305375) scale(0.1 -0.1)">
      <defs>
       <path id="CMR17-43" d="M 3974 4289 
C 3974 4403 3968 4410 3930 4410 
C 3904 4410 3898 4403 3853 4327 
L 3571 3792 
C 3258 4187 2874 4416 2381 4416 
C 1286 4416 294 3456 294 2148 
C 294 826 1286 -128 2387 -128 
C 3366 -128 3974 730 3974 1461 
C 3974 1524 3974 1550 3917 1550 
C 3866 1550 3866 1531 3859 1474 
C 3808 585 3168 38 2477 38 
C 1824 38 781 495 781 2147 
C 781 3805 1843 4250 2464 4250 
C 3187 4250 3712 3628 3834 2745 
C 3846 2668 3846 2655 3904 2655 
C 3974 2655 3974 2668 3974 2783 
L 3974 4289 
z
" transform="scale(0.015625)"/>
       <path id="CMR17-61" d="M 2304 1653 
C 2304 2072 2304 2294 2035 2543 
C 1798 2752 1523 2816 1306 2816 
C 800 2816 435 2407 435 1971 
C 435 1728 627 1728 666 1728 
C 749 1728 896 1778 896 1954 
C 896 2112 774 2181 666 2181 
C 640 2181 608 2174 589 2168 
C 723 2592 1069 2714 1293 2714 
C 1613 2714 1965 2429 1965 1885 
L 1965 1600 
C 1587 1600 1133 1549 774 1357 
C 371 1133 256 813 256 570 
C 256 77 832 -64 1171 -64 
C 1523 -64 1850 139 1990 511 
C 2003 233 2182 -18 2464 -18 
C 2598 -18 2938 70 2938 567 
L 2938 920 
L 2822 920 
L 2822 562 
C 2822 178 2650 128 2566 128 
C 2304 128 2304 458 2304 738 
L 2304 1653 
z
M 1965 870 
C 1965 317 1568 38 1216 38 
C 896 38 646 275 646 570 
C 646 761 730 1100 1101 1305 
C 1408 1478 1760 1504 1965 1504 
L 1965 870 
z
" transform="scale(0.015625)"/>
       <path id="CMR17-6c" d="M 979 4396 
L 218 4326 
L 218 4160 
C 595 4160 653 4122 653 3817 
L 653 426 
C 653 184 627 153 218 153 
L 218 -13 
C 371 0 653 0 813 0 
C 979 0 1261 0 1414 -13 
L 1414 153 
C 1005 153 979 178 979 426 
L 979 4396 
z
" transform="scale(0.015625)"/>
       <path id="CMR17-63" d="M 2234 2240 
C 2112 2240 1933 2240 1933 2017 
C 1933 1838 2080 1787 2163 1787 
C 2208 1787 2394 1807 2394 2024 
C 2394 2467 1958 2803 1466 2803 
C 787 2803 211 2178 211 1363 
C 211 516 813 -64 1466 -64 
C 2259 -64 2458 677 2458 748 
C 2458 774 2451 793 2406 793 
C 2362 793 2355 787 2330 703 
C 2163 180 1798 51 1523 51 
C 1114 51 621 427 621 1369 
C 621 2338 1094 2688 1472 2688 
C 1722 2688 2093 2573 2234 2240 
z
" transform="scale(0.015625)"/>
       <path id="CMR17-75" d="M 1882 2693 
L 1882 2528 
C 2259 2528 2317 2489 2317 2186 
L 2317 1032 
C 2317 500 2029 38 1555 38 
C 1030 38 986 348 986 678 
L 986 2763 
L 211 2693 
L 211 2528 
C 467 2528 640 2528 646 2274 
L 646 1058 
C 646 633 646 361 813 183 
C 896 101 1056 -64 1517 -64 
C 2061 -64 2272 377 2323 506 
L 2330 506 
L 2330 -63 
L 3091 -63 
L 3091 128 
C 2714 128 2656 166 2656 473 
L 2656 2763 
L 1882 2693 
z
" transform="scale(0.015625)"/>
       <path id="CMR17-73" d="M 1978 2697 
C 1978 2813 1971 2819 1933 2819 
C 1907 2819 1901 2813 1824 2717 
C 1805 2691 1747 2626 1728 2601 
C 1523 2819 1235 2819 1126 2819 
C 416 2819 160 2447 160 2076 
C 160 1498 813 1365 998 1325 
C 1402 1243 1542 1217 1677 1101 
C 1760 1025 1901 884 1901 654 
C 1901 384 1747 38 1158 38 
C 602 38 403 460 288 1021 
C 269 1110 269 1117 218 1117 
C 166 1117 160 1110 160 983 
L 160 63 
C 160 -51 166 -58 205 -58 
C 237 -58 243 -51 275 0 
C 314 57 410 211 448 276 
C 576 103 800 -64 1158 -64 
C 1792 -64 2131 283 2131 784 
C 2131 1112 1958 1285 1875 1362 
C 1683 1561 1459 1606 1190 1657 
C 838 1735 390 1825 390 2217 
C 390 2383 480 2737 1126 2737 
C 1811 2737 1850 2094 1862 1888 
C 1869 1856 1901 1849 1920 1849 
C 1978 1849 1978 1869 1978 1978 
L 1978 2697 
z
" transform="scale(0.015625)"/>
       <path id="CMR17-4f" d="M 4307 2135 
C 4307 3437 3366 4416 2304 4416 
C 1216 4416 294 3424 294 2135 
C 294 845 1229 -128 2298 -128 
C 3392 -128 4307 864 4307 2135 
z
M 2304 -13 
C 1574 -13 781 711 781 2217 
C 781 3716 1651 4301 2298 4301 
C 2976 4301 3821 3698 3821 2217 
C 3821 686 3008 -13 2304 -13 
z
" transform="scale(0.015625)"/>
       <path id="CMR17-66" d="M 979 2560 
L 1709 2560 
L 1709 2725 
L 966 2725 
L 966 3494 
C 966 4022 1235 4352 1510 4352 
C 1594 4352 1690 4327 1754 4282 
C 1702 4269 1568 4225 1568 4067 
C 1568 3901 1696 3850 1786 3850 
C 1875 3850 2003 3901 2003 4067 
C 2003 4308 1773 4454 1517 4454 
C 1152 4454 653 4156 653 3481 
L 653 2725 
L 141 2725 
L 141 2560 
L 653 2560 
L 653 427 
C 653 184 627 153 218 153 
L 218 -13 
C 371 0 666 0 832 0 
C 1018 0 1344 0 1517 -13 
L 1517 153 
C 1056 153 979 153 979 439 
L 979 2560 
z
" transform="scale(0.015625)"/>
       <path id="CMR17-45" d="M 3885 1615 
L 3770 1615 
C 3629 676 3546 166 2419 166 
L 1530 166 
C 1274 166 1261 197 1261 414 
L 1261 2176 
L 1862 2176 
C 2464 2176 2522 1960 2522 1430 
L 2637 1430 
L 2637 3081 
L 2522 3081 
C 2522 2557 2464 2342 1862 2342 
L 1261 2342 
L 1261 3913 
C 1261 4128 1274 4160 1530 4160 
L 2406 4160 
C 3398 4160 3514 3769 3603 2929 
L 3718 2929 
L 3565 4325 
L 326 4325 
L 326 4160 
C 768 4160 838 4160 838 3874 
L 838 451 
C 838 166 768 166 326 166 
L 326 0 
L 3654 0 
L 3885 1615 
z
" transform="scale(0.015625)"/>
       <path id="CMR17-76" d="M 2502 2163 
C 2560 2304 2662 2560 3034 2560 
L 3034 2726 
C 2912 2726 2752 2726 2630 2726 
C 2496 2726 2285 2726 2157 2732 
L 2157 2566 
C 2317 2553 2406 2477 2406 2311 
C 2406 2253 2406 2240 2368 2151 
L 1664 377 
L 902 2286 
C 864 2369 864 2381 864 2407 
C 864 2560 1075 2560 1171 2560 
L 1171 2732 
C 1018 2726 736 2726 576 2726 
C 403 2726 205 2726 64 2732 
L 64 2560 
C 307 2560 442 2560 518 2362 
L 1446 44 
C 1485 -51 1491 -64 1549 -64 
C 1606 -64 1613 -51 1651 44 
L 2502 2163 
z
" transform="scale(0.015625)"/>
       <path id="CMR17-6f" d="M 2758 1356 
C 2758 2176 2163 2816 1466 2816 
C 768 2816 173 2176 173 1356 
C 173 551 768 -64 1466 -64 
C 2163 -64 2758 551 2758 1356 
z
M 1466 51 
C 1165 51 909 230 762 480 
C 602 767 582 1126 582 1408 
C 582 1677 595 2010 762 2298 
C 890 2509 1139 2714 1466 2714 
C 1754 2714 1997 2554 2150 2330 
C 2349 2029 2349 1607 2349 1408 
C 2349 1158 2336 775 2163 467 
C 1984 173 1709 51 1466 51 
z
" transform="scale(0.015625)"/>
       <path id="CMR17-74" d="M 966 2560 
L 1862 2560 
L 1862 2725 
L 966 2725 
L 966 3904 
L 851 3904 
C 838 3245 614 2668 70 2668 
L 70 2560 
L 627 2560 
L 627 771 
C 627 650 627 -64 1370 -64 
C 1747 -64 1965 306 1965 777 
L 1965 1140 
L 1850 1140 
L 1850 783 
C 1850 344 1677 51 1408 51 
C 1222 51 966 178 966 758 
L 966 2560 
z
" transform="scale(0.015625)"/>
       <path id="CMR17-69" d="M 992 3909 
C 992 4049 877 4170 730 4170 
C 589 4170 467 4056 467 3909 
C 467 3769 582 3648 730 3648 
C 870 3648 992 3763 992 3909 
z
M 243 2706 
L 243 2541 
C 602 2541 653 2502 653 2197 
L 653 427 
C 653 184 627 153 218 153 
L 218 -13 
C 371 0 646 0 806 0 
C 960 0 1222 0 1370 -13 
L 1370 153 
C 992 153 979 191 979 420 
L 979 2776 
L 243 2706 
z
" transform="scale(0.015625)"/>
       <path id="CMR17-6e" d="M 2656 1933 
C 2656 2259 2592 2790 1837 2790 
C 1331 2790 1069 2400 973 2144 
L 966 2144 
L 966 2790 
L 211 2720 
L 211 2554 
C 589 2554 646 2515 646 2208 
L 646 428 
C 646 184 621 153 211 153 
L 211 -13 
C 365 0 646 0 813 0 
C 979 0 1267 0 1421 -13 
L 1421 153 
C 1011 153 986 178 986 428 
L 986 1658 
C 986 2247 1344 2688 1792 2688 
C 2266 2688 2317 2266 2317 1958 
L 2317 428 
C 2317 184 2291 153 1882 153 
L 1882 -13 
C 2035 0 2317 0 2483 0 
C 2650 0 2938 0 3091 -13 
L 3091 153 
C 2682 153 2656 178 2656 428 
L 2656 1933 
z
" transform="scale(0.015625)"/>
       <path id="CMR17-72" d="M 960 1497 
C 960 2112 1222 2688 1702 2688 
C 1747 2688 1792 2682 1837 2662 
C 1837 2662 1696 2617 1696 2452 
C 1696 2298 1818 2234 1914 2234 
C 1990 2234 2131 2279 2131 2458 
C 2131 2663 1926 2790 1709 2790 
C 1222 2790 1011 2317 947 2093 
L 941 2093 
L 941 2790 
L 198 2720 
L 198 2554 
C 576 2554 634 2515 634 2208 
L 634 428 
C 634 184 608 153 198 153 
L 198 -13 
C 352 0 646 0 813 0 
C 998 0 1325 0 1498 -13 
L 1498 153 
C 1037 153 960 153 960 440 
L 960 1497 
z
" transform="scale(0.015625)"/>
       <path id="CMR17-79" d="M 2496 2197 
C 2656 2586 2944 2586 3034 2586 
L 3034 2752 
C 2912 2752 2752 2752 2630 2752 
C 2496 2752 2285 2752 2157 2758 
L 2157 2592 
C 2400 2573 2406 2394 2406 2343 
C 2406 2280 2394 2248 2362 2171 
L 1664 449 
L 902 2306 
C 870 2382 870 2426 870 2433 
C 870 2573 1018 2586 1171 2586 
L 1171 2758 
C 1018 2752 742 2752 582 2752 
C 410 2752 205 2752 64 2758 
L 64 2586 
C 410 2586 448 2554 531 2350 
L 1485 15 
C 1197 -738 1030 -1178 627 -1178 
C 557 -1178 397 -1159 282 -1044 
C 429 -1031 493 -942 493 -833 
C 493 -725 416 -629 288 -629 
C 147 -629 77 -725 77 -840 
C 77 -1095 339 -1280 627 -1280 
C 998 -1280 1229 -922 1357 -604 
L 2496 2197 
z
" transform="scale(0.015625)"/>
       <path id="CMR17-53" d="M 2803 4290 
C 2803 4404 2797 4411 2758 4411 
C 2720 4411 2707 4385 2682 4328 
L 2490 3907 
C 2246 4257 1875 4416 1472 4416 
C 819 4416 294 3901 294 3253 
C 294 3056 339 2776 557 2510 
C 794 2218 1018 2167 1530 2033 
C 1722 1982 2042 1899 2106 1874 
C 2470 1722 2662 1341 2662 985 
C 2662 527 2336 38 1779 38 
C 1094 38 454 419 410 1311 
C 403 1413 397 1419 352 1419 
C 301 1419 294 1413 294 1285 
L 294 -1 
C 294 -115 301 -122 339 -122 
C 384 -122 397 -90 486 108 
C 493 127 493 140 614 381 
C 934 -39 1472 -128 1779 -128 
C 2477 -128 2970 451 2970 1124 
C 2970 1454 2848 1708 2778 1823 
C 2509 2230 2221 2306 1914 2382 
C 1869 2402 1856 2402 1498 2490 
C 1152 2579 1005 2624 845 2796 
C 666 2992 602 3196 602 3399 
C 602 3812 934 4263 1478 4263 
C 2157 4263 2579 3786 2675 2993 
C 2694 2878 2701 2872 2746 2872 
C 2803 2872 2803 2891 2803 2999 
L 2803 4290 
z
" transform="scale(0.015625)"/>
       <path id="CMR17-65" d="M 2438 1472 
C 2464 1498 2464 1511 2464 1576 
C 2464 2238 2118 2816 1389 2816 
C 710 2816 173 2169 173 1383 
C 173 551 781 -64 1459 -64 
C 2176 -64 2458 607 2458 740 
C 2458 784 2419 784 2406 784 
C 2362 784 2355 771 2330 696 
C 2189 265 1837 51 1504 51 
C 1229 51 954 203 781 480 
C 582 803 582 1176 582 1472 
L 2438 1472 
z
M 589 1568 
C 634 2505 1126 2714 1382 2714 
C 1818 2714 2112 2297 2118 1568 
L 589 1568 
z
" transform="scale(0.015625)"/>
       <path id="CMR17-70" d="M 1408 -1063 
C 998 -1063 973 -1037 973 -789 
L 973 402 
C 1158 134 1427 -38 1766 -38 
C 2406 -38 3053 523 3053 1388 
C 3053 2191 2496 2802 1837 2802 
C 1453 2802 1139 2592 960 2338 
L 960 2802 
L 198 2732 
L 198 2567 
C 576 2567 634 2528 634 2223 
L 634 -789 
C 634 -1031 608 -1063 198 -1063 
L 198 -1228 
C 352 -1216 634 -1216 800 -1216 
C 966 -1216 1254 -1216 1408 -1228 
L 1408 -1063 
z
M 973 2012 
C 973 2102 973 2235 1222 2471 
C 1254 2497 1472 2688 1792 2688 
C 2259 2688 2643 2108 2643 1382 
C 2643 656 2234 64 1728 64 
C 1498 64 1248 172 1056 472 
C 973 612 973 650 973 752 
L 973 2012 
z
" transform="scale(0.015625)"/>
      </defs>
      <use xlink:href="#CMR17-43" transform="scale(0.996264)"/>
      <use xlink:href="#CMR17-61" transform="translate(66.509881 0) scale(0.996264)"/>
      <use xlink:href="#CMR17-6c" transform="translate(112.200358 0) scale(0.996264)"/>
      <use xlink:href="#CMR17-63" transform="translate(137.071416 0) scale(0.996264)"/>
      <use xlink:href="#CMR17-75" transform="translate(177.557077 0) scale(0.996264)"/>
      <use xlink:href="#CMR17-6c" transform="translate(228.452446 0) scale(0.996264)"/>
      <use xlink:href="#CMR17-75" transform="translate(253.323505 0) scale(0.996264)"/>
      <use xlink:href="#CMR17-73" transform="translate(304.218875 0) scale(0.996264)"/>
      <use xlink:href="#CMR17-4f" transform="translate(370.096179 0) scale(0.996264)"/>
      <use xlink:href="#CMR17-66" transform="translate(441.810967 0) scale(0.996264)"/>
      <use xlink:href="#CMR17-45" transform="translate(499.360446 0) scale(0.996264)"/>
      <use xlink:href="#CMR17-76" transform="translate(561.946746 0) scale(0.996264)"/>
      <use xlink:href="#CMR17-6f" transform="translate(607.637208 0) scale(0.996264)"/>
      <use xlink:href="#CMR17-6c" transform="translate(653.327685 0) scale(0.996264)"/>
      <use xlink:href="#CMR17-75" transform="translate(678.198744 0) scale(0.996264)"/>
      <use xlink:href="#CMR17-74" transform="translate(729.094114 0) scale(0.996264)"/>
      <use xlink:href="#CMR17-69" transform="translate(764.374881 0) scale(0.996264)"/>
      <use xlink:href="#CMR17-6f" transform="translate(789.24594 0) scale(0.996264)"/>
      <use xlink:href="#CMR17-6e" transform="translate(834.936417 0) scale(0.996264)"/>
      <use xlink:href="#CMR17-61" transform="translate(885.831787 0) scale(0.996264)"/>
      <use xlink:href="#CMR17-72" transform="translate(931.522264 0) scale(0.996264)"/>
      <use xlink:href="#CMR17-79" transform="translate(966.803032 0) scale(0.996264)"/>
      <use xlink:href="#CMR17-53" transform="translate(1045.171914 0) scale(0.996264)"/>
      <use xlink:href="#CMR17-74" transform="translate(1096.067284 0) scale(0.996264)"/>
      <use xlink:href="#CMR17-65" transform="translate(1131.348051 0) scale(0.996264)"/>
      <use xlink:href="#CMR17-70" transform="translate(1171.833712 0) scale(0.996264)"/>
      <use xlink:href="#CMR17-73" transform="translate(1222.729082 0) scale(0.996264)"/>
     </g>
    </g>
   </g>
   <g id="matplotlib.axis_2">
    <g id="ytick_1">
     <g id="line2d_43">
      <defs>
       <path id="md079b8f955" d="M 0 0 
L 3 0 
" style="stroke: #000000; stroke-width: 0.5"/>
      </defs>
      <g>
       <use xlink:href="#md079b8f955" x="34.899682" y="539.83214" style="stroke: #000000; stroke-width: 0.5"/>
      </g>
     </g>
     <g id="line2d_44">
      <defs>
       <path id="maf5672ac22" d="M 0 0 
L -3 0 
" style="stroke: #000000; stroke-width: 0.5"/>
      </defs>
      <g>
       <use xlink:href="#maf5672ac22" x="1106.259682" y="539.83214" style="stroke: #000000; stroke-width: 0.5"/>
      </g>
     </g>
     <g id="text_8">
      <!-- $\mathdefault{840}$ -->
      <g transform="translate(16.455677 543.291389) scale(0.1 -0.1)">
       <use xlink:href="#CMR17-38" transform="scale(0.996264)"/>
       <use xlink:href="#CMR17-34" transform="translate(45.690477 0) scale(0.996264)"/>
       <use xlink:href="#CMR17-30" transform="translate(91.380954 0) scale(0.996264)"/>
      </g>
     </g>
    </g>
    <g id="ytick_2">
     <g id="line2d_45">
      <g>
       <use xlink:href="#md079b8f955" x="34.899682" y="455.251555" style="stroke: #000000; stroke-width: 0.5"/>
      </g>
     </g>
     <g id="line2d_46">
      <g>
       <use xlink:href="#maf5672ac22" x="1106.259682" y="455.251555" style="stroke: #000000; stroke-width: 0.5"/>
      </g>
     </g>
     <g id="text_9">
      <!-- $\mathdefault{860}$ -->
      <g transform="translate(16.455677 458.710804) scale(0.1 -0.1)">
       <use xlink:href="#CMR17-38" transform="scale(0.996264)"/>
       <use xlink:href="#CMR17-36" transform="translate(45.690477 0) scale(0.996264)"/>
       <use xlink:href="#CMR17-30" transform="translate(91.380954 0) scale(0.996264)"/>
      </g>
     </g>
    </g>
    <g id="ytick_3">
     <g id="line2d_47">
      <g>
       <use xlink:href="#md079b8f955" x="34.899682" y="370.67097" style="stroke: #000000; stroke-width: 0.5"/>
      </g>
     </g>
     <g id="line2d_48">
      <g>
       <use xlink:href="#maf5672ac22" x="1106.259682" y="370.67097" style="stroke: #000000; stroke-width: 0.5"/>
      </g>
     </g>
     <g id="text_10">
      <!-- $\mathdefault{880}$ -->
      <g transform="translate(16.455677 374.130219) scale(0.1 -0.1)">
       <use xlink:href="#CMR17-38" transform="scale(0.996264)"/>
       <use xlink:href="#CMR17-38" transform="translate(45.690477 0) scale(0.996264)"/>
       <use xlink:href="#CMR17-30" transform="translate(91.380954 0) scale(0.996264)"/>
      </g>
     </g>
    </g>
    <g id="ytick_4">
     <g id="line2d_49">
      <g>
       <use xlink:href="#md079b8f955" x="34.899682" y="286.090385" style="stroke: #000000; stroke-width: 0.5"/>
      </g>
     </g>
     <g id="line2d_50">
      <g>
       <use xlink:href="#maf5672ac22" x="1106.259682" y="286.090385" style="stroke: #000000; stroke-width: 0.5"/>
      </g>
     </g>
     <g id="text_11">
      <!-- $\mathdefault{900}$ -->
      <g transform="translate(16.455677 289.549634) scale(0.1 -0.1)">
       <defs>
        <path id="CMR17-39" d="M 2253 1864 
C 2253 464 1670 31 1190 31 
C 1043 31 685 31 538 294 
C 704 268 826 357 826 518 
C 826 692 685 749 595 749 
C 538 749 365 723 365 506 
C 365 71 742 -128 1203 -128 
C 1939 -128 2688 674 2688 2073 
C 2688 3817 1971 4179 1485 4179 
C 851 4179 243 3628 243 2778 
C 243 1991 762 1408 1414 1408 
C 1952 1408 2189 1903 2253 2112 
L 2253 1864 
z
M 1427 1510 
C 1254 1510 1011 1542 813 1922 
C 678 2169 678 2461 678 2771 
C 678 3146 678 3405 858 3684 
C 947 3817 1114 4032 1485 4032 
C 2240 4032 2240 2885 2240 2632 
C 2240 2182 2035 1510 1427 1510 
z
" transform="scale(0.015625)"/>
       </defs>
       <use xlink:href="#CMR17-39" transform="scale(0.996264)"/>
       <use xlink:href="#CMR17-30" transform="translate(45.690477 0) scale(0.996264)"/>
       <use xlink:href="#CMR17-30" transform="translate(91.380954 0) scale(0.996264)"/>
      </g>
     </g>
    </g>
    <g id="ytick_5">
     <g id="line2d_51">
      <g>
       <use xlink:href="#md079b8f955" x="34.899682" y="201.5098" style="stroke: #000000; stroke-width: 0.5"/>
      </g>
     </g>
     <g id="line2d_52">
      <g>
       <use xlink:href="#maf5672ac22" x="1106.259682" y="201.5098" style="stroke: #000000; stroke-width: 0.5"/>
      </g>
     </g>
     <g id="text_12">
      <!-- $\mathdefault{920}$ -->
      <g transform="translate(16.455677 204.969049) scale(0.1 -0.1)">
       <use xlink:href="#CMR17-39" transform="scale(0.996264)"/>
       <use xlink:href="#CMR17-32" transform="translate(45.690477 0) scale(0.996264)"/>
       <use xlink:href="#CMR17-30" transform="translate(91.380954 0) scale(0.996264)"/>
      </g>
     </g>
    </g>
    <g id="ytick_6">
     <g id="line2d_53">
      <g>
       <use xlink:href="#md079b8f955" x="34.899682" y="116.929214" style="stroke: #000000; stroke-width: 0.5"/>
      </g>
     </g>
     <g id="line2d_54">
      <g>
       <use xlink:href="#maf5672ac22" x="1106.259682" y="116.929214" style="stroke: #000000; stroke-width: 0.5"/>
      </g>
     </g>
     <g id="text_13">
      <!-- $\mathdefault{940}$ -->
      <g transform="translate(16.455677 120.388464) scale(0.1 -0.1)">
       <use xlink:href="#CMR17-39" transform="scale(0.996264)"/>
       <use xlink:href="#CMR17-34" transform="translate(45.690477 0) scale(0.996264)"/>
       <use xlink:href="#CMR17-30" transform="translate(91.380954 0) scale(0.996264)"/>
      </g>
     </g>
    </g>
    <g id="ytick_7">
     <g id="line2d_55">
      <g>
       <use xlink:href="#md079b8f955" x="34.899682" y="32.348629" style="stroke: #000000; stroke-width: 0.5"/>
      </g>
     </g>
     <g id="line2d_56">
      <g>
       <use xlink:href="#maf5672ac22" x="1106.259682" y="32.348629" style="stroke: #000000; stroke-width: 0.5"/>
      </g>
     </g>
     <g id="text_14">
      <!-- $\mathdefault{960}$ -->
      <g transform="translate(16.455677 35.807878) scale(0.1 -0.1)">
       <use xlink:href="#CMR17-39" transform="scale(0.996264)"/>
       <use xlink:href="#CMR17-36" transform="translate(45.690477 0) scale(0.996264)"/>
       <use xlink:href="#CMR17-30" transform="translate(91.380954 0) scale(0.996264)"/>
      </g>
     </g>
    </g>
    <g id="ytick_8">
     <g id="line2d_57">
      <defs>
       <path id="m557caeeec6" d="M 0 0 
L 1.5 0 
" style="stroke: #000000; stroke-width: 0.5"/>
      </defs>
      <g>
       <use xlink:href="#m557caeeec6" x="34.899682" y="518.686994" style="stroke: #000000; stroke-width: 0.5"/>
      </g>
     </g>
     <g id="line2d_58">
      <defs>
       <path id="m53d51774ff" d="M 0 0 
L -1.5 0 
" style="stroke: #000000; stroke-width: 0.5"/>
      </defs>
      <g>
       <use xlink:href="#m53d51774ff" x="1106.259682" y="518.686994" style="stroke: #000000; stroke-width: 0.5"/>
      </g>
     </g>
    </g>
    <g id="ytick_9">
     <g id="line2d_59">
      <g>
       <use xlink:href="#m557caeeec6" x="34.899682" y="497.541848" style="stroke: #000000; stroke-width: 0.5"/>
      </g>
     </g>
     <g id="line2d_60">
      <g>
       <use xlink:href="#m53d51774ff" x="1106.259682" y="497.541848" style="stroke: #000000; stroke-width: 0.5"/>
      </g>
     </g>
    </g>
    <g id="ytick_10">
     <g id="line2d_61">
      <g>
       <use xlink:href="#m557caeeec6" x="34.899682" y="476.396701" style="stroke: #000000; stroke-width: 0.5"/>
      </g>
     </g>
     <g id="line2d_62">
      <g>
       <use xlink:href="#m53d51774ff" x="1106.259682" y="476.396701" style="stroke: #000000; stroke-width: 0.5"/>
      </g>
     </g>
    </g>
    <g id="ytick_11">
     <g id="line2d_63">
      <g>
       <use xlink:href="#m557caeeec6" x="34.899682" y="434.106409" style="stroke: #000000; stroke-width: 0.5"/>
      </g>
     </g>
     <g id="line2d_64">
      <g>
       <use xlink:href="#m53d51774ff" x="1106.259682" y="434.106409" style="stroke: #000000; stroke-width: 0.5"/>
      </g>
     </g>
    </g>
    <g id="ytick_12">
     <g id="line2d_65">
      <g>
       <use xlink:href="#m557caeeec6" x="34.899682" y="412.961262" style="stroke: #000000; stroke-width: 0.5"/>
      </g>
     </g>
     <g id="line2d_66">
      <g>
       <use xlink:href="#m53d51774ff" x="1106.259682" y="412.961262" style="stroke: #000000; stroke-width: 0.5"/>
      </g>
     </g>
    </g>
    <g id="ytick_13">
     <g id="line2d_67">
      <g>
       <use xlink:href="#m557caeeec6" x="34.899682" y="391.816116" style="stroke: #000000; stroke-width: 0.5"/>
      </g>
     </g>
     <g id="line2d_68">
      <g>
       <use xlink:href="#m53d51774ff" x="1106.259682" y="391.816116" style="stroke: #000000; stroke-width: 0.5"/>
      </g>
     </g>
    </g>
    <g id="ytick_14">
     <g id="line2d_69">
      <g>
       <use xlink:href="#m557caeeec6" x="34.899682" y="349.525824" style="stroke: #000000; stroke-width: 0.5"/>
      </g>
     </g>
     <g id="line2d_70">
      <g>
       <use xlink:href="#m53d51774ff" x="1106.259682" y="349.525824" style="stroke: #000000; stroke-width: 0.5"/>
      </g>
     </g>
    </g>
    <g id="ytick_15">
     <g id="line2d_71">
      <g>
       <use xlink:href="#m557caeeec6" x="34.899682" y="328.380677" style="stroke: #000000; stroke-width: 0.5"/>
      </g>
     </g>
     <g id="line2d_72">
      <g>
       <use xlink:href="#m53d51774ff" x="1106.259682" y="328.380677" style="stroke: #000000; stroke-width: 0.5"/>
      </g>
     </g>
    </g>
    <g id="ytick_16">
     <g id="line2d_73">
      <g>
       <use xlink:href="#m557caeeec6" x="34.899682" y="307.235531" style="stroke: #000000; stroke-width: 0.5"/>
      </g>
     </g>
     <g id="line2d_74">
      <g>
       <use xlink:href="#m53d51774ff" x="1106.259682" y="307.235531" style="stroke: #000000; stroke-width: 0.5"/>
      </g>
     </g>
    </g>
    <g id="ytick_17">
     <g id="line2d_75">
      <g>
       <use xlink:href="#m557caeeec6" x="34.899682" y="264.945238" style="stroke: #000000; stroke-width: 0.5"/>
      </g>
     </g>
     <g id="line2d_76">
      <g>
       <use xlink:href="#m53d51774ff" x="1106.259682" y="264.945238" style="stroke: #000000; stroke-width: 0.5"/>
      </g>
     </g>
    </g>
    <g id="ytick_18">
     <g id="line2d_77">
      <g>
       <use xlink:href="#m557caeeec6" x="34.899682" y="243.800092" style="stroke: #000000; stroke-width: 0.5"/>
      </g>
     </g>
     <g id="line2d_78">
      <g>
       <use xlink:href="#m53d51774ff" x="1106.259682" y="243.800092" style="stroke: #000000; stroke-width: 0.5"/>
      </g>
     </g>
    </g>
    <g id="ytick_19">
     <g id="line2d_79">
      <g>
       <use xlink:href="#m557caeeec6" x="34.899682" y="222.654946" style="stroke: #000000; stroke-width: 0.5"/>
      </g>
     </g>
     <g id="line2d_80">
      <g>
       <use xlink:href="#m53d51774ff" x="1106.259682" y="222.654946" style="stroke: #000000; stroke-width: 0.5"/>
      </g>
     </g>
    </g>
    <g id="ytick_20">
     <g id="line2d_81">
      <g>
       <use xlink:href="#m557caeeec6" x="34.899682" y="180.364653" style="stroke: #000000; stroke-width: 0.5"/>
      </g>
     </g>
     <g id="line2d_82">
      <g>
       <use xlink:href="#m53d51774ff" x="1106.259682" y="180.364653" style="stroke: #000000; stroke-width: 0.5"/>
      </g>
     </g>
    </g>
    <g id="ytick_21">
     <g id="line2d_83">
      <g>
       <use xlink:href="#m557caeeec6" x="34.899682" y="159.219507" style="stroke: #000000; stroke-width: 0.5"/>
      </g>
     </g>
     <g id="line2d_84">
      <g>
       <use xlink:href="#m53d51774ff" x="1106.259682" y="159.219507" style="stroke: #000000; stroke-width: 0.5"/>
      </g>
     </g>
    </g>
    <g id="ytick_22">
     <g id="line2d_85">
      <g>
       <use xlink:href="#m557caeeec6" x="34.899682" y="138.074361" style="stroke: #000000; stroke-width: 0.5"/>
      </g>
     </g>
     <g id="line2d_86">
      <g>
       <use xlink:href="#m53d51774ff" x="1106.259682" y="138.074361" style="stroke: #000000; stroke-width: 0.5"/>
      </g>
     </g>
    </g>
    <g id="ytick_23">
     <g id="line2d_87">
      <g>
       <use xlink:href="#m557caeeec6" x="34.899682" y="95.784068" style="stroke: #000000; stroke-width: 0.5"/>
      </g>
     </g>
     <g id="line2d_88">
      <g>
       <use xlink:href="#m53d51774ff" x="1106.259682" y="95.784068" style="stroke: #000000; stroke-width: 0.5"/>
      </g>
     </g>
    </g>
    <g id="ytick_24">
     <g id="line2d_89">
      <g>
       <use xlink:href="#m557caeeec6" x="34.899682" y="74.638922" style="stroke: #000000; stroke-width: 0.5"/>
      </g>
     </g>
     <g id="line2d_90">
      <g>
       <use xlink:href="#m53d51774ff" x="1106.259682" y="74.638922" style="stroke: #000000; stroke-width: 0.5"/>
      </g>
     </g>
    </g>
    <g id="ytick_25">
     <g id="line2d_91">
      <g>
       <use xlink:href="#m557caeeec6" x="34.899682" y="53.493776" style="stroke: #000000; stroke-width: 0.5"/>
      </g>
     </g>
     <g id="line2d_92">
      <g>
       <use xlink:href="#m53d51774ff" x="1106.259682" y="53.493776" style="stroke: #000000; stroke-width: 0.5"/>
      </g>
     </g>
    </g>
    <g id="ytick_26">
     <g id="line2d_93">
      <g>
       <use xlink:href="#m557caeeec6" x="34.899682" y="11.203483" style="stroke: #000000; stroke-width: 0.5"/>
      </g>
     </g>
     <g id="line2d_94">
      <g>
       <use xlink:href="#m53d51774ff" x="1106.259682" y="11.203483" style="stroke: #000000; stroke-width: 0.5"/>
      </g>
     </g>
    </g>
    <g id="text_15">
     <!-- Max Fit in Group -->
     <g transform="translate(10.518498 312.592012) rotate(-90) scale(0.1 -0.1)">
      <defs>
       <path id="CMR17-4d" d="M 1338 4224 
C 1299 4320 1293 4320 1158 4320 
L 339 4320 
L 339 4160 
C 781 4160 851 4160 851 3875 
L 851 610 
C 851 451 851 153 339 153 
L 339 -13 
C 486 0 755 0 915 0 
C 1075 0 1344 0 1491 -13 
L 1491 153 
C 979 153 979 451 979 610 
L 979 4135 
L 986 4135 
L 2490 89 
C 2515 25 2528 -13 2579 -13 
C 2630 -13 2643 25 2669 89 
L 4186 4166 
L 4192 4166 
L 4192 438 
C 4192 153 4122 153 3680 153 
L 3680 -13 
C 3853 0 4198 0 4384 0 
C 4570 0 4922 0 5094 -13 
L 5094 153 
C 4653 153 4582 153 4582 438 
L 4582 3875 
C 4582 4160 4653 4160 5094 4160 
L 5094 4320 
L 4282 4320 
C 4147 4320 4141 4314 4102 4218 
L 2720 502 
L 1338 4224 
z
" transform="scale(0.015625)"/>
       <path id="CMR17-78" d="M 1664 1477 
C 1856 1726 2074 2006 2253 2216 
C 2464 2458 2707 2560 2989 2560 
L 2989 2726 
C 2880 2726 2656 2726 2541 2726 
C 2368 2726 2170 2726 2022 2732 
L 2022 2566 
C 2112 2553 2163 2489 2163 2400 
C 2163 2285 2099 2215 2067 2171 
L 1594 1573 
L 1030 2306 
C 973 2376 973 2388 973 2420 
C 973 2497 1037 2560 1146 2560 
L 1146 2732 
C 992 2726 717 2726 557 2726 
C 384 2726 179 2726 38 2732 
L 38 2560 
C 384 2560 461 2534 614 2343 
L 1350 1395 
C 1363 1382 1395 1344 1395 1325 
C 1395 1299 838 619 768 530 
C 480 185 179 160 6 160 
L 6 0 
C 115 0 339 0 454 0 
C 582 0 864 0 979 -6 
L 979 160 
C 941 166 838 179 838 325 
C 838 440 890 510 947 586 
L 1478 1236 
L 2035 512 
C 2086 442 2163 346 2163 301 
C 2163 211 2086 160 1984 160 
L 1984 -6 
C 2138 0 2413 0 2573 0 
C 2746 0 2950 0 3091 -6 
L 3091 160 
C 2771 160 2675 172 2522 370 
L 1664 1477 
z
" transform="scale(0.015625)"/>
       <path id="CMR17-46" d="M 3482 4325 
L 326 4325 
L 326 4160 
C 768 4160 838 4160 838 3874 
L 838 446 
C 838 160 768 160 326 160 
L 326 0 
C 512 0 870 0 1069 0 
C 1331 0 1638 0 1901 0 
L 1901 160 
L 1760 160 
C 1274 160 1261 223 1261 452 
L 1261 2075 
L 1837 2075 
C 2432 2075 2490 1865 2490 1332 
L 2605 1332 
L 2605 2987 
L 2490 2987 
C 2490 2450 2432 2240 1837 2240 
L 1261 2240 
L 1261 3911 
C 1261 4128 1274 4160 1530 4160 
L 2355 4160 
C 3322 4160 3430 3765 3520 2916 
L 3635 2916 
L 3482 4325 
z
" transform="scale(0.015625)"/>
       <path id="CMR17-47" d="M 3974 1233 
C 3974 1473 3994 1505 4390 1505 
L 4390 1670 
C 4237 1664 3891 1664 3718 1664 
C 3539 1664 3040 1664 2797 1664 
L 2797 1505 
L 2989 1505 
C 3539 1505 3552 1434 3552 1201 
L 3552 774 
C 3552 63 2720 63 2522 63 
C 1862 63 781 511 781 2160 
C 781 3808 1843 4250 2464 4250 
C 3187 4250 3712 3626 3834 2741 
C 3846 2664 3846 2651 3904 2651 
C 3974 2651 3974 2664 3974 2779 
L 3974 4288 
C 3974 4402 3968 4409 3930 4409 
C 3904 4409 3898 4402 3853 4326 
L 3571 3791 
C 3258 4187 2874 4416 2381 4416 
C 1286 4416 294 3456 294 2148 
C 294 845 1267 -128 2394 -128 
C 2912 -128 3418 56 3616 417 
C 3725 158 3904 -20 3936 -20 
C 3968 -20 3974 -13 3974 100 
L 3974 1233 
z
" transform="scale(0.015625)"/>
      </defs>
      <use xlink:href="#CMR17-4d" transform="scale(0.996264)"/>
      <use xlink:href="#CMR17-61" transform="translate(84.686941 0) scale(0.996264)"/>
      <use xlink:href="#CMR17-78" transform="translate(130.377418 0) scale(0.996264)"/>
      <use xlink:href="#CMR17-46" transform="translate(208.7463 0) scale(0.996264)"/>
      <use xlink:href="#CMR17-69" transform="translate(268.730146 0) scale(0.996264)"/>
      <use xlink:href="#CMR17-74" transform="translate(293.601205 0) scale(0.996264)"/>
      <use xlink:href="#CMR17-69" transform="translate(358.957939 0) scale(0.996264)"/>
      <use xlink:href="#CMR17-6e" transform="translate(383.828998 0) scale(0.996264)"/>
      <use xlink:href="#CMR17-47" transform="translate(464.800334 0) scale(0.996264)"/>
      <use xlink:href="#CMR17-72" transform="translate(537.15568 0) scale(0.996264)"/>
      <use xlink:href="#CMR17-6f" transform="translate(572.436447 0) scale(0.996264)"/>
      <use xlink:href="#CMR17-75" transform="translate(618.126925 0) scale(0.996264)"/>
      <use xlink:href="#CMR17-70" transform="translate(669.022294 0) scale(0.996264)"/>
     </g>
    </g>
   </g>
   <g id="line2d_95">
    <path d="M 83.597864 518.5116 
L 93.435881 518.5116 
L 103.273897 156.114596 
L 113.111914 156.114596 
L 122.94993 130.67943 
L 132.787947 130.67943 
L 142.625963 130.67943 
L 152.46398 30.104265 
L 162.301997 30.104265 
L 172.140013 30.104265 
L 181.97803 30.104265 
L 191.816046 30.104265 
L 201.654063 30.104265 
L 211.492079 30.104265 
L 221.330096 30.104265 
L 231.168112 30.104265 
L 241.006129 30.104265 
L 250.844145 30.104265 
L 260.682162 30.104265 
L 270.520178 30.104265 
L 280.358195 30.104265 
L 290.196211 30.104265 
L 300.034228 30.104265 
L 309.872244 30.104265 
L 319.710261 30.104265 
L 329.548278 30.104265 
L 339.386294 30.104265 
L 349.224311 30.104265 
L 359.062327 30.104265 
L 368.900344 30.104265 
L 378.73836 30.104265 
L 388.576377 30.104265 
L 398.414393 30.104265 
L 408.25241 30.104265 
L 418.090426 30.104265 
L 427.928443 30.104265 
L 437.766459 30.104265 
L 447.604476 30.104265 
L 457.442492 30.104265 
L 467.280509 30.104265 
L 477.118525 30.104265 
L 486.956542 30.104265 
L 496.794558 30.104265 
L 506.632575 30.104265 
L 516.470592 30.104265 
L 526.308608 30.104265 
L 536.146625 30.104265 
L 545.984641 30.104265 
L 555.822658 30.104265 
L 565.660674 28.1196 
L 575.498691 28.1196 
L 585.336707 28.1196 
L 595.174724 28.1196 
L 605.01274 28.1196 
L 614.850757 28.1196 
L 624.688773 28.1196 
L 634.52679 28.1196 
L 644.364806 28.1196 
L 654.202823 28.1196 
L 664.040839 28.1196 
L 673.878856 28.1196 
L 683.716873 28.1196 
L 693.554889 28.1196 
L 703.392906 28.1196 
L 713.230922 28.1196 
L 723.068939 28.1196 
L 732.906955 28.1196 
L 742.744972 28.1196 
L 752.582988 28.1196 
L 762.421005 28.1196 
L 772.259021 28.1196 
L 782.097038 28.1196 
L 791.935054 28.1196 
L 801.773071 28.1196 
L 811.611087 28.1196 
L 821.449104 28.1196 
L 831.28712 28.1196 
L 841.125137 28.1196 
L 850.963154 28.1196 
L 860.80117 28.1196 
L 870.639187 28.1196 
L 880.477203 28.1196 
L 890.31522 28.1196 
L 900.153236 28.1196 
L 909.991253 28.1196 
L 919.829269 28.1196 
L 929.667286 28.1196 
L 939.505302 28.1196 
L 949.343319 28.1196 
L 959.181335 28.1196 
L 969.019352 28.1196 
L 978.857368 28.1196 
L 988.695385 28.1196 
L 998.533401 28.1196 
L 1008.371418 28.1196 
L 1018.209435 28.1196 
L 1028.047451 28.1196 
L 1037.885468 28.1196 
L 1047.723484 28.1196 
L 1057.561501 28.1196 
" clip-path="url(#p16e58e28f0)" style="fill: none; stroke: #0c5da5; stroke-linecap: square"/>
    <defs>
     <path id="m7cfef6b280" d="M 0 3 
C 0.795609 3 1.55874 2.683901 2.12132 2.12132 
C 2.683901 1.55874 3 0.795609 3 0 
C 3 -0.795609 2.683901 -1.55874 2.12132 -2.12132 
C 1.55874 -2.683901 0.795609 -3 0 -3 
C -0.795609 -3 -1.55874 -2.683901 -2.12132 -2.12132 
C -2.683901 -1.55874 -3 -0.795609 -3 0 
C -3 0.795609 -2.683901 1.55874 -2.12132 2.12132 
C -1.55874 2.683901 -0.795609 3 0 3 
z
" style="stroke: #0c5da5"/>
    </defs>
    <g clip-path="url(#p16e58e28f0)">
     <use xlink:href="#m7cfef6b280" x="83.597864" y="518.5116" style="fill: #0c5da5; stroke: #0c5da5"/>
     <use xlink:href="#m7cfef6b280" x="93.435881" y="518.5116" style="fill: #0c5da5; stroke: #0c5da5"/>
     <use xlink:href="#m7cfef6b280" x="103.273897" y="156.114596" style="fill: #0c5da5; stroke: #0c5da5"/>
     <use xlink:href="#m7cfef6b280" x="113.111914" y="156.114596" style="fill: #0c5da5; stroke: #0c5da5"/>
     <use xlink:href="#m7cfef6b280" x="122.94993" y="130.67943" style="fill: #0c5da5; stroke: #0c5da5"/>
     <use xlink:href="#m7cfef6b280" x="132.787947" y="130.67943" style="fill: #0c5da5; stroke: #0c5da5"/>
     <use xlink:href="#m7cfef6b280" x="142.625963" y="130.67943" style="fill: #0c5da5; stroke: #0c5da5"/>
     <use xlink:href="#m7cfef6b280" x="152.46398" y="30.104265" style="fill: #0c5da5; stroke: #0c5da5"/>
     <use xlink:href="#m7cfef6b280" x="162.301997" y="30.104265" style="fill: #0c5da5; stroke: #0c5da5"/>
     <use xlink:href="#m7cfef6b280" x="172.140013" y="30.104265" style="fill: #0c5da5; stroke: #0c5da5"/>
     <use xlink:href="#m7cfef6b280" x="181.97803" y="30.104265" style="fill: #0c5da5; stroke: #0c5da5"/>
     <use xlink:href="#m7cfef6b280" x="191.816046" y="30.104265" style="fill: #0c5da5; stroke: #0c5da5"/>
     <use xlink:href="#m7cfef6b280" x="201.654063" y="30.104265" style="fill: #0c5da5; stroke: #0c5da5"/>
     <use xlink:href="#m7cfef6b280" x="211.492079" y="30.104265" style="fill: #0c5da5; stroke: #0c5da5"/>
     <use xlink:href="#m7cfef6b280" x="221.330096" y="30.104265" style="fill: #0c5da5; stroke: #0c5da5"/>
     <use xlink:href="#m7cfef6b280" x="231.168112" y="30.104265" style="fill: #0c5da5; stroke: #0c5da5"/>
     <use xlink:href="#m7cfef6b280" x="241.006129" y="30.104265" style="fill: #0c5da5; stroke: #0c5da5"/>
     <use xlink:href="#m7cfef6b280" x="250.844145" y="30.104265" style="fill: #0c5da5; stroke: #0c5da5"/>
     <use xlink:href="#m7cfef6b280" x="260.682162" y="30.104265" style="fill: #0c5da5; stroke: #0c5da5"/>
     <use xlink:href="#m7cfef6b280" x="270.520178" y="30.104265" style="fill: #0c5da5; stroke: #0c5da5"/>
     <use xlink:href="#m7cfef6b280" x="280.358195" y="30.104265" style="fill: #0c5da5; stroke: #0c5da5"/>
     <use xlink:href="#m7cfef6b280" x="290.196211" y="30.104265" style="fill: #0c5da5; stroke: #0c5da5"/>
     <use xlink:href="#m7cfef6b280" x="300.034228" y="30.104265" style="fill: #0c5da5; stroke: #0c5da5"/>
     <use xlink:href="#m7cfef6b280" x="309.872244" y="30.104265" style="fill: #0c5da5; stroke: #0c5da5"/>
     <use xlink:href="#m7cfef6b280" x="319.710261" y="30.104265" style="fill: #0c5da5; stroke: #0c5da5"/>
     <use xlink:href="#m7cfef6b280" x="329.548278" y="30.104265" style="fill: #0c5da5; stroke: #0c5da5"/>
     <use xlink:href="#m7cfef6b280" x="339.386294" y="30.104265" style="fill: #0c5da5; stroke: #0c5da5"/>
     <use xlink:href="#m7cfef6b280" x="349.224311" y="30.104265" style="fill: #0c5da5; stroke: #0c5da5"/>
     <use xlink:href="#m7cfef6b280" x="359.062327" y="30.104265" style="fill: #0c5da5; stroke: #0c5da5"/>
     <use xlink:href="#m7cfef6b280" x="368.900344" y="30.104265" style="fill: #0c5da5; stroke: #0c5da5"/>
     <use xlink:href="#m7cfef6b280" x="378.73836" y="30.104265" style="fill: #0c5da5; stroke: #0c5da5"/>
     <use xlink:href="#m7cfef6b280" x="388.576377" y="30.104265" style="fill: #0c5da5; stroke: #0c5da5"/>
     <use xlink:href="#m7cfef6b280" x="398.414393" y="30.104265" style="fill: #0c5da5; stroke: #0c5da5"/>
     <use xlink:href="#m7cfef6b280" x="408.25241" y="30.104265" style="fill: #0c5da5; stroke: #0c5da5"/>
     <use xlink:href="#m7cfef6b280" x="418.090426" y="30.104265" style="fill: #0c5da5; stroke: #0c5da5"/>
     <use xlink:href="#m7cfef6b280" x="427.928443" y="30.104265" style="fill: #0c5da5; stroke: #0c5da5"/>
     <use xlink:href="#m7cfef6b280" x="437.766459" y="30.104265" style="fill: #0c5da5; stroke: #0c5da5"/>
     <use xlink:href="#m7cfef6b280" x="447.604476" y="30.104265" style="fill: #0c5da5; stroke: #0c5da5"/>
     <use xlink:href="#m7cfef6b280" x="457.442492" y="30.104265" style="fill: #0c5da5; stroke: #0c5da5"/>
     <use xlink:href="#m7cfef6b280" x="467.280509" y="30.104265" style="fill: #0c5da5; stroke: #0c5da5"/>
     <use xlink:href="#m7cfef6b280" x="477.118525" y="30.104265" style="fill: #0c5da5; stroke: #0c5da5"/>
     <use xlink:href="#m7cfef6b280" x="486.956542" y="30.104265" style="fill: #0c5da5; stroke: #0c5da5"/>
     <use xlink:href="#m7cfef6b280" x="496.794558" y="30.104265" style="fill: #0c5da5; stroke: #0c5da5"/>
     <use xlink:href="#m7cfef6b280" x="506.632575" y="30.104265" style="fill: #0c5da5; stroke: #0c5da5"/>
     <use xlink:href="#m7cfef6b280" x="516.470592" y="30.104265" style="fill: #0c5da5; stroke: #0c5da5"/>
     <use xlink:href="#m7cfef6b280" x="526.308608" y="30.104265" style="fill: #0c5da5; stroke: #0c5da5"/>
     <use xlink:href="#m7cfef6b280" x="536.146625" y="30.104265" style="fill: #0c5da5; stroke: #0c5da5"/>
     <use xlink:href="#m7cfef6b280" x="545.984641" y="30.104265" style="fill: #0c5da5; stroke: #0c5da5"/>
     <use xlink:href="#m7cfef6b280" x="555.822658" y="30.104265" style="fill: #0c5da5; stroke: #0c5da5"/>
     <use xlink:href="#m7cfef6b280" x="565.660674" y="28.1196" style="fill: #0c5da5; stroke: #0c5da5"/>
     <use xlink:href="#m7cfef6b280" x="575.498691" y="28.1196" style="fill: #0c5da5; stroke: #0c5da5"/>
     <use xlink:href="#m7cfef6b280" x="585.336707" y="28.1196" style="fill: #0c5da5; stroke: #0c5da5"/>
     <use xlink:href="#m7cfef6b280" x="595.174724" y="28.1196" style="fill: #0c5da5; stroke: #0c5da5"/>
     <use xlink:href="#m7cfef6b280" x="605.01274" y="28.1196" style="fill: #0c5da5; stroke: #0c5da5"/>
     <use xlink:href="#m7cfef6b280" x="614.850757" y="28.1196" style="fill: #0c5da5; stroke: #0c5da5"/>
     <use xlink:href="#m7cfef6b280" x="624.688773" y="28.1196" style="fill: #0c5da5; stroke: #0c5da5"/>
     <use xlink:href="#m7cfef6b280" x="634.52679" y="28.1196" style="fill: #0c5da5; stroke: #0c5da5"/>
     <use xlink:href="#m7cfef6b280" x="644.364806" y="28.1196" style="fill: #0c5da5; stroke: #0c5da5"/>
     <use xlink:href="#m7cfef6b280" x="654.202823" y="28.1196" style="fill: #0c5da5; stroke: #0c5da5"/>
     <use xlink:href="#m7cfef6b280" x="664.040839" y="28.1196" style="fill: #0c5da5; stroke: #0c5da5"/>
     <use xlink:href="#m7cfef6b280" x="673.878856" y="28.1196" style="fill: #0c5da5; stroke: #0c5da5"/>
     <use xlink:href="#m7cfef6b280" x="683.716873" y="28.1196" style="fill: #0c5da5; stroke: #0c5da5"/>
     <use xlink:href="#m7cfef6b280" x="693.554889" y="28.1196" style="fill: #0c5da5; stroke: #0c5da5"/>
     <use xlink:href="#m7cfef6b280" x="703.392906" y="28.1196" style="fill: #0c5da5; stroke: #0c5da5"/>
     <use xlink:href="#m7cfef6b280" x="713.230922" y="28.1196" style="fill: #0c5da5; stroke: #0c5da5"/>
     <use xlink:href="#m7cfef6b280" x="723.068939" y="28.1196" style="fill: #0c5da5; stroke: #0c5da5"/>
     <use xlink:href="#m7cfef6b280" x="732.906955" y="28.1196" style="fill: #0c5da5; stroke: #0c5da5"/>
     <use xlink:href="#m7cfef6b280" x="742.744972" y="28.1196" style="fill: #0c5da5; stroke: #0c5da5"/>
     <use xlink:href="#m7cfef6b280" x="752.582988" y="28.1196" style="fill: #0c5da5; stroke: #0c5da5"/>
     <use xlink:href="#m7cfef6b280" x="762.421005" y="28.1196" style="fill: #0c5da5; stroke: #0c5da5"/>
     <use xlink:href="#m7cfef6b280" x="772.259021" y="28.1196" style="fill: #0c5da5; stroke: #0c5da5"/>
     <use xlink:href="#m7cfef6b280" x="782.097038" y="28.1196" style="fill: #0c5da5; stroke: #0c5da5"/>
     <use xlink:href="#m7cfef6b280" x="791.935054" y="28.1196" style="fill: #0c5da5; stroke: #0c5da5"/>
     <use xlink:href="#m7cfef6b280" x="801.773071" y="28.1196" style="fill: #0c5da5; stroke: #0c5da5"/>
     <use xlink:href="#m7cfef6b280" x="811.611087" y="28.1196" style="fill: #0c5da5; stroke: #0c5da5"/>
     <use xlink:href="#m7cfef6b280" x="821.449104" y="28.1196" style="fill: #0c5da5; stroke: #0c5da5"/>
     <use xlink:href="#m7cfef6b280" x="831.28712" y="28.1196" style="fill: #0c5da5; stroke: #0c5da5"/>
     <use xlink:href="#m7cfef6b280" x="841.125137" y="28.1196" style="fill: #0c5da5; stroke: #0c5da5"/>
     <use xlink:href="#m7cfef6b280" x="850.963154" y="28.1196" style="fill: #0c5da5; stroke: #0c5da5"/>
     <use xlink:href="#m7cfef6b280" x="860.80117" y="28.1196" style="fill: #0c5da5; stroke: #0c5da5"/>
     <use xlink:href="#m7cfef6b280" x="870.639187" y="28.1196" style="fill: #0c5da5; stroke: #0c5da5"/>
     <use xlink:href="#m7cfef6b280" x="880.477203" y="28.1196" style="fill: #0c5da5; stroke: #0c5da5"/>
     <use xlink:href="#m7cfef6b280" x="890.31522" y="28.1196" style="fill: #0c5da5; stroke: #0c5da5"/>
     <use xlink:href="#m7cfef6b280" x="900.153236" y="28.1196" style="fill: #0c5da5; stroke: #0c5da5"/>
     <use xlink:href="#m7cfef6b280" x="909.991253" y="28.1196" style="fill: #0c5da5; stroke: #0c5da5"/>
     <use xlink:href="#m7cfef6b280" x="919.829269" y="28.1196" style="fill: #0c5da5; stroke: #0c5da5"/>
     <use xlink:href="#m7cfef6b280" x="929.667286" y="28.1196" style="fill: #0c5da5; stroke: #0c5da5"/>
     <use xlink:href="#m7cfef6b280" x="939.505302" y="28.1196" style="fill: #0c5da5; stroke: #0c5da5"/>
     <use xlink:href="#m7cfef6b280" x="949.343319" y="28.1196" style="fill: #0c5da5; stroke: #0c5da5"/>
     <use xlink:href="#m7cfef6b280" x="959.181335" y="28.1196" style="fill: #0c5da5; stroke: #0c5da5"/>
     <use xlink:href="#m7cfef6b280" x="969.019352" y="28.1196" style="fill: #0c5da5; stroke: #0c5da5"/>
     <use xlink:href="#m7cfef6b280" x="978.857368" y="28.1196" style="fill: #0c5da5; stroke: #0c5da5"/>
     <use xlink:href="#m7cfef6b280" x="988.695385" y="28.1196" style="fill: #0c5da5; stroke: #0c5da5"/>
     <use xlink:href="#m7cfef6b280" x="998.533401" y="28.1196" style="fill: #0c5da5; stroke: #0c5da5"/>
     <use xlink:href="#m7cfef6b280" x="1008.371418" y="28.1196" style="fill: #0c5da5; stroke: #0c5da5"/>
     <use xlink:href="#m7cfef6b280" x="1018.209435" y="28.1196" style="fill: #0c5da5; stroke: #0c5da5"/>
     <use xlink:href="#m7cfef6b280" x="1028.047451" y="28.1196" style="fill: #0c5da5; stroke: #0c5da5"/>
     <use xlink:href="#m7cfef6b280" x="1037.885468" y="28.1196" style="fill: #0c5da5; stroke: #0c5da5"/>
     <use xlink:href="#m7cfef6b280" x="1047.723484" y="28.1196" style="fill: #0c5da5; stroke: #0c5da5"/>
     <use xlink:href="#m7cfef6b280" x="1057.561501" y="28.1196" style="fill: #0c5da5; stroke: #0c5da5"/>
    </g>
   </g>
   <g id="patch_3">
    <path d="M 34.899682 543.0312 
L 34.899682 3.6 
" style="fill: none; stroke: #000000; stroke-width: 0.5; stroke-linejoin: miter; stroke-linecap: square"/>
   </g>
   <g id="patch_4">
    <path d="M 1106.259682 543.0312 
L 1106.259682 3.6 
" style="fill: none; stroke: #000000; stroke-width: 0.5; stroke-linejoin: miter; stroke-linecap: square"/>
   </g>
   <g id="patch_5">
    <path d="M 34.899682 543.0312 
L 1106.259682 543.0312 
" style="fill: none; stroke: #000000; stroke-width: 0.5; stroke-linejoin: miter; stroke-linecap: square"/>
   </g>
   <g id="patch_6">
    <path d="M 34.899682 3.6 
L 1106.259682 3.6 
" style="fill: none; stroke: #000000; stroke-width: 0.5; stroke-linejoin: miter; stroke-linecap: square"/>
   </g>
  </g>
 </g>
 <defs>
  <clipPath id="p16e58e28f0">
   <rect x="34.899682" y="3.6" width="1071.36" height="539.4312"/>
  </clipPath>
 </defs>
</svg>
